{
DisplayStrings = (
"\U00DF\U00BC%/perthousand @&"
);
classes = (
{
automatic = 1;

glyphs = (
{
color = 11;
glyphname = A;
lastChange = "2015-02-19 03:26:13 +0000";
layers = (
{
anchors = (
{
name = bottom;
position = "{227, 0}";
},
{
name = ogonek;
position = "{447, 10}";
},
{
name = top;
position = "{346, 611}";
}
);
background = {
paths = (
{
closed = 1;
nodes = (
"379 48 LINE",
"317 36 LINE",
"312 0 LINE",
"516 0 LINE",
"522 35 LINE",
"460 52 LINE",
"381 626 LINE",
"328 615 LINE",
"45 48 LINE",
"-27 35 LINE",
"-32 0 LINE",
"158 0 LINE",
"167 37 LINE",
"102 47 LINE",
"189 223 LINE",
"356 223 LINE"
);
},
{
closed = 1;
nodes = (
"321 489 LINE",
"350 266 LINE",
"210 266 LINE"
);
}
);
};
layerId = "27799D80-F866-457E-9382-0097DC0AFC53";
paths = (
{
closed = 1;
nodes = (
"379 48 LINE",
"317 36 LINE",
"312 0 LINE",
"516 0 LINE",
"522 35 LINE",
"460 52 LINE",
"381 626 LINE",
"328 615 LINE",
"45 48 LINE",
"-27 35 LINE",
"-32 0 LINE",
"158 0 LINE",
"167 37 LINE",
"102 47 LINE",
"189 223 LINE",
"356 223 LINE"
);
},
{
closed = 1;
nodes = (
"321 489 LINE",
"350 266 LINE",
"210 266 LINE"
);
}
);
width = 550;
},
{
anchors = (
{
name = bottom;
position = "{232, 0}";
},
{
name = ogonek;
position = "{456, 10}";
},
{
name = top;
position = "{352, 614}";
}
);
background = {
paths = (
{
closed = 1;
nodes = (
"345 65 LINE",
"279 45 LINE",
"270 0 LINE",
"537 0 LINE",
"546 45 LINE",
"483 69 LINE",
"391 627 LINE",
"314 614 LINE",
"26 69 LINE",
"-43 44 LINE",
"-52 0 LINE",
"154 0 LINE",
"163 45 LINE",
"103 68 LINE",
"148 153 LINE",
"331 153 LINE"
);
},
{
closed = 1;
nodes = (
"290 423 LINE",
"322 212 LINE",
"179 212 LINE"
);
}
);
};
layerId = "91FB354D-039B-406A-8F87-4ABC8510003D";
paths = (
{
closed = 1;
nodes = (
"345 65 LINE",
"279 45 LINE",
"270 0 LINE",
"537 0 LINE",
"546 45 LINE",
"483 69 LINE",
"391 627 LINE",
"314 614 LINE",
"26 69 LINE",
"-43 44 LINE",
"-52 0 LINE",
"154 0 LINE",
"163 45 LINE",
"103 68 LINE",
"148 153 LINE",
"331 153 LINE"
);
},
{
closed = 1;
nodes = (
"290 423 LINE",
"322 212 LINE",
"179 212 LINE"
);
}
);
width = 560;
}
);
leftKerningGroup = A;
rightKerningGroup = A;
unicode = 0041;
},
{
color = 11;
glyphname = Aacute;
lastChange = "2015-02-19 03:26:13 +0000";
layers = (
{
background = {
paths = (
{
closed = 1;
nodes = (
"378 48 LINE",
"316 36 LINE",
"311 0 LINE",
"515 0 LINE",
"521 35 LINE",
"459 52 LINE",
"380 626 LINE",
"327 615 LINE",
"44 48 LINE",
"-28 35 LINE",
"-33 0 LINE",
"157 0 LINE",
"166 37 LINE",
"101 47 LINE",
"188 223 LINE",
"355 223 LINE"
);
},
{
closed = 1;
nodes = (
"320 489 LINE",
"349 266 LINE",
"209 266 LINE"
);
},
{
closed = 1;
nodes = (
"498 754 LINE",
"498 772 LINE",
"422 800 LINE",
"268 670 LINE",
"284 651 LINE"
);
}
);
};
layerId = "27799D80-F866-457E-9382-0097DC0AFC53";
paths = (
{
closed = 1;
nodes = (
"378 48 LINE",
"316 36 LINE",
"311 0 LINE",
"515 0 LINE",
"521 35 LINE",
"459 52 LINE",
"380 626 LINE",
"327 615 LINE",
"44 48 LINE",
"-28 35 LINE",
"-33 0 LINE",
"157 0 LINE",
"166 37 LINE",
"101 47 LINE",
"188 223 LINE",
"355 223 LINE"
);
},
{
closed = 1;
nodes = (
"320 489 LINE",
"349 266 LINE",
"209 266 LINE"
);
},
{
closed = 1;
nodes = (
"498 754 LINE",
"498 772 LINE",
"422 800 LINE",
"268 670 LINE",
"284 651 LINE"
);
}
);
width = 587;
},
{
background = {
paths = (
{
closed = 1;
nodes = (
"345 65 LINE",
"279 45 LINE",
"270 0 LINE",
"537 0 LINE",
"546 45 LINE",
"483 69 LINE",
"391 627 LINE",
"314 614 LINE",
"26 69 LINE",
"-43 44 LINE",
"-52 0 LINE",
"154 0 LINE",
"163 45 LINE",
"103 68 LINE",
"148 153 LINE",
"331 153 LINE"
);
},
{
closed = 1;
nodes = (
"497 743 LINE",
"497 766 LINE",
"398 800 LINE",
"242 669 LINE",
"269 634 LINE"
);
},
{
closed = 1;
nodes = (
"290 423 LINE",
"322 212 LINE",
"179 212 LINE"
);
}
);
};
layerId = "91FB354D-039B-406A-8F87-4ABC8510003D";
paths = (
{
closed = 1;
nodes = (
"345 65 LINE",
"279 45 LINE",
"270 0 LINE",
"537 0 LINE",
"546 45 LINE",
"483 69 LINE",
"391 627 LINE",
"314 614 LINE",
"26 69 LINE",
"-43 44 LINE",
"-52 0 LINE",
"154 0 LINE",
"163 45 LINE",
"103 68 LINE",
"148 153 LINE",
"331 153 LINE"
);
},
{
closed = 1;
nodes = (
"497 743 LINE",
"497 766 LINE",
"398 800 LINE",
"242 669 LINE",
"269 634 LINE"
);
},
{
closed = 1;
nodes = (
"290 423 LINE",
"322 212 LINE",
"179 212 LINE"
);
}
);
width = 560;
}
);
leftKerningGroup = A;
rightKerningGroup = A;
unicode = 00C1;
},
{
color = 11;
glyphname = Abreve;
lastChange = "2015-02-19 03:26:13 +0000";
layers = (
{
background = {
paths = (
{
closed = 1;
nodes = (
"378 48 LINE",
"316 36 LINE",
"311 0 LINE",
"515 0 LINE",
"521 35 LINE",
"459 52 LINE",
"380 626 LINE",
"327 615 LINE",
"44 48 LINE",
"-28 35 LINE",
"-33 0 LINE",
"157 0 LINE",
"166 37 LINE",
"101 47 LINE",
"188 223 LINE",
"355 223 LINE"
);
},
{
closed = 1;
nodes = (
"320 489 LINE",
"349 266 LINE",
"209 266 LINE"
);
},
{
closed = 1;
nodes = (
"459 669 OFFCURVE",
"493 726 OFFCURVE",
"505 785 CURVE",
"472 785 LINE",
"466 753 OFFCURVE",
"444 723 OFFCURVE",
"374 723 CURVE SMOOTH",
"316 723 OFFCURVE",
"304 744 OFFCURVE",
"302 769 CURVE",
"302 774 OFFCURVE",
"303 780 OFFCURVE",
"305 785 CURVE",
"271 785 LINE",
"269 776 OFFCURVE",
"266 765 OFFCURVE",
"266 756 CURVE SMOOTH",
"266 708 OFFCURVE",
"288 669 OFFCURVE",
"367 669 CURVE SMOOTH"
);
}
);
};
layerId = "27799D80-F866-457E-9382-0097DC0AFC53";
paths = (
{
closed = 1;
nodes = (
"378 48 LINE",
"316 36 LINE",
"311 0 LINE",
"515 0 LINE",
"521 35 LINE",
"459 52 LINE",
"380 626 LINE",
"327 615 LINE",
"44 48 LINE",
"-28 35 LINE",
"-33 0 LINE",
"157 0 LINE",
"166 37 LINE",
"101 47 LINE",
"188 223 LINE",
"355 223 LINE"
);
},
{
closed = 1;
nodes = (
"320 489 LINE",
"349 266 LINE",
"209 266 LINE"
);
},
{
closed = 1;
nodes = (
"459 669 OFFCURVE",
"493 726 OFFCURVE",
"505 785 CURVE",
"472 785 LINE",
"466 753 OFFCURVE",
"444 723 OFFCURVE",
"374 723 CURVE SMOOTH",
"316 723 OFFCURVE",
"304 744 OFFCURVE",
"302 769 CURVE",
"302 774 OFFCURVE",
"303 780 OFFCURVE",
"305 785 CURVE",
"271 785 LINE",
"269 776 OFFCURVE",
"266 765 OFFCURVE",
"266 756 CURVE SMOOTH",
"266 708 OFFCURVE",
"288 669 OFFCURVE",
"367 669 CURVE SMOOTH"
);
}
);
width = 587;
},
{
background = {
paths = (
{
closed = 1;
nodes = (
"345 65 LINE",
"279 45 LINE",
"270 0 LINE",
"537 0 LINE",
"546 45 LINE",
"483 69 LINE",
"391 627 LINE",
"314 614 LINE",
"26 69 LINE",
"-43 44 LINE",
"-52 0 LINE",
"154 0 LINE",
"163 45 LINE",
"103 68 LINE",
"148 153 LINE",
"331 153 LINE"
);
},
{
closed = 1;
nodes = (
"447 651 OFFCURVE",
"478 718 OFFCURVE",
"492 788 CURVE",
"438 788 LINE",
"430 758 OFFCURVE",
"420 727 OFFCURVE",
"356 727 CURVE SMOOTH",
"309 727 OFFCURVE",
"304 747 OFFCURVE",
"304 770 CURVE SMOOTH",
"304 775 OFFCURVE",
"305 783 OFFCURVE",
"306 788 CURVE",
"250 788 LINE",
"245 774 OFFCURVE",
"241 755 OFFCURVE",
"241 740 CURVE SMOOTH",
"241 691 OFFCURVE",
"266 651 OFFCURVE",
"344 651 CURVE SMOOTH"
);
},
{
closed = 1;
nodes = (
"290 423 LINE",
"322 212 LINE",
"179 212 LINE"
);
}
);
};
layerId = "91FB354D-039B-406A-8F87-4ABC8510003D";
paths = (
{
closed = 1;
nodes = (
"345 65 LINE",
"279 45 LINE",
"270 0 LINE",
"537 0 LINE",
"546 45 LINE",
"483 69 LINE",
"391 627 LINE",
"314 614 LINE",
"26 69 LINE",
"-43 44 LINE",
"-52 0 LINE",
"154 0 LINE",
"163 45 LINE",
"103 68 LINE",
"148 153 LINE",
"331 153 LINE"
);
},
{
closed = 1;
nodes = (
"447 651 OFFCURVE",
"478 718 OFFCURVE",
"492 788 CURVE",
"438 788 LINE",
"430 758 OFFCURVE",
"420 727 OFFCURVE",
"356 727 CURVE SMOOTH",
"309 727 OFFCURVE",
"304 747 OFFCURVE",
"304 770 CURVE SMOOTH",
"304 775 OFFCURVE",
"305 783 OFFCURVE",
"306 788 CURVE",
"250 788 LINE",
"245 774 OFFCURVE",
"241 755 OFFCURVE",
"241 740 CURVE SMOOTH",
"241 691 OFFCURVE",
"266 651 OFFCURVE",
"344 651 CURVE SMOOTH"
);
},
{
closed = 1;
nodes = (
"290 423 LINE",
"322 212 LINE",
"179 212 LINE"
);
}
);
width = 560;
}
);
leftKerningGroup = A;
rightKerningGroup = A;
unicode = 0102;
},
{
color = 11;
glyphname = Acircumflex;
lastChange = "2015-02-19 03:26:13 +0000";
layers = (
{
background = {
paths = (
{
closed = 1;
nodes = (
"378 48 LINE",
"316 36 LINE",
"311 0 LINE",
"515 0 LINE",
"521 35 LINE",
"459 52 LINE",
"380 626 LINE",
"327 615 LINE",
"44 48 LINE",
"-28 35 LINE",
"-33 0 LINE",
"157 0 LINE",
"166 37 LINE",
"101 47 LINE",
"188 223 LINE",
"355 223 LINE"
);
},
{
closed = 1;
nodes = (
"506 669 LINE",
"427 804 LINE",
"367 804 LINE",
"228 669 LINE",
"248 650 LINE",
"387 733 LINE",
"480 650 LINE"
);
},
{
closed = 1;
nodes = (
"320 489 LINE",
"349 266 LINE",
"209 266 LINE"
);
}
);
};
layerId = "27799D80-F866-457E-9382-0097DC0AFC53";
paths = (
{
closed = 1;
nodes = (
"378 48 LINE",
"316 36 LINE",
"311 0 LINE",
"515 0 LINE",
"521 35 LINE",
"459 52 LINE",
"380 626 LINE",
"327 615 LINE",
"44 48 LINE",
"-28 35 LINE",
"-33 0 LINE",
"157 0 LINE",
"166 37 LINE",
"101 47 LINE",
"188 223 LINE",
"355 223 LINE"
);
},
{
closed = 1;
nodes = (
"506 669 LINE",
"427 804 LINE",
"367 804 LINE",
"228 669 LINE",
"248 650 LINE",
"387 733 LINE",
"480 650 LINE"
);
},
{
closed = 1;
nodes = (
"320 489 LINE",
"349 266 LINE",
"209 266 LINE"
);
}
);
width = 587;
},
{
background = {
paths = (
{
closed = 1;
nodes = (
"345 65 LINE",
"279 45 LINE",
"270 0 LINE",
"537 0 LINE",
"546 45 LINE",
"483 69 LINE",
"391 627 LINE",
"314 614 LINE",
"26 69 LINE",
"-43 44 LINE",
"-52 0 LINE",
"154 0 LINE",
"163 45 LINE",
"103 68 LINE",
"148 153 LINE",
"331 153 LINE"
);
},
{
closed = 1;
nodes = (
"497 665 LINE",
"415 795 LINE",
"330 795 LINE",
"202 669 LINE",
"225 639 LINE",
"359 707 LINE",
"467 639 LINE"
);
},
{
closed = 1;
nodes = (
"290 423 LINE",
"322 212 LINE",
"179 212 LINE"
);
}
);
};
layerId = "91FB354D-039B-406A-8F87-4ABC8510003D";
paths = (
{
closed = 1;
nodes = (
"345 65 LINE",
"279 45 LINE",
"270 0 LINE",
"537 0 LINE",
"546 45 LINE",
"483 69 LINE",
"391 627 LINE",
"314 614 LINE",
"26 69 LINE",
"-43 44 LINE",
"-52 0 LINE",
"154 0 LINE",
"163 45 LINE",
"103 68 LINE",
"148 153 LINE",
"331 153 LINE"
);
},
{
closed = 1;
nodes = (
"497 665 LINE",
"415 795 LINE",
"330 795 LINE",
"202 669 LINE",
"225 639 LINE",
"359 707 LINE",
"467 639 LINE"
);
},
{
closed = 1;
nodes = (
"290 423 LINE",
"322 212 LINE",
"179 212 LINE"
);
}
);
width = 560;
}
);
leftKerningGroup = A;
rightKerningGroup = A;
unicode = 00C2;
},
{
color = 11;
glyphname = Adieresis;
lastChange = "2015-02-19 03:26:13 +0000";
layers = (
{
background = {
paths = (
{
closed = 1;
nodes = (
"378 48 LINE",
"316 36 LINE",
"311 0 LINE",
"515 0 LINE",
"521 35 LINE",
"459 52 LINE",
"380 626 LINE",
"327 615 LINE",
"44 48 LINE",
"-28 35 LINE",
"-33 0 LINE",
"157 0 LINE",
"166 37 LINE",
"101 47 LINE",
"188 223 LINE",
"355 223 LINE"
);
},
{
closed = 1;
nodes = (
"320 489 LINE",
"349 266 LINE",
"209 266 LINE"
);
},
{
closed = 1;
nodes = (
"535 758 OFFCURVE",
"507 784 OFFCURVE",
"477 784 CURVE SMOOTH",
"447 784 OFFCURVE",
"420 758 OFFCURVE",
"420 726 CURVE SMOOTH",
"420 696 OFFCURVE",
"447 671 OFFCURVE",
"477 671 CURVE SMOOTH",
"507 671 OFFCURVE",
"535 696 OFFCURVE",
"535 726 CURVE SMOOTH"
);
},
{
closed = 1;
nodes = (
"340 758 OFFCURVE",
"313 784 OFFCURVE",
"283 784 CURVE SMOOTH",
"253 784 OFFCURVE",
"226 758 OFFCURVE",
"226 726 CURVE SMOOTH",
"226 696 OFFCURVE",
"253 671 OFFCURVE",
"283 671 CURVE SMOOTH",
"313 671 OFFCURVE",
"340 696 OFFCURVE",
"340 726 CURVE SMOOTH"
);
}
);
};
layerId = "27799D80-F866-457E-9382-0097DC0AFC53";
paths = (
{
closed = 1;
nodes = (
"378 48 LINE",
"316 36 LINE",
"311 0 LINE",
"515 0 LINE",
"521 35 LINE",
"459 52 LINE",
"380 626 LINE",
"327 615 LINE",
"44 48 LINE",
"-28 35 LINE",
"-33 0 LINE",
"157 0 LINE",
"166 37 LINE",
"101 47 LINE",
"188 223 LINE",
"355 223 LINE"
);
},
{
closed = 1;
nodes = (
"320 489 LINE",
"349 266 LINE",
"209 266 LINE"
);
},
{
closed = 1;
nodes = (
"535 758 OFFCURVE",
"507 784 OFFCURVE",
"477 784 CURVE SMOOTH",
"447 784 OFFCURVE",
"420 758 OFFCURVE",
"420 726 CURVE SMOOTH",
"420 696 OFFCURVE",
"447 671 OFFCURVE",
"477 671 CURVE SMOOTH",
"507 671 OFFCURVE",
"535 696 OFFCURVE",
"535 726 CURVE SMOOTH"
);
},
{
closed = 1;
nodes = (
"340 758 OFFCURVE",
"313 784 OFFCURVE",
"283 784 CURVE SMOOTH",
"253 784 OFFCURVE",
"226 758 OFFCURVE",
"226 726 CURVE SMOOTH",
"226 696 OFFCURVE",
"253 671 OFFCURVE",
"283 671 CURVE SMOOTH",
"313 671 OFFCURVE",
"340 696 OFFCURVE",
"340 726 CURVE SMOOTH"
);
}
);
width = 587;
},
{
background = {
paths = (
{
closed = 1;
nodes = (
"345 65 LINE",
"279 45 LINE",
"270 0 LINE",
"537 0 LINE",
"546 45 LINE",
"483 69 LINE",
"391 627 LINE",
"314 614 LINE",
"26 69 LINE",
"-43 44 LINE",
"-52 0 LINE",
"154 0 LINE",
"163 45 LINE",
"103 68 LINE",
"148 153 LINE",
"331 153 LINE"
);
},
{
closed = 1;
nodes = (
"320 760 OFFCURVE",
"286 792 OFFCURVE",
"246 792 CURVE SMOOTH",
"205 792 OFFCURVE",
"168 760 OFFCURVE",
"168 719 CURVE SMOOTH",
"168 677 OFFCURVE",
"205 647 OFFCURVE",
"246 647 CURVE SMOOTH",
"286 647 OFFCURVE",
"320 677 OFFCURVE",
"320 719 CURVE SMOOTH"
);
},
{
closed = 1;
nodes = (
"551 760 OFFCURVE",
"516 792 OFFCURVE",
"478 792 CURVE SMOOTH",
"436 792 OFFCURVE",
"401 760 OFFCURVE",
"401 719 CURVE SMOOTH",
"401 677 OFFCURVE",
"436 647 OFFCURVE",
"478 647 CURVE SMOOTH",
"516 647 OFFCURVE",
"551 677 OFFCURVE",
"551 719 CURVE SMOOTH"
);
},
{
closed = 1;
nodes = (
"290 423 LINE",
"322 212 LINE",
"179 212 LINE"
);
}
);
};
layerId = "91FB354D-039B-406A-8F87-4ABC8510003D";
paths = (
{
closed = 1;
nodes = (
"345 65 LINE",
"279 45 LINE",
"270 0 LINE",
"537 0 LINE",
"546 45 LINE",
"483 69 LINE",
"391 627 LINE",
"314 614 LINE",
"26 69 LINE",
"-43 44 LINE",
"-52 0 LINE",
"154 0 LINE",
"163 45 LINE",
"103 68 LINE",
"148 153 LINE",
"331 153 LINE"
);
},
{
closed = 1;
nodes = (
"320 760 OFFCURVE",
"286 792 OFFCURVE",
"246 792 CURVE SMOOTH",
"205 792 OFFCURVE",
"168 760 OFFCURVE",
"168 719 CURVE SMOOTH",
"168 677 OFFCURVE",
"205 647 OFFCURVE",
"246 647 CURVE SMOOTH",
"286 647 OFFCURVE",
"320 677 OFFCURVE",
"320 719 CURVE SMOOTH"
);
},
{
closed = 1;
nodes = (
"551 760 OFFCURVE",
"516 792 OFFCURVE",
"478 792 CURVE SMOOTH",
"436 792 OFFCURVE",
"401 760 OFFCURVE",
"401 719 CURVE SMOOTH",
"401 677 OFFCURVE",
"436 647 OFFCURVE",
"478 647 CURVE SMOOTH",
"516 647 OFFCURVE",
"551 677 OFFCURVE",
"551 719 CURVE SMOOTH"
);
},
{
closed = 1;
nodes = (
"290 423 LINE",
"322 212 LINE",
"179 212 LINE"
);
}
);
width = 560;
}
);
leftKerningGroup = A;
rightKerningGroup = A;
unicode = 00C4;
},
{
color = 11;
glyphname = Agrave;
lastChange = "2015-02-19 03:26:13 +0000";
layers = (
{
background = {
paths = (
{
closed = 1;
nodes = (
"378 48 LINE",
"316 36 LINE",
"311 0 LINE",
"515 0 LINE",
"521 35 LINE",
"459 52 LINE",
"380 626 LINE",
"327 615 LINE",
"44 48 LINE",
"-28 35 LINE",
"-33 0 LINE",
"157 0 LINE",
"166 37 LINE",
"101 47 LINE",
"188 223 LINE",
"355 223 LINE"
);
},
{
closed = 1;
nodes = (
"320 489 LINE",
"349 266 LINE",
"209 266 LINE"
);
},
{
closed = 1;
nodes = (
"446 651 LINE",
"462 670 LINE",
"308 800 LINE",
"232 772 LINE",
"232 754 LINE"
);
}
);
};
layerId = "27799D80-F866-457E-9382-0097DC0AFC53";
paths = (
{
closed = 1;
nodes = (
"378 48 LINE",
"316 36 LINE",
"311 0 LINE",
"515 0 LINE",
"521 35 LINE",
"459 52 LINE",
"380 626 LINE",
"327 615 LINE",
"44 48 LINE",
"-28 35 LINE",
"-33 0 LINE",
"157 0 LINE",
"166 37 LINE",
"101 47 LINE",
"188 223 LINE",
"355 223 LINE"
);
},
{
closed = 1;
nodes = (
"320 489 LINE",
"349 266 LINE",
"209 266 LINE"
);
},
{
closed = 1;
nodes = (
"446 651 LINE",
"462 670 LINE",
"308 800 LINE",
"232 772 LINE",
"232 754 LINE"
);
}
);
width = 587;
},
{
background = {
paths = (
{
closed = 1;
nodes = (
"345 65 LINE",
"279 45 LINE",
"270 0 LINE",
"537 0 LINE",
"546 45 LINE",
"483 69 LINE",
"391 627 LINE",
"314 614 LINE",
"26 69 LINE",
"-43 44 LINE",
"-52 0 LINE",
"154 0 LINE",
"163 45 LINE",
"103 68 LINE",
"148 153 LINE",
"331 153 LINE"
);
},
{
closed = 1;
nodes = (
"457 669 LINE",
"303 800 LINE",
"206 766 LINE",
"202 743 LINE",
"434 634 LINE"
);
},
{
closed = 1;
nodes = (
"290 423 LINE",
"322 212 LINE",
"179 212 LINE"
);
}
);
};
layerId = "91FB354D-039B-406A-8F87-4ABC8510003D";
paths = (
{
closed = 1;
nodes = (
"345 65 LINE",
"279 45 LINE",
"270 0 LINE",
"537 0 LINE",
"546 45 LINE",
"483 69 LINE",
"391 627 LINE",
"314 614 LINE",
"26 69 LINE",
"-43 44 LINE",
"-52 0 LINE",
"154 0 LINE",
"163 45 LINE",
"103 68 LINE",
"148 153 LINE",
"331 153 LINE"
);
},
{
closed = 1;
nodes = (
"457 669 LINE",
"303 800 LINE",
"206 766 LINE",
"202 743 LINE",
"434 634 LINE"
);
},
{
closed = 1;
nodes = (
"290 423 LINE",
"322 212 LINE",
"179 212 LINE"
);
}
);
width = 560;
}
);
leftKerningGroup = A;
rightKerningGroup = A;
unicode = 00C0;
},
{
color = 11;
glyphname = Amacron;
lastChange = "2015-02-19 03:26:13 +0000";
layers = (
{
background = {
paths = (
{
closed = 1;
nodes = (
"378 48 LINE",
"316 36 LINE",
"311 0 LINE",
"515 0 LINE",
"521 35 LINE",
"459 52 LINE",
"380 626 LINE",
"327 615 LINE",
"44 48 LINE",
"-28 35 LINE",
"-33 0 LINE",
"157 0 LINE",
"166 37 LINE",
"101 47 LINE",
"188 223 LINE",
"355 223 LINE"
);
},
{
closed = 1;
nodes = (
"320 489 LINE",
"349 266 LINE",
"209 266 LINE"
);
},
{
closed = 1;
nodes = (
"245 689 LINE",
"482 689 LINE",
"490 743 LINE",
"253 743 LINE"
);
}
);
};
layerId = "27799D80-F866-457E-9382-0097DC0AFC53";
paths = (
{
closed = 1;
nodes = (
"378 48 LINE",
"316 36 LINE",
"311 0 LINE",
"515 0 LINE",
"521 35 LINE",
"459 52 LINE",
"380 626 LINE",
"327 615 LINE",
"44 48 LINE",
"-28 35 LINE",
"-33 0 LINE",
"157 0 LINE",
"166 37 LINE",
"101 47 LINE",
"188 223 LINE",
"355 223 LINE"
);
},
{
closed = 1;
nodes = (
"320 489 LINE",
"349 266 LINE",
"209 266 LINE"
);
},
{
closed = 1;
nodes = (
"245 689 LINE",
"482 689 LINE",
"490 743 LINE",
"253 743 LINE"
);
}
);
width = 587;
},
{
background = {
paths = (
{
closed = 1;
nodes = (
"345 65 LINE",
"279 45 LINE",
"270 0 LINE",
"537 0 LINE",
"546 45 LINE",
"483 69 LINE",
"391 627 LINE",
"314 614 LINE",
"26 69 LINE",
"-43 44 LINE",
"-52 0 LINE",
"154 0 LINE",
"163 45 LINE",
"103 68 LINE",
"148 153 LINE",
"331 153 LINE"
);
},
{
closed = 1;
nodes = (
"219 679 LINE",
"480 679 LINE",
"491 758 LINE",
"230 758 LINE"
);
},
{
closed = 1;
nodes = (
"290 423 LINE",
"322 212 LINE",
"179 212 LINE"
);
}
);
};
layerId = "91FB354D-039B-406A-8F87-4ABC8510003D";
paths = (
{
closed = 1;
nodes = (
"345 65 LINE",
"279 45 LINE",
"270 0 LINE",
"537 0 LINE",
"546 45 LINE",
"483 69 LINE",
"391 627 LINE",
"314 614 LINE",
"26 69 LINE",
"-43 44 LINE",
"-52 0 LINE",
"154 0 LINE",
"163 45 LINE",
"103 68 LINE",
"148 153 LINE",
"331 153 LINE"
);
},
{
closed = 1;
nodes = (
"219 679 LINE",
"480 679 LINE",
"491 758 LINE",
"230 758 LINE"
);
},
{
closed = 1;
nodes = (
"290 423 LINE",
"322 212 LINE",
"179 212 LINE"
);
}
);
width = 560;
}
);
leftKerningGroup = A;
rightKerningGroup = A;
unicode = 0100;
},
{
color = 11;
glyphname = Aogonek;
lastChange = "2015-02-19 03:26:13 +0000";
layers = (
{
background = {
paths = (
{
closed = 1;
nodes = (
"377 56 LINE SMOOTH",
"378 44 OFFCURVE",
"379 42 OFFCURVE",
"379 35 CURVE SMOOTH",
"379 4 OFFCURVE",
"238 -60 OFFCURVE",
"238 -165 CURVE SMOOTH",
"238 -203 OFFCURVE",
"261 -236 OFFCURVE",
"321 -236 CURVE SMOOTH",
"385 -236 OFFCURVE",
"422 -186 OFFCURVE",
"422 -186 CURVE",
"408 -170 LINE",
"390 -186 OFFCURVE",
"371 -192 OFFCURVE",
"355 -192 CURVE SMOOTH",
"325 -192 OFFCURVE",
"307 -176 OFFCURVE",
"307 -145 CURVE SMOOTH",
"307 -83 OFFCURVE",
"370 0 OFFCURVE",
"419 0 CURVE SMOOTH",
"519 0 LINE",
"525 35 LINE",
"463 50 LINE",
"396 624 LINE",
"338 611 LINE",
"44 48 LINE",
"-28 35 LINE",
"-33 0 LINE",
"157 0 LINE",
"166 37 LINE",
"101 47 LINE",
"195 227 LINE",
"358 227 LINE"
);
},
{
closed = 1;
nodes = (
"331 488 LINE",
"354 271 LINE",
"218 271 LINE"
);
}
);
};
layerId = "27799D80-F866-457E-9382-0097DC0AFC53";
paths = (
{
closed = 1;
nodes = (
"377 56 LINE SMOOTH",
"378 44 OFFCURVE",
"379 42 OFFCURVE",
"379 35 CURVE SMOOTH",
"379 4 OFFCURVE",
"238 -60 OFFCURVE",
"238 -165 CURVE SMOOTH",
"238 -203 OFFCURVE",
"261 -236 OFFCURVE",
"321 -236 CURVE SMOOTH",
"385 -236 OFFCURVE",
"422 -186 OFFCURVE",
"422 -186 CURVE",
"408 -170 LINE",
"390 -186 OFFCURVE",
"371 -192 OFFCURVE",
"355 -192 CURVE SMOOTH",
"325 -192 OFFCURVE",
"307 -176 OFFCURVE",
"307 -145 CURVE SMOOTH",
"307 -83 OFFCURVE",
"370 0 OFFCURVE",
"419 0 CURVE SMOOTH",
"519 0 LINE",
"525 35 LINE",
"463 50 LINE",
"396 624 LINE",
"338 611 LINE",
"44 48 LINE",
"-28 35 LINE",
"-33 0 LINE",
"157 0 LINE",
"166 37 LINE",
"101 47 LINE",
"195 227 LINE",
"358 227 LINE"
);
},
{
closed = 1;
nodes = (
"331 488 LINE",
"354 271 LINE",
"218 271 LINE"
);
}
);
width = 587;
},
{
background = {
paths = (
{
closed = 1;
nodes = (
"148 153 LINE",
"332 153 LINE",
"345 65 LINE",
"345 58 LINE SMOOTH",
"345 4 OFFCURVE",
"200 -49 OFFCURVE",
"200 -160 CURVE SMOOTH",
"200 -198 OFFCURVE",
"221 -236 OFFCURVE",
"292 -236 CURVE SMOOTH",
"368 -236 OFFCURVE",
"410 -174 OFFCURVE",
"410 -174 CURVE",
"390 -152 LINE",
"368 -166 OFFCURVE",
"348 -174 OFFCURVE",
"326 -174 CURVE SMOOTH",
"299 -174 OFFCURVE",
"288 -159 OFFCURVE",
"288 -128 CURVE SMOOTH",
"288 -81 OFFCURVE",
"340 0 OFFCURVE",
"400 0 CURVE SMOOTH",
"537 0 LINE",
"546 45 LINE",
"483 69 LINE",
"391 627 LINE",
"314 614 LINE",
"26 69 LINE",
"-43 44 LINE",
"-52 0 LINE",
"154 0 LINE",
"163 45 LINE",
"103 68 LINE"
);
},
{
closed = 1;
nodes = (
"322 212 LINE",
"179 212 LINE",
"290 423 LINE"
);
}
);
};
layerId = "91FB354D-039B-406A-8F87-4ABC8510003D";
paths = (
{
closed = 1;
nodes = (
"148 153 LINE",
"332 153 LINE",
"345 65 LINE",
"345 58 LINE SMOOTH",
"345 4 OFFCURVE",
"200 -49 OFFCURVE",
"200 -160 CURVE SMOOTH",
"200 -198 OFFCURVE",
"221 -236 OFFCURVE",
"292 -236 CURVE SMOOTH",
"368 -236 OFFCURVE",
"410 -174 OFFCURVE",
"410 -174 CURVE",
"390 -152 LINE",
"368 -166 OFFCURVE",
"348 -174 OFFCURVE",
"326 -174 CURVE SMOOTH",
"299 -174 OFFCURVE",
"288 -159 OFFCURVE",
"288 -128 CURVE SMOOTH",
"288 -81 OFFCURVE",
"340 0 OFFCURVE",
"400 0 CURVE SMOOTH",
"537 0 LINE",
"546 45 LINE",
"483 69 LINE",
"391 627 LINE",
"314 614 LINE",
"26 69 LINE",
"-43 44 LINE",
"-52 0 LINE",
"154 0 LINE",
"163 45 LINE",
"103 68 LINE"
);
},
{
closed = 1;
nodes = (
"322 212 LINE",
"179 212 LINE",
"290 423 LINE"
);
}
);
width = 560;
}
);
leftKerningGroup = A;
rightKerningGroup = A;
unicode = 0104;
},
{
color = 11;
glyphname = Aring;
lastChange = "2015-02-19 03:26:13 +0000";
layers = (
{
background = {
paths = (
{
closed = 1;
nodes = (
"378 48 LINE",
"316 36 LINE",
"311 0 LINE",
"515 0 LINE",
"521 35 LINE",
"459 52 LINE",
"380 626 LINE",
"327 615 LINE",
"44 48 LINE",
"-28 35 LINE",
"-33 0 LINE",
"157 0 LINE",
"166 37 LINE",
"101 47 LINE",
"188 223 LINE",
"355 223 LINE"
);
},
{
closed = 1;
nodes = (
"443 639 OFFCURVE",
"487 690 OFFCURVE",
"487 749 CURVE SMOOTH",
"487 790 OFFCURVE",
"460 820 OFFCURVE",
"403 820 CURVE SMOOTH",
"329 820 OFFCURVE",
"286 770 OFFCURVE",
"286 709 CURVE SMOOTH",
"286 669 OFFCURVE",
"313 639 OFFCURVE",
"371 639 CURVE SMOOTH"
);
},
{
closed = 1;
nodes = (
"320 489 LINE",
"349 266 LINE",
"209 266 LINE"
);
},
{
closed = 1;
nodes = (
"352 674 OFFCURVE",
"340 687 OFFCURVE",
"340 711 CURVE SMOOTH",
"340 747 OFFCURVE",
"354 785 OFFCURVE",
"397 785 CURVE SMOOTH",
"421 785 OFFCURVE",
"433 772 OFFCURVE",
"433 746 CURVE SMOOTH",
"433 712 OFFCURVE",
"420 674 OFFCURVE",
"377 674 CURVE SMOOTH"
);
}
);
};
layerId = "27799D80-F866-457E-9382-0097DC0AFC53";
paths = (
{
closed = 1;
nodes = (
"378 48 LINE",
"316 36 LINE",
"311 0 LINE",
"515 0 LINE",
"521 35 LINE",
"459 52 LINE",
"380 626 LINE",
"327 615 LINE",
"44 48 LINE",
"-28 35 LINE",
"-33 0 LINE",
"157 0 LINE",
"166 37 LINE",
"101 47 LINE",
"188 223 LINE",
"355 223 LINE"
);
},
{
closed = 1;
nodes = (
"443 639 OFFCURVE",
"487 690 OFFCURVE",
"487 749 CURVE SMOOTH",
"487 790 OFFCURVE",
"460 820 OFFCURVE",
"403 820 CURVE SMOOTH",
"329 820 OFFCURVE",
"286 770 OFFCURVE",
"286 709 CURVE SMOOTH",
"286 669 OFFCURVE",
"313 639 OFFCURVE",
"371 639 CURVE SMOOTH"
);
},
{
closed = 1;
nodes = (
"320 489 LINE",
"349 266 LINE",
"209 266 LINE"
);
},
{
closed = 1;
nodes = (
"352 674 OFFCURVE",
"340 687 OFFCURVE",
"340 711 CURVE SMOOTH",
"340 747 OFFCURVE",
"354 785 OFFCURVE",
"397 785 CURVE SMOOTH",
"421 785 OFFCURVE",
"433 772 OFFCURVE",
"433 746 CURVE SMOOTH",
"433 712 OFFCURVE",
"420 674 OFFCURVE",
"377 674 CURVE SMOOTH"
);
}
);
width = 587;
},
{
background = {
paths = (
{
closed = 1;
nodes = (
"345 65 LINE",
"279 45 LINE",
"270 0 LINE",
"537 0 LINE",
"546 45 LINE",
"483 69 LINE",
"391 627 LINE",
"314 614 LINE",
"26 69 LINE",
"-43 44 LINE",
"-52 0 LINE",
"154 0 LINE",
"163 45 LINE",
"103 68 LINE",
"148 153 LINE",
"331 153 LINE"
);
},
{
closed = 1;
nodes = (
"478 730 OFFCURVE",
"478 735 OFFCURVE",
"478 739 CURVE",
"477 783 OFFCURVE",
"451 819 OFFCURVE",
"385 819 CURVE SMOOTH",
"289 819 OFFCURVE",
"250 762 OFFCURVE",
"250 698 CURVE SMOOTH",
"250 653 OFFCURVE",
"286 627 OFFCURVE",
"347 627 CURVE SMOOTH",
"425 627 OFFCURVE",
"467 668 OFFCURVE",
"477 725 CURVE SMOOTH"
);
},
{
closed = 1;
nodes = (
"290 423 LINE",
"322 212 LINE",
"179 212 LINE"
);
},
{
closed = 1;
nodes = (
"394 771 OFFCURVE",
"405 757 OFFCURVE",
"405 740 CURVE SMOOTH",
"405 711 OFFCURVE",
"396 674 OFFCURVE",
"355 674 CURVE SMOOTH",
"326 674 OFFCURVE",
"323 688 OFFCURVE",
"323 706 CURVE SMOOTH",
"323 735 OFFCURVE",
"331 771 OFFCURVE",
"370 771 CURVE SMOOTH"
);
}
);
};
layerId = "91FB354D-039B-406A-8F87-4ABC8510003D";
paths = (
{
closed = 1;
nodes = (
"345 65 LINE",
"279 45 LINE",
"270 0 LINE",
"537 0 LINE",
"546 45 LINE",
"483 69 LINE",
"391 627 LINE",
"314 614 LINE",
"26 69 LINE",
"-43 44 LINE",
"-52 0 LINE",
"154 0 LINE",
"163 45 LINE",
"103 68 LINE",
"148 153 LINE",
"331 153 LINE"
);
},
{
closed = 1;
nodes = (
"478 730 OFFCURVE",
"478 735 OFFCURVE",
"478 739 CURVE",
"477 783 OFFCURVE",
"451 819 OFFCURVE",
"385 819 CURVE SMOOTH",
"289 819 OFFCURVE",
"250 762 OFFCURVE",
"250 698 CURVE SMOOTH",
"250 653 OFFCURVE",
"286 627 OFFCURVE",
"347 627 CURVE SMOOTH",
"425 627 OFFCURVE",
"467 668 OFFCURVE",
"477 725 CURVE SMOOTH"
);
},
{
closed = 1;
nodes = (
"290 423 LINE",
"322 212 LINE",
"179 212 LINE"
);
},
{
closed = 1;
nodes = (
"394 771 OFFCURVE",
"405 757 OFFCURVE",
"405 740 CURVE SMOOTH",
"405 711 OFFCURVE",
"396 674 OFFCURVE",
"355 674 CURVE SMOOTH",
"326 674 OFFCURVE",
"323 688 OFFCURVE",
"323 706 CURVE SMOOTH",
"323 735 OFFCURVE",
"331 771 OFFCURVE",
"370 771 CURVE SMOOTH"
);
}
);
width = 560;
}
);
leftKerningGroup = A;
rightKerningGroup = A;
unicode = 00C5;
},
{
color = 11;
glyphname = Atilde;
lastChange = "2015-02-19 03:26:13 +0000";
layers = (
{
background = {
paths = (
{
closed = 1;
nodes = (
"378 48 LINE",
"316 36 LINE",
"311 0 LINE",
"515 0 LINE",
"521 35 LINE",
"459 52 LINE",
"380 626 LINE",
"327 615 LINE",
"44 48 LINE",
"-28 35 LINE",
"-33 0 LINE",
"157 0 LINE",
"166 37 LINE",
"101 47 LINE",
"188 223 LINE",
"355 223 LINE"
);
},
{
closed = 1;
nodes = (
"499 777 LINE",
"499 777 OFFCURVE",
"479 742 OFFCURVE",
"456 742 CURVE SMOOTH",
"421 742 OFFCURVE",
"338 782 OFFCURVE",
"304 782 CURVE SMOOTH",
"271 782 OFFCURVE",
"249 738 OFFCURVE",
"228 686 CURVE",
"258 674 LINE",
"258 674 OFFCURVE",
"281 710 OFFCURVE",
"303 710 CURVE SMOOTH",
"336 710 OFFCURVE",
"421 670 OFFCURVE",
"455 670 CURVE SMOOTH",
"487 670 OFFCURVE",
"509 714 OFFCURVE",
"530 765 CURVE"
);
},
{
closed = 1;
nodes = (
"320 489 LINE",
"349 266 LINE",
"209 266 LINE"
);
}
);
};
layerId = "27799D80-F866-457E-9382-0097DC0AFC53";
paths = (
{
closed = 1;
nodes = (
"378 48 LINE",
"316 36 LINE",
"311 0 LINE",
"515 0 LINE",
"521 35 LINE",
"459 52 LINE",
"380 626 LINE",
"327 615 LINE",
"44 48 LINE",
"-28 35 LINE",
"-33 0 LINE",
"157 0 LINE",
"166 37 LINE",
"101 47 LINE",
"188 223 LINE",
"355 223 LINE"
);
},
{
closed = 1;
nodes = (
"499 777 LINE",
"499 777 OFFCURVE",
"479 742 OFFCURVE",
"456 742 CURVE SMOOTH",
"421 742 OFFCURVE",
"338 782 OFFCURVE",
"304 782 CURVE SMOOTH",
"271 782 OFFCURVE",
"249 738 OFFCURVE",
"228 686 CURVE",
"258 674 LINE",
"258 674 OFFCURVE",
"281 710 OFFCURVE",
"303 710 CURVE SMOOTH",
"336 710 OFFCURVE",
"421 670 OFFCURVE",
"455 670 CURVE SMOOTH",
"487 670 OFFCURVE",
"509 714 OFFCURVE",
"530 765 CURVE"
);
},
{
closed = 1;
nodes = (
"320 489 LINE",
"349 266 LINE",
"209 266 LINE"
);
}
);
width = 587;
},
{
background = {
paths = (
{
closed = 1;
nodes = (
"345 65 LINE",
"279 45 LINE",
"270 0 LINE",
"537 0 LINE",
"546 45 LINE",
"483 69 LINE",
"391 627 LINE",
"314 614 LINE",
"26 69 LINE",
"-43 44 LINE",
"-52 0 LINE",
"154 0 LINE",
"163 45 LINE",
"103 68 LINE",
"148 153 LINE",
"331 153 LINE"
);
},
{
closed = 1;
nodes = (
"493 777 LINE",
"493 777 OFFCURVE",
"476 746 OFFCURVE",
"451 746 CURVE SMOOTH",
"412 746 OFFCURVE",
"324 783 OFFCURVE",
"275 783 CURVE SMOOTH",
"242 783 OFFCURVE",
"208 737 OFFCURVE",
"188 679 CURVE",
"235 660 LINE",
"235 660 OFFCURVE",
"251 691 OFFCURVE",
"275 691 CURVE SMOOTH",
"313 691 OFFCURVE",
"402 654 OFFCURVE",
"451 654 CURVE SMOOTH",
"485 654 OFFCURVE",
"513 700 OFFCURVE",
"537 758 CURVE"
);
},
{
closed = 1;
nodes = (
"290 423 LINE",
"322 212 LINE",
"179 212 LINE"
);
}
);
};
layerId = "91FB354D-039B-406A-8F87-4ABC8510003D";
paths = (
{
closed = 1;
nodes = (
"345 65 LINE",
"279 45 LINE",
"270 0 LINE",
"537 0 LINE",
"546 45 LINE",
"483 69 LINE",
"391 627 LINE",
"314 614 LINE",
"26 69 LINE",
"-43 44 LINE",
"-52 0 LINE",
"154 0 LINE",
"163 45 LINE",
"103 68 LINE",
"148 153 LINE",
"331 153 LINE"
);
},
{
closed = 1;
nodes = (
"493 777 LINE",
"493 777 OFFCURVE",
"476 746 OFFCURVE",
"451 746 CURVE SMOOTH",
"412 746 OFFCURVE",
"324 783 OFFCURVE",
"275 783 CURVE SMOOTH",
"242 783 OFFCURVE",
"208 737 OFFCURVE",
"188 679 CURVE",
"235 660 LINE",
"235 660 OFFCURVE",
"251 691 OFFCURVE",
"275 691 CURVE SMOOTH",
"313 691 OFFCURVE",
"402 654 OFFCURVE",
"451 654 CURVE SMOOTH",
"485 654 OFFCURVE",
"513 700 OFFCURVE",
"537 758 CURVE"
);
},
{
closed = 1;
nodes = (
"290 423 LINE",
"322 212 LINE",
"179 212 LINE"
);
}
);
width = 560;
}
);
leftKerningGroup = A;
rightKerningGroup = A;
unicode = 00C3;
},
{
color = 11;
glyphname = AE;
lastChange = "2015-02-19 03:26:13 +0000";
layers = (
{
anchors = (
{
name = top;
position = "{433, 611}";
}
);
background = {
paths = (
{
closed = 1;
nodes = (
"450 559 LINE",
"618 559 LINE",
"618 479 LINE",
"656 479 LINE",
"681 611 LINE",
"292 611 LINE",
"286 578 LINE",
"346 564 LINE",
"-24 48 LINE",
"-96 35 LINE",
"-101 0 LINE",
"89 0 LINE",
"98 37 LINE",
"33 47 LINE",
"189 263 LINE",
"333 263 LINE",
"306 53 LINE",
"213 33 LINE",
"207 0 LINE",
"609 0 LINE",
"637 147 LINE",
"600 147 LINE",
"558 56 LINE",
"385 56 LINE",
"411 263 LINE",
"521 263 LINE",
"531 194 LINE",
"565 194 LINE",
"600 375 LINE",
"566 375 LINE",
"533 309 LINE",
"417 309 LINE"
);
},
{
closed = 1;
nodes = (
"222 309 LINE",
"364 505 LINE",
"339 309 LINE"
);
}
);
};
layerId = "27799D80-F866-457E-9382-0097DC0AFC53";
paths = (
{
closed = 1;
nodes = (
"450 559 LINE",
"618 559 LINE",
"618 479 LINE",
"656 479 LINE",
"681 611 LINE",
"292 611 LINE",
"286 578 LINE",
"346 564 LINE",
"-24 48 LINE",
"-96 35 LINE",
"-101 0 LINE",
"89 0 LINE",
"98 37 LINE",
"33 47 LINE",
"189 263 LINE",
"333 263 LINE",
"306 53 LINE",
"213 33 LINE",
"207 0 LINE",
"609 0 LINE",
"637 147 LINE",
"600 147 LINE",
"558 56 LINE",
"385 56 LINE",
"411 263 LINE",
"521 263 LINE",
"531 194 LINE",
"565 194 LINE",
"600 375 LINE",
"566 375 LINE",
"533 309 LINE",
"417 309 LINE"
);
},
{
closed = 1;
nodes = (
"222 309 LINE",
"364 505 LINE",
"339 309 LINE"
);
}
);
width = 723;
},
{
anchors = (
{
name = top;
position = "{403, 614}";
}
);
background = {
paths = (
{
closed = 1;
nodes = (
"449 546 LINE",
"584 546 LINE",
"589 468 LINE",
"642 468 LINE",
"670 614 LINE",
"242 614 LINE",
"233 569 LINE",
"289 552 LINE",
"-63 69 LINE",
"-132 44 LINE",
"-141 0 LINE",
"72 0 LINE",
"81 45 LINE",
"21 68 LINE",
"157 259 LINE",
"271 259 LINE",
"246 69 LINE",
"162 45 LINE",
"154 0 LINE",
"600 0 LINE",
"631 162 LINE",
"578 162 LINE",
"536 69 LINE",
"386 69 LINE",
"411 259 LINE",
"494 259 LINE",
"503 190 LINE",
"549 190 LINE",
"586 381 LINE",
"540 381 LINE",
"507 315 LINE",
"418 315 LINE"
);
},
{
closed = 1;
nodes = (
"197 315 LINE",
"297 454 LINE",
"278 315 LINE"
);
}
);
};
layerId = "91FB354D-039B-406A-8F87-4ABC8510003D";
paths = (
{
closed = 1;
nodes = (
"449 546 LINE",
"584 546 LINE",
"589 468 LINE",
"642 468 LINE",
"670 614 LINE",
"242 614 LINE",
"233 569 LINE",
"289 552 LINE",
"-63 69 LINE",
"-132 44 LINE",
"-141 0 LINE",
"72 0 LINE",
"81 45 LINE",
"21 68 LINE",
"157 259 LINE",
"271 259 LINE",
"246 69 LINE",
"162 45 LINE",
"154 0 LINE",
"600 0 LINE",
"631 162 LINE",
"578 162 LINE",
"536 69 LINE",
"386 69 LINE",
"411 259 LINE",
"494 259 LINE",
"503 190 LINE",
"549 190 LINE",
"586 381 LINE",
"540 381 LINE",
"507 315 LINE",
"418 315 LINE"
);
},
{
closed = 1;
nodes = (
"197 315 LINE",
"297 454 LINE",
"278 315 LINE"
);
}
);
width = 662;
}
);
unicode = 00C6;
},
{
color = 11;
glyphname = B;
lastChange = "2015-02-19 03:26:13 +0000";
layers = (
{
anchors = (
{
name = bottom;
position = "{217, 0}";
},
{
name = top;
position = "{336, 611}";
}
);
background = {
paths = (
{
closed = 1;
nodes = (
"427 340 OFFCURVE",
"495 400 OFFCURVE",
"495 496 CURVE SMOOTH",
"495 562 OFFCURVE",
"444 611 OFFCURVE",
"326 611 CURVE SMOOTH",
"102 611 LINE",
"96 578 LINE",
"175 558 LINE",
"77 53 LINE",
"-10 33 LINE",
"-16 0 LINE",
"214 0 LINE SMOOTH",
"356 0 OFFCURVE",
"459 85 OFFCURVE",
"459 194 CURVE SMOOTH",
"459 262 OFFCURVE",
"420 304 OFFCURVE",
"339 323 CURVE"
);
},
{
closed = 1;
nodes = (
"211 337 LINE",
"254 561 LINE",
"275 566 OFFCURVE",
"291 568 OFFCURVE",
"315 568 CURVE SMOOTH",
"374 568 OFFCURVE",
"411 542 OFFCURVE",
"411 485 CURVE SMOOTH",
"411 386 OFFCURVE",
"339 337 OFFCURVE",
"256 337 CURVE SMOOTH"
);
},
{
closed = 1;
nodes = (
"203 299 LINE",
"242 299 LINE SMOOTH",
"327 299 OFFCURVE",
"373 265 OFFCURVE",
"373 201 CURVE SMOOTH",
"373 84 OFFCURVE",
"282 41 OFFCURVE",
"210 41 CURVE SMOOTH",
"192 41 OFFCURVE",
"172 43 OFFCURVE",
"154 49 CURVE"
);
}
);
};
layerId = "27799D80-F866-457E-9382-0097DC0AFC53";
paths = (
{
closed = 1;
nodes = (
"427 340 OFFCURVE",
"495 400 OFFCURVE",
"495 496 CURVE SMOOTH",
"495 562 OFFCURVE",
"444 611 OFFCURVE",
"326 611 CURVE SMOOTH",
"102 611 LINE",
"96 578 LINE",
"175 558 LINE",
"77 53 LINE",
"-10 33 LINE",
"-16 0 LINE",
"214 0 LINE SMOOTH",
"356 0 OFFCURVE",
"459 85 OFFCURVE",
"459 194 CURVE SMOOTH",
"459 262 OFFCURVE",
"420 304 OFFCURVE",
"339 323 CURVE"
);
},
{
closed = 1;
nodes = (
"211 337 LINE",
"254 561 LINE",
"275 566 OFFCURVE",
"291 568 OFFCURVE",
"315 568 CURVE SMOOTH",
"374 568 OFFCURVE",
"411 542 OFFCURVE",
"411 485 CURVE SMOOTH",
"411 386 OFFCURVE",
"339 337 OFFCURVE",
"256 337 CURVE SMOOTH"
);
},
{
closed = 1;
nodes = (
"203 299 LINE",
"242 299 LINE SMOOTH",
"327 299 OFFCURVE",
"373 265 OFFCURVE",
"373 201 CURVE SMOOTH",
"373 84 OFFCURVE",
"282 41 OFFCURVE",
"210 41 CURVE SMOOTH",
"192 41 OFFCURVE",
"172 43 OFFCURVE",
"154 49 CURVE"
);
}
);
width = 530;
},
{
anchors = (
{
name = bottom;
position = "{234, 0}";
},
{
name = top;
position = "{354, 614}";
}
);
background = {
paths = (
{
closed = 1;
nodes = (
"479 340 OFFCURVE",
"555 402 OFFCURVE",
"555 498 CURVE SMOOTH",
"555 568 OFFCURVE",
"501 614 OFFCURVE",
"371 614 CURVE SMOOTH",
"105 614 LINE",
"96 569 LINE",
"172 546 LINE",
"79 69 LINE",
"-5 45 LINE",
"-13 0 LINE",
"240 0 LINE SMOOTH",
"411 0 OFFCURVE",
"513 84 OFFCURVE",
"513 203 CURVE SMOOTH",
"513 266 OFFCURVE",
"474 310 OFFCURVE",
"389 324 CURVE"
);
},
{
closed = 1;
nodes = (
"268 343 LINE",
"309 549 LINE",
"309 549 OFFCURVE",
"328 553 OFFCURVE",
"350 553 CURVE SMOOTH",
"393 553 OFFCURVE",
"417 534 OFFCURVE",
"417 490 CURVE SMOOTH",
"417 370 OFFCURVE",
"338 343 OFFCURVE",
"295 343 CURVE SMOOTH"
);
},
{
closed = 1;
nodes = (
"258 289 LINE",
"283 289 LINE SMOOTH",
"334 289 OFFCURVE",
"374 262 OFFCURVE",
"374 203 CURVE SMOOTH",
"374 106 OFFCURVE",
"322 61 OFFCURVE",
"260 61 CURVE SMOOTH",
"244 61 OFFCURVE",
"226 65 OFFCURVE",
"215 69 CURVE"
);
}
);
};
layerId = "91FB354D-039B-406A-8F87-4ABC8510003D";
paths = (
{
closed = 1;
nodes = (
"479 340 OFFCURVE",
"555 402 OFFCURVE",
"555 498 CURVE SMOOTH",
"555 568 OFFCURVE",
"501 614 OFFCURVE",
"371 614 CURVE SMOOTH",
"105 614 LINE",
"96 569 LINE",
"172 546 LINE",
"79 69 LINE",
"-5 45 LINE",
"-13 0 LINE",
"240 0 LINE SMOOTH",
"411 0 OFFCURVE",
"513 84 OFFCURVE",
"513 203 CURVE SMOOTH",
"513 266 OFFCURVE",
"474 310 OFFCURVE",
"389 324 CURVE"
);
},
{
closed = 1;
nodes = (
"268 343 LINE",
"309 549 LINE",
"309 549 OFFCURVE",
"328 553 OFFCURVE",
"350 553 CURVE SMOOTH",
"393 553 OFFCURVE",
"417 534 OFFCURVE",
"417 490 CURVE SMOOTH",
"417 370 OFFCURVE",
"338 343 OFFCURVE",
"295 343 CURVE SMOOTH"
);
},
{
closed = 1;
nodes = (
"258 289 LINE",
"283 289 LINE SMOOTH",
"334 289 OFFCURVE",
"374 262 OFFCURVE",
"374 203 CURVE SMOOTH",
"374 106 OFFCURVE",
"322 61 OFFCURVE",
"260 61 CURVE SMOOTH",
"244 61 OFFCURVE",
"226 65 OFFCURVE",
"215 69 CURVE"
);
}
);
width = 564;
}
);
unicode = 0042;
},
{
color = 11;
glyphname = C;
lastChange = "2015-02-21 01:09:29 +0000";
layers = (
{
anchors = (
{
name = bottom;
position = "{211, 0}";
},
{
name = top;
position = "{380, 611}";
}
);
background = {
paths = (
{
closed = 1;
nodes = (
"443 138 LINE",
"409 138 LINE",
"369 54 LINE",
"333 43 OFFCURVE",
"302 39 OFFCURVE",
"277 39 CURVE SMOOTH",
"163 39 OFFCURVE",
"125 110 OFFCURVE",
"125 217 CURVE SMOOTH",
"125 388 OFFCURVE",
"203 578 OFFCURVE",
"376 578 CURVE SMOOTH",
"421 578 OFFCURVE",
"448 574 OFFCURVE",
"474 566 CURVE",
"474 469 LINE",
"507 469 LINE",
"542 599 LINE",
"505 614 OFFCURVE",
"458 626 OFFCURVE",
"379 626 CURVE SMOOTH",
"167 626 OFFCURVE",
"35 430 OFFCURVE",
"35 211 CURVE SMOOTH",
"35 83 OFFCURVE",
"98 -9 OFFCURVE",
"255 -9 CURVE SMOOTH",
"326 -9 OFFCURVE",
"375 3 OFFCURVE",
"429 23 CURVE"
);
}
);
};
layerId = "27799D80-F866-457E-9382-0097DC0AFC53";
paths = (
{
closed = 1;
nodes = (
"443 138 LINE",
"409 138 LINE",
"369 54 LINE",
"333 43 OFFCURVE",
"302 39 OFFCURVE",
"277 39 CURVE SMOOTH",
"163 39 OFFCURVE",
"125 110 OFFCURVE",
"125 217 CURVE SMOOTH",
"125 388 OFFCURVE",
"203 578 OFFCURVE",
"376 578 CURVE SMOOTH",
"421 578 OFFCURVE",
"448 574 OFFCURVE",
"474 566 CURVE",
"474 469 LINE",
"507 469 LINE",
"542 599 LINE",
"505 614 OFFCURVE",
"458 626 OFFCURVE",
"379 626 CURVE SMOOTH",
"167 626 OFFCURVE",
"35 430 OFFCURVE",
"35 211 CURVE SMOOTH",
"35 83 OFFCURVE",
"98 -9 OFFCURVE",
"255 -9 CURVE SMOOTH",
"326 -9 OFFCURVE",
"375 3 OFFCURVE",
"429 23 CURVE"
);
}
);
width = 517;
},
{
anchors = (
{
name = bottom;
position = "{214, 0}";
},
{
name = top;
position = "{384, 614}";
}
);
background = {
paths = (
{
closed = 1;
nodes = (
"474 157 LINE",
"418 157 LINE",
"381 70 LINE",
"350 61 OFFCURVE",
"326 59 OFFCURVE",
"300 59 CURVE SMOOTH",
"215 59 OFFCURVE",
"184 102 OFFCURVE",
"184 208 CURVE SMOOTH",
"184 368 OFFCURVE",
"228 560 OFFCURVE",
"380 560 CURVE SMOOTH",
"415 560 OFFCURVE",
"441 556 OFFCURVE",
"467 548 CURVE",
"471 446 LINE",
"525 446 LINE",
"565 603 LINE",
"522 617 OFFCURVE",
"466 628 OFFCURVE",
"393 628 CURVE SMOOTH",
"151 628 OFFCURVE",
"36 426 OFFCURVE",
"36 216 CURVE SMOOTH",
"36 68 OFFCURVE",
"100 -10 OFFCURVE",
"268 -10 CURVE SMOOTH",
"342 -10 OFFCURVE",
"394 1 OFFCURVE",
"452 21 CURVE"
);
}
);
};
layerId = "91FB354D-039B-406A-8F87-4ABC8510003D";
paths = (
{
closed = 1;
nodes = (
"474 157 LINE",
"418 157 LINE",
"381 70 LINE",
"350 61 OFFCURVE",
"326 59 OFFCURVE",
"300 59 CURVE SMOOTH",
"215 59 OFFCURVE",
"184 102 OFFCURVE",
"184 208 CURVE SMOOTH",
"184 368 OFFCURVE",
"228 560 OFFCURVE",
"380 560 CURVE SMOOTH",
"415 560 OFFCURVE",
"441 556 OFFCURVE",
"467 548 CURVE",
"471 446 LINE",
"525 446 LINE",
"565 603 LINE",
"522 617 OFFCURVE",
"466 628 OFFCURVE",
"393 628 CURVE SMOOTH",
"151 628 OFFCURVE",
"36 426 OFFCURVE",
"36 216 CURVE SMOOTH",
"36 68 OFFCURVE",
"100 -10 OFFCURVE",
"268 -10 CURVE SMOOTH",
"342 -10 OFFCURVE",
"394 1 OFFCURVE",
"452 21 CURVE"
);
}
);
width = 523;
}
);
leftKerningGroup = O;
rightKerningGroup = C;
unicode = 0043;
},
{
color = 11;
glyphname = Cacute;
lastChange = "2015-02-19 03:26:13 +0000";
layers = (
{
background = {
paths = (
{
closed = 1;
nodes = (
"430 138 LINE",
"396 138 LINE",
"356 54 LINE",
"320 43 OFFCURVE",
"289 39 OFFCURVE",
"264 39 CURVE SMOOTH",
"150 39 OFFCURVE",
"112 110 OFFCURVE",
"112 217 CURVE SMOOTH",
"112 388 OFFCURVE",
"190 578 OFFCURVE",
"363 578 CURVE SMOOTH",
"408 578 OFFCURVE",
"435 574 OFFCURVE",
"461 566 CURVE",
"461 469 LINE",
"494 469 LINE",
"529 599 LINE",
"492 614 OFFCURVE",
"445 626 OFFCURVE",
"366 626 CURVE SMOOTH",
"154 626 OFFCURVE",
"22 430 OFFCURVE",
"22 211 CURVE SMOOTH",
"22 83 OFFCURVE",
"85 -9 OFFCURVE",
"242 -9 CURVE SMOOTH",
"313 -9 OFFCURVE",
"362 3 OFFCURVE",
"416 23 CURVE"
);
},
{
closed = 1;
nodes = (
"513 754 LINE",
"513 772 LINE",
"437 800 LINE",
"283 670 LINE",
"299 651 LINE"
);
}
);
};
layerId = "27799D80-F866-457E-9382-0097DC0AFC53";
paths = (
{
closed = 1;
nodes = (
"430 138 LINE",
"396 138 LINE",
"356 54 LINE",
"320 43 OFFCURVE",
"289 39 OFFCURVE",
"264 39 CURVE SMOOTH",
"150 39 OFFCURVE",
"112 110 OFFCURVE",
"112 217 CURVE SMOOTH",
"112 388 OFFCURVE",
"190 578 OFFCURVE",
"363 578 CURVE SMOOTH",
"408 578 OFFCURVE",
"435 574 OFFCURVE",
"461 566 CURVE",
"461 469 LINE",
"494 469 LINE",
"529 599 LINE",
"492 614 OFFCURVE",
"445 626 OFFCURVE",
"366 626 CURVE SMOOTH",
"154 626 OFFCURVE",
"22 430 OFFCURVE",
"22 211 CURVE SMOOTH",
"22 83 OFFCURVE",
"85 -9 OFFCURVE",
"242 -9 CURVE SMOOTH",
"313 -9 OFFCURVE",
"362 3 OFFCURVE",
"416 23 CURVE"
);
},
{
closed = 1;
nodes = (
"513 754 LINE",
"513 772 LINE",
"437 800 LINE",
"283 670 LINE",
"299 651 LINE"
);
}
);
width = 521;
},
{
background = {
paths = (
{
closed = 1;
nodes = (
"474 157 LINE",
"418 157 LINE",
"381 70 LINE",
"350 61 OFFCURVE",
"326 59 OFFCURVE",
"300 59 CURVE SMOOTH",
"215 59 OFFCURVE",
"184 102 OFFCURVE",
"184 208 CURVE SMOOTH",
"184 368 OFFCURVE",
"228 560 OFFCURVE",
"380 560 CURVE SMOOTH",
"415 560 OFFCURVE",
"441 556 OFFCURVE",
"467 548 CURVE",
"471 446 LINE",
"525 446 LINE",
"565 603 LINE",
"522 617 OFFCURVE",
"466 628 OFFCURVE",
"393 628 CURVE SMOOTH",
"151 628 OFFCURVE",
"36 426 OFFCURVE",
"36 216 CURVE SMOOTH",
"36 68 OFFCURVE",
"100 -10 OFFCURVE",
"268 -10 CURVE SMOOTH",
"342 -10 OFFCURVE",
"394 1 OFFCURVE",
"452 21 CURVE"
);
},
{
closed = 1;
nodes = (
"529 743 LINE",
"529 766 LINE",
"430 800 LINE",
"274 669 LINE",
"301 634 LINE"
);
}
);
};
layerId = "91FB354D-039B-406A-8F87-4ABC8510003D";
paths = (
{
closed = 1;
nodes = (
"474 157 LINE",
"418 157 LINE",
"381 70 LINE",
"350 61 OFFCURVE",
"326 59 OFFCURVE",
"300 59 CURVE SMOOTH",
"215 59 OFFCURVE",
"184 102 OFFCURVE",
"184 208 CURVE SMOOTH",
"184 368 OFFCURVE",
"228 560 OFFCURVE",
"380 560 CURVE SMOOTH",
"415 560 OFFCURVE",
"441 556 OFFCURVE",
"467 548 CURVE",
"471 446 LINE",
"525 446 LINE",
"565 603 LINE",
"522 617 OFFCURVE",
"466 628 OFFCURVE",
"393 628 CURVE SMOOTH",
"151 628 OFFCURVE",
"36 426 OFFCURVE",
"36 216 CURVE SMOOTH",
"36 68 OFFCURVE",
"100 -10 OFFCURVE",
"268 -10 CURVE SMOOTH",
"342 -10 OFFCURVE",
"394 1 OFFCURVE",
"452 21 CURVE"
);
},
{
closed = 1;
nodes = (
"529 743 LINE",
"529 766 LINE",
"430 800 LINE",
"274 669 LINE",
"301 634 LINE"
);
}
);
width = 523;
}
);
leftKerningGroup = O;
rightKerningGroup = C;
unicode = 0106;
},
{
color = 11;
glyphname = Ccaron;
lastChange = "2015-02-19 03:26:13 +0000";
layers = (
{
background = {
paths = (
{
closed = 1;
nodes = (
"430 138 LINE",
"396 138 LINE",
"356 54 LINE",
"320 43 OFFCURVE",
"289 39 OFFCURVE",
"264 39 CURVE SMOOTH",
"150 39 OFFCURVE",
"112 110 OFFCURVE",
"112 217 CURVE SMOOTH",
"112 388 OFFCURVE",
"190 578 OFFCURVE",
"363 578 CURVE SMOOTH",
"408 578 OFFCURVE",
"435 574 OFFCURVE",
"461 566 CURVE",
"461 469 LINE",
"494 469 LINE",
"529 599 LINE",
"492 614 OFFCURVE",
"445 626 OFFCURVE",
"366 626 CURVE SMOOTH",
"154 626 OFFCURVE",
"22 430 OFFCURVE",
"22 211 CURVE SMOOTH",
"22 83 OFFCURVE",
"85 -9 OFFCURVE",
"242 -9 CURVE SMOOTH",
"313 -9 OFFCURVE",
"362 3 OFFCURVE",
"416 23 CURVE"
);
},
{
closed = 1;
nodes = (
"243 786 LINE",
"332 651 LINE",
"392 651 LINE",
"522 786 LINE",
"502 805 LINE",
"372 722 LINE",
"270 804 LINE"
);
}
);
};
layerId = "27799D80-F866-457E-9382-0097DC0AFC53";
paths = (
{
closed = 1;
nodes = (
"430 138 LINE",
"396 138 LINE",
"356 54 LINE",
"320 43 OFFCURVE",
"289 39 OFFCURVE",
"264 39 CURVE SMOOTH",
"150 39 OFFCURVE",
"112 110 OFFCURVE",
"112 217 CURVE SMOOTH",
"112 388 OFFCURVE",
"190 578 OFFCURVE",
"363 578 CURVE SMOOTH",
"408 578 OFFCURVE",
"435 574 OFFCURVE",
"461 566 CURVE",
"461 469 LINE",
"494 469 LINE",
"529 599 LINE",
"492 614 OFFCURVE",
"445 626 OFFCURVE",
"366 626 CURVE SMOOTH",
"154 626 OFFCURVE",
"22 430 OFFCURVE",
"22 211 CURVE SMOOTH",
"22 83 OFFCURVE",
"85 -9 OFFCURVE",
"242 -9 CURVE SMOOTH",
"313 -9 OFFCURVE",
"362 3 OFFCURVE",
"416 23 CURVE"
);
},
{
closed = 1;
nodes = (
"243 786 LINE",
"332 651 LINE",
"392 651 LINE",
"522 786 LINE",
"502 805 LINE",
"372 722 LINE",
"270 804 LINE"
);
}
);
width = 521;
},
{
background = {
paths = (
{
closed = 1;
nodes = (
"474 157 LINE",
"418 157 LINE",
"381 70 LINE",
"350 61 OFFCURVE",
"326 59 OFFCURVE",
"300 59 CURVE SMOOTH",
"215 59 OFFCURVE",
"184 102 OFFCURVE",
"184 208 CURVE SMOOTH",
"184 368 OFFCURVE",
"228 560 OFFCURVE",
"380 560 CURVE SMOOTH",
"415 560 OFFCURVE",
"441 556 OFFCURVE",
"467 548 CURVE",
"471 446 LINE",
"525 446 LINE",
"565 603 LINE",
"522 617 OFFCURVE",
"466 628 OFFCURVE",
"393 628 CURVE SMOOTH",
"151 628 OFFCURVE",
"36 426 OFFCURVE",
"36 216 CURVE SMOOTH",
"36 68 OFFCURVE",
"100 -10 OFFCURVE",
"268 -10 CURVE SMOOTH",
"342 -10 OFFCURVE",
"394 1 OFFCURVE",
"452 21 CURVE"
);
},
{
closed = 1;
nodes = (
"260 769 LINE",
"342 639 LINE",
"427 639 LINE",
"555 765 LINE",
"532 795 LINE",
"398 727 LINE",
"290 795 LINE"
);
}
);
};
layerId = "91FB354D-039B-406A-8F87-4ABC8510003D";
paths = (
{
closed = 1;
nodes = (
"474 157 LINE",
"418 157 LINE",
"381 70 LINE",
"350 61 OFFCURVE",
"326 59 OFFCURVE",
"300 59 CURVE SMOOTH",
"215 59 OFFCURVE",
"184 102 OFFCURVE",
"184 208 CURVE SMOOTH",
"184 368 OFFCURVE",
"228 560 OFFCURVE",
"380 560 CURVE SMOOTH",
"415 560 OFFCURVE",
"441 556 OFFCURVE",
"467 548 CURVE",
"471 446 LINE",
"525 446 LINE",
"565 603 LINE",
"522 617 OFFCURVE",
"466 628 OFFCURVE",
"393 628 CURVE SMOOTH",
"151 628 OFFCURVE",
"36 426 OFFCURVE",
"36 216 CURVE SMOOTH",
"36 68 OFFCURVE",
"100 -10 OFFCURVE",
"268 -10 CURVE SMOOTH",
"342 -10 OFFCURVE",
"394 1 OFFCURVE",
"452 21 CURVE"
);
},
{
closed = 1;
nodes = (
"260 769 LINE",
"342 639 LINE",
"427 639 LINE",
"555 765 LINE",
"532 795 LINE",
"398 727 LINE",
"290 795 LINE"
);
}
);
width = 523;
}
);
leftKerningGroup = O;
rightKerningGroup = C;
unicode = 010C;
},
{
color = 11;
glyphname = Ccedilla;
lastChange = "2015-02-19 03:26:13 +0000";
layers = (
{
background = {
paths = (
{
closed = 1;
nodes = (
"430 138 LINE",
"396 138 LINE",
"356 54 LINE",
"320 43 OFFCURVE",
"289 39 OFFCURVE",
"264 39 CURVE SMOOTH",
"150 39 OFFCURVE",
"112 110 OFFCURVE",
"112 217 CURVE SMOOTH",
"112 388 OFFCURVE",
"190 578 OFFCURVE",
"363 578 CURVE SMOOTH",
"408 578 OFFCURVE",
"435 574 OFFCURVE",
"461 566 CURVE",
"461 469 LINE",
"494 469 LINE",
"529 599 LINE",
"492 614 OFFCURVE",
"445 626 OFFCURVE",
"366 626 CURVE SMOOTH",
"154 626 OFFCURVE",
"22 430 OFFCURVE",
"22 211 CURVE SMOOTH",
"22 90 OFFCURVE",
"78 1 OFFCURVE",
"216 -8 CURVE",
"186 -66 LINE",
"187 -75 LINE",
"240 -75 OFFCURVE",
"255 -96 OFFCURVE",
"255 -118 CURVE SMOOTH",
"255 -158 OFFCURVE",
"216 -191 OFFCURVE",
"166 -191 CURVE SMOOTH",
"154 -191 OFFCURVE",
"141 -190 OFFCURVE",
"128 -185 CURVE",
"114 -212 LINE",
"130 -217 OFFCURVE",
"147 -219 OFFCURVE",
"169 -219 CURVE SMOOTH",
"245 -219 OFFCURVE",
"320 -167 OFFCURVE",
"320 -103 CURVE SMOOTH",
"320 -70 OFFCURVE",
"293 -44 OFFCURVE",
"228 -44 CURVE",
"247 -9 LINE",
"315 -8 OFFCURVE",
"363 3 OFFCURVE",
"416 23 CURVE"
);
}
);
};
layerId = "27799D80-F866-457E-9382-0097DC0AFC53";
paths = (
{
closed = 1;
nodes = (
"430 138 LINE",
"396 138 LINE",
"356 54 LINE",
"320 43 OFFCURVE",
"289 39 OFFCURVE",
"264 39 CURVE SMOOTH",
"150 39 OFFCURVE",
"112 110 OFFCURVE",
"112 217 CURVE SMOOTH",
"112 388 OFFCURVE",
"190 578 OFFCURVE",
"363 578 CURVE SMOOTH",
"408 578 OFFCURVE",
"435 574 OFFCURVE",
"461 566 CURVE",
"461 469 LINE",
"494 469 LINE",
"529 599 LINE",
"492 614 OFFCURVE",
"445 626 OFFCURVE",
"366 626 CURVE SMOOTH",
"154 626 OFFCURVE",
"22 430 OFFCURVE",
"22 211 CURVE SMOOTH",
"22 90 OFFCURVE",
"78 1 OFFCURVE",
"216 -8 CURVE",
"186 -66 LINE",
"187 -75 LINE",
"240 -75 OFFCURVE",
"255 -96 OFFCURVE",
"255 -118 CURVE SMOOTH",
"255 -158 OFFCURVE",
"216 -191 OFFCURVE",
"166 -191 CURVE SMOOTH",
"154 -191 OFFCURVE",
"141 -190 OFFCURVE",
"128 -185 CURVE",
"114 -212 LINE",
"130 -217 OFFCURVE",
"147 -219 OFFCURVE",
"169 -219 CURVE SMOOTH",
"245 -219 OFFCURVE",
"320 -167 OFFCURVE",
"320 -103 CURVE SMOOTH",
"320 -70 OFFCURVE",
"293 -44 OFFCURVE",
"228 -44 CURVE",
"247 -9 LINE",
"315 -8 OFFCURVE",
"363 3 OFFCURVE",
"416 23 CURVE"
);
}
);
width = 521;
},
{
background = {
paths = (
{
closed = 1;
nodes = (
"474 157 LINE",
"418 157 LINE",
"381 70 LINE",
"350 61 OFFCURVE",
"326 59 OFFCURVE",
"300 59 CURVE SMOOTH",
"215 59 OFFCURVE",
"184 102 OFFCURVE",
"184 208 CURVE SMOOTH",
"184 368 OFFCURVE",
"228 560 OFFCURVE",
"380 560 CURVE SMOOTH",
"415 560 OFFCURVE",
"441 556 OFFCURVE",
"467 548 CURVE",
"471 446 LINE",
"525 446 LINE",
"565 603 LINE",
"522 617 OFFCURVE",
"466 628 OFFCURVE",
"393 628 CURVE SMOOTH",
"151 628 OFFCURVE",
"36 426 OFFCURVE",
"36 216 CURVE SMOOTH",
"36 80 OFFCURVE",
"89 4 OFFCURVE",
"227 -8 CURVE",
"192 -73 LINE",
"196 -92 LINE",
"233 -93 OFFCURVE",
"245 -108 OFFCURVE",
"245 -125 CURVE SMOOTH",
"245 -158 OFFCURVE",
"211 -176 OFFCURVE",
"186 -176 CURVE SMOOTH",
"169 -176 OFFCURVE",
"160 -174 OFFCURVE",
"152 -169 CURVE",
"136 -204 LINE",
"152 -212 OFFCURVE",
"170 -220 OFFCURVE",
"213 -220 CURVE SMOOTH",
"264 -220 OFFCURVE",
"344 -182 OFFCURVE",
"344 -107 CURVE SMOOTH",
"344 -72 OFFCURVE",
"317 -46 OFFCURVE",
"256 -46 CURVE",
"273 -10 LINE",
"344 -9 OFFCURVE",
"395 1 OFFCURVE",
"452 21 CURVE"
);
}
);
};
layerId = "91FB354D-039B-406A-8F87-4ABC8510003D";
paths = (
{
closed = 1;
nodes = (
"474 157 LINE",
"418 157 LINE",
"381 70 LINE",
"350 61 OFFCURVE",
"326 59 OFFCURVE",
"300 59 CURVE SMOOTH",
"215 59 OFFCURVE",
"184 102 OFFCURVE",
"184 208 CURVE SMOOTH",
"184 368 OFFCURVE",
"228 560 OFFCURVE",
"380 560 CURVE SMOOTH",
"415 560 OFFCURVE",
"441 556 OFFCURVE",
"467 548 CURVE",
"471 446 LINE",
"525 446 LINE",
"565 603 LINE",
"522 617 OFFCURVE",
"466 628 OFFCURVE",
"393 628 CURVE SMOOTH",
"151 628 OFFCURVE",
"36 426 OFFCURVE",
"36 216 CURVE SMOOTH",
"36 80 OFFCURVE",
"89 4 OFFCURVE",
"227 -8 CURVE",
"192 -73 LINE",
"196 -92 LINE",
"233 -93 OFFCURVE",
"245 -108 OFFCURVE",
"245 -125 CURVE SMOOTH",
"245 -158 OFFCURVE",
"211 -176 OFFCURVE",
"186 -176 CURVE SMOOTH",
"169 -176 OFFCURVE",
"160 -174 OFFCURVE",
"152 -169 CURVE",
"136 -204 LINE",
"152 -212 OFFCURVE",
"170 -220 OFFCURVE",
"213 -220 CURVE SMOOTH",
"264 -220 OFFCURVE",
"344 -182 OFFCURVE",
"344 -107 CURVE SMOOTH",
"344 -72 OFFCURVE",
"317 -46 OFFCURVE",
"256 -46 CURVE",
"273 -10 LINE",
"344 -9 OFFCURVE",
"395 1 OFFCURVE",
"452 21 CURVE"
);
}
);
width = 523;
}
);
leftKerningGroup = O;
rightKerningGroup = C;
unicode = 00C7;
},
{
color = 11;
glyphname = D;
lastChange = "2015-02-19 03:26:13 +0000";
layers = (
{
anchors = (
{
name = bottom;
position = "{263, 0}";
},
{
name = center;
position = "{347, 306}";
},
{
name = top;
position = "{382, 611}";
}
);
background = {
paths = (
{
closed = 1;
nodes = (
"107 611 LINE",
"101 578 LINE",
"181 558 LINE",
"83 53 LINE",
"-5 33 LINE",
"-11 0 LINE",
"251 0 LINE SMOOTH",
"469 0 OFFCURVE",
"587 204 OFFCURVE",
"587 402 CURVE SMOOTH",
"587 531 OFFCURVE",
"517 611 OFFCURVE",
"359 611 CURVE SMOOTH"
);
},
{
closed = 1;
nodes = (
"451 564 OFFCURVE",
"499 506 OFFCURVE",
"499 401 CURVE SMOOTH",
"499 255 OFFCURVE",
"436 41 OFFCURVE",
"253 41 CURVE SMOOTH",
"220 41 OFFCURVE",
"184 49 OFFCURVE",
"162 58 CURVE",
"259 558 LINE",
"276 561 OFFCURVE",
"305 564 OFFCURVE",
"344 564 CURVE SMOOTH"
);
}
);
};
layerId = "27799D80-F866-457E-9382-0097DC0AFC53";
paths = (
{
closed = 1;
nodes = (
"107 611 LINE",
"101 578 LINE",
"181 558 LINE",
"83 53 LINE",
"-5 33 LINE",
"-11 0 LINE",
"251 0 LINE SMOOTH",
"469 0 OFFCURVE",
"587 204 OFFCURVE",
"587 402 CURVE SMOOTH",
"587 531 OFFCURVE",
"517 611 OFFCURVE",
"359 611 CURVE SMOOTH"
);
},
{
closed = 1;
nodes = (
"451 564 OFFCURVE",
"499 506 OFFCURVE",
"499 401 CURVE SMOOTH",
"499 255 OFFCURVE",
"436 41 OFFCURVE",
"253 41 CURVE SMOOTH",
"220 41 OFFCURVE",
"184 49 OFFCURVE",
"162 58 CURVE",
"259 558 LINE",
"276 561 OFFCURVE",
"305 564 OFFCURVE",
"344 564 CURVE SMOOTH"
);
}
);
width = 622;
},
{
anchors = (
{
name = bottom;
position = "{273, 0}";
},
{
name = center;
position = "{357, 307}";
},
{
name = top;
position = "{393, 614}";
}
);
background = {
paths = (
{
closed = 1;
nodes = (
"105 614 LINE",
"96 569 LINE",
"172 546 LINE",
"79 69 LINE",
"-5 45 LINE",
"-13 0 LINE",
"269 0 LINE SMOOTH",
"508 0 OFFCURVE",
"629 193 OFFCURVE",
"629 403 CURVE SMOOTH",
"629 531 OFFCURVE",
"551 614 OFFCURVE",
"376 614 CURVE SMOOTH"
);
},
{
closed = 1;
nodes = (
"308 547 LINE",
"319 550 OFFCURVE",
"334 553 OFFCURVE",
"359 553 CURVE SMOOTH",
"441 553 OFFCURVE",
"481 511 OFFCURVE",
"481 405 CURVE SMOOTH",
"481 246 OFFCURVE",
"419 61 OFFCURVE",
"286 61 CURVE SMOOTH",
"261 61 OFFCURVE",
"234 63 OFFCURVE",
"215 70 CURVE"
);
}
);
};
layerId = "91FB354D-039B-406A-8F87-4ABC8510003D";
paths = (
{
closed = 1;
nodes = (
"105 614 LINE",
"96 569 LINE",
"172 546 LINE",
"79 69 LINE",
"-5 45 LINE",
"-13 0 LINE",
"269 0 LINE SMOOTH",
"508 0 OFFCURVE",
"629 193 OFFCURVE",
"629 403 CURVE SMOOTH",
"629 531 OFFCURVE",
"551 614 OFFCURVE",
"376 614 CURVE SMOOTH"
);
},
{
closed = 1;
nodes = (
"308 547 LINE",
"319 550 OFFCURVE",
"334 553 OFFCURVE",
"359 553 CURVE SMOOTH",
"441 553 OFFCURVE",
"481 511 OFFCURVE",
"481 405 CURVE SMOOTH",
"481 246 OFFCURVE",
"419 61 OFFCURVE",
"286 61 CURVE SMOOTH",
"261 61 OFFCURVE",
"234 63 OFFCURVE",
"215 70 CURVE"
);
}
);
width = 641;
}
);
rightKerningGroup = D;
unicode = 0044;
},
{
color = 11;
glyphname = Eth;
lastChange = "2015-02-19 03:26:13 +0000";
layers = (
{
background = {
paths = (
{
closed = 1;
nodes = (
"46 277 LINE",
"127 277 LINE",
"84 53 LINE",
"-4 33 LINE",
"-10 0 LINE",
"252 0 LINE SMOOTH",
"470 0 OFFCURVE",
"588 204 OFFCURVE",
"588 402 CURVE SMOOTH",
"588 531 OFFCURVE",
"518 611 OFFCURVE",
"360 611 CURVE SMOOTH",
"108 611 LINE",
"102 578 LINE",
"182 558 LINE",
"136 323 LINE",
"55 323 LINE"
);
},
{
closed = 1;
nodes = (
"452 564 OFFCURVE",
"500 506 OFFCURVE",
"500 401 CURVE SMOOTH",
"500 255 OFFCURVE",
"437 41 OFFCURVE",
"254 41 CURVE SMOOTH",
"221 41 OFFCURVE",
"185 49 OFFCURVE",
"163 58 CURVE",
"205 277 LINE",
"317 277 LINE",
"326 323 LINE",
"214 323 LINE",
"260 558 LINE",
"277 561 OFFCURVE",
"306 564 OFFCURVE",
"345 564 CURVE SMOOTH"
);
}
);
};
layerId = "27799D80-F866-457E-9382-0097DC0AFC53";
paths = (
{
closed = 1;
nodes = (
"46 277 LINE",
"127 277 LINE",
"84 53 LINE",
"-4 33 LINE",
"-10 0 LINE",
"252 0 LINE SMOOTH",
"470 0 OFFCURVE",
"588 204 OFFCURVE",
"588 402 CURVE SMOOTH",
"588 531 OFFCURVE",
"518 611 OFFCURVE",
"360 611 CURVE SMOOTH",
"108 611 LINE",
"102 578 LINE",
"182 558 LINE",
"136 323 LINE",
"55 323 LINE"
);
},
{
closed = 1;
nodes = (
"452 564 OFFCURVE",
"500 506 OFFCURVE",
"500 401 CURVE SMOOTH",
"500 255 OFFCURVE",
"437 41 OFFCURVE",
"254 41 CURVE SMOOTH",
"221 41 OFFCURVE",
"185 49 OFFCURVE",
"163 58 CURVE",
"205 277 LINE",
"317 277 LINE",
"326 323 LINE",
"214 323 LINE",
"260 558 LINE",
"277 561 OFFCURVE",
"306 564 OFFCURVE",
"345 564 CURVE SMOOTH"
);
}
);
width = 623;
},
{
background = {
paths = (
{
closed = 1;
nodes = (
"61 274 LINE",
"122 274 LINE",
"82 69 LINE",
"-2 45 LINE",
"-10 0 LINE",
"272 0 LINE SMOOTH",
"511 0 OFFCURVE",
"632 193 OFFCURVE",
"632 403 CURVE SMOOTH",
"632 531 OFFCURVE",
"554 614 OFFCURVE",
"379 614 CURVE SMOOTH",
"108 614 LINE",
"99 569 LINE",
"175 546 LINE",
"133 330 LINE",
"72 330 LINE"
);
},
{
closed = 1;
nodes = (
"258 274 LINE",
"342 274 LINE",
"353 330 LINE",
"269 330 LINE",
"311 547 LINE",
"322 550 OFFCURVE",
"337 553 OFFCURVE",
"362 553 CURVE SMOOTH",
"444 553 OFFCURVE",
"484 511 OFFCURVE",
"484 405 CURVE SMOOTH",
"484 246 OFFCURVE",
"422 61 OFFCURVE",
"289 61 CURVE SMOOTH",
"264 61 OFFCURVE",
"237 63 OFFCURVE",
"218 70 CURVE"
);
}
);
};
layerId = "91FB354D-039B-406A-8F87-4ABC8510003D";
paths = (
{
closed = 1;
nodes = (
"61 274 LINE",
"122 274 LINE",
"82 69 LINE",
"-2 45 LINE",
"-10 0 LINE",
"272 0 LINE SMOOTH",
"511 0 OFFCURVE",
"632 193 OFFCURVE",
"632 403 CURVE SMOOTH",
"632 531 OFFCURVE",
"554 614 OFFCURVE",
"379 614 CURVE SMOOTH",
"108 614 LINE",
"99 569 LINE",
"175 546 LINE",
"133 330 LINE",
"72 330 LINE"
);
},
{
closed = 1;
nodes = (
"258 274 LINE",
"342 274 LINE",
"353 330 LINE",
"269 330 LINE",
"311 547 LINE",
"322 550 OFFCURVE",
"337 553 OFFCURVE",
"362 553 CURVE SMOOTH",
"444 553 OFFCURVE",
"484 511 OFFCURVE",
"484 405 CURVE SMOOTH",
"484 246 OFFCURVE",
"422 61 OFFCURVE",
"289 61 CURVE SMOOTH",
"264 61 OFFCURVE",
"237 63 OFFCURVE",
"218 70 CURVE"
);
}
);
width = 644;
}
);
rightKerningGroup = D;
unicode = 00D0;
},
{
color = 11;
glyphname = Dcaron;
lastChange = "2015-02-19 03:26:13 +0000";
layers = (
{
background = {
paths = (
{
closed = 1;
nodes = (
"114 611 LINE",
"108 578 LINE",
"188 558 LINE",
"90 53 LINE",
"2 33 LINE",
"-4 0 LINE",
"258 0 LINE SMOOTH",
"476 0 OFFCURVE",
"594 204 OFFCURVE",
"594 402 CURVE SMOOTH",
"594 531 OFFCURVE",
"524 611 OFFCURVE",
"366 611 CURVE SMOOTH"
);
},
{
closed = 1;
nodes = (
"458 564 OFFCURVE",
"506 506 OFFCURVE",
"506 401 CURVE SMOOTH",
"506 255 OFFCURVE",
"443 41 OFFCURVE",
"260 41 CURVE SMOOTH",
"227 41 OFFCURVE",
"191 49 OFFCURVE",
"169 58 CURVE",
"266 558 LINE",
"283 561 OFFCURVE",
"312 564 OFFCURVE",
"351 564 CURVE SMOOTH"
);
},
{
closed = 1;
nodes = (
"235 786 LINE",
"324 651 LINE",
"384 651 LINE",
"514 786 LINE",
"494 805 LINE",
"364 722 LINE",
"262 804 LINE"
);
}
);
};
layerId = "27799D80-F866-457E-9382-0097DC0AFC53";
paths = (
{
closed = 1;
nodes = (
"114 611 LINE",
"108 578 LINE",
"188 558 LINE",
"90 53 LINE",
"2 33 LINE",
"-4 0 LINE",
"258 0 LINE SMOOTH",
"476 0 OFFCURVE",
"594 204 OFFCURVE",
"594 402 CURVE SMOOTH",
"594 531 OFFCURVE",
"524 611 OFFCURVE",
"366 611 CURVE SMOOTH"
);
},
{
closed = 1;
nodes = (
"458 564 OFFCURVE",
"506 506 OFFCURVE",
"506 401 CURVE SMOOTH",
"506 255 OFFCURVE",
"443 41 OFFCURVE",
"260 41 CURVE SMOOTH",
"227 41 OFFCURVE",
"191 49 OFFCURVE",
"169 58 CURVE",
"266 558 LINE",
"283 561 OFFCURVE",
"312 564 OFFCURVE",
"351 564 CURVE SMOOTH"
);
},
{
closed = 1;
nodes = (
"235 786 LINE",
"324 651 LINE",
"384 651 LINE",
"514 786 LINE",
"494 805 LINE",
"364 722 LINE",
"262 804 LINE"
);
}
);
width = 623;
},
{
background = {
paths = (
{
closed = 1;
nodes = (
"105 614 LINE",
"96 569 LINE",
"172 546 LINE",
"79 69 LINE",
"-5 45 LINE",
"-13 0 LINE",
"269 0 LINE SMOOTH",
"508 0 OFFCURVE",
"629 193 OFFCURVE",
"629 403 CURVE SMOOTH",
"629 531 OFFCURVE",
"551 614 OFFCURVE",
"376 614 CURVE SMOOTH"
);
},
{
closed = 1;
nodes = (
"308 547 LINE",
"319 550 OFFCURVE",
"334 553 OFFCURVE",
"359 553 CURVE SMOOTH",
"441 553 OFFCURVE",
"481 511 OFFCURVE",
"481 405 CURVE SMOOTH",
"481 246 OFFCURVE",
"419 61 OFFCURVE",
"286 61 CURVE SMOOTH",
"261 61 OFFCURVE",
"234 63 OFFCURVE",
"215 70 CURVE"
);
},
{
closed = 1;
nodes = (
"250 769 LINE",
"332 639 LINE",
"417 639 LINE",
"545 765 LINE",
"522 795 LINE",
"388 727 LINE",
"280 795 LINE"
);
}
);
};
layerId = "91FB354D-039B-406A-8F87-4ABC8510003D";
paths = (
{
closed = 1;
nodes = (
"105 614 LINE",
"96 569 LINE",
"172 546 LINE",
"79 69 LINE",
"-5 45 LINE",
"-13 0 LINE",
"269 0 LINE SMOOTH",
"508 0 OFFCURVE",
"629 193 OFFCURVE",
"629 403 CURVE SMOOTH",
"629 531 OFFCURVE",
"551 614 OFFCURVE",
"376 614 CURVE SMOOTH"
);
},
{
closed = 1;
nodes = (
"308 547 LINE",
"319 550 OFFCURVE",
"334 553 OFFCURVE",
"359 553 CURVE SMOOTH",
"441 553 OFFCURVE",
"481 511 OFFCURVE",
"481 405 CURVE SMOOTH",
"481 246 OFFCURVE",
"419 61 OFFCURVE",
"286 61 CURVE SMOOTH",
"261 61 OFFCURVE",
"234 63 OFFCURVE",
"215 70 CURVE"
);
},
{
closed = 1;
nodes = (
"250 769 LINE",
"332 639 LINE",
"417 639 LINE",
"545 765 LINE",
"522 795 LINE",
"388 727 LINE",
"280 795 LINE"
);
}
);
width = 641;
}
);
rightKerningGroup = D;
unicode = 010E;
},
{
color = 11;
glyphname = Dcroat;
lastChange = "2015-02-19 03:26:13 +0000";
layers = (
{
background = {
paths = (
{
closed = 1;
nodes = (
"52 277 LINE",
"133 277 LINE",
"90 53 LINE",
"2 33 LINE",
"-4 0 LINE",
"258 0 LINE SMOOTH",
"476 0 OFFCURVE",
"594 204 OFFCURVE",
"594 402 CURVE SMOOTH",
"594 531 OFFCURVE",
"524 611 OFFCURVE",
"366 611 CURVE SMOOTH",
"114 611 LINE",
"108 578 LINE",
"188 558 LINE",
"142 323 LINE",
"61 323 LINE"
);
},
{
closed = 1;
nodes = (
"458 564 OFFCURVE",
"506 506 OFFCURVE",
"506 401 CURVE SMOOTH",
"506 255 OFFCURVE",
"443 41 OFFCURVE",
"260 41 CURVE SMOOTH",
"227 41 OFFCURVE",
"191 49 OFFCURVE",
"169 58 CURVE",
"211 277 LINE",
"322 277 LINE",
"331 323 LINE",
"220 323 LINE",
"266 558 LINE",
"283 561 OFFCURVE",
"312 564 OFFCURVE",
"351 564 CURVE SMOOTH"
);
}
);
};
layerId = "27799D80-F866-457E-9382-0097DC0AFC53";
paths = (
{
closed = 1;
nodes = (
"52 277 LINE",
"133 277 LINE",
"90 53 LINE",
"2 33 LINE",
"-4 0 LINE",
"258 0 LINE SMOOTH",
"476 0 OFFCURVE",
"594 204 OFFCURVE",
"594 402 CURVE SMOOTH",
"594 531 OFFCURVE",
"524 611 OFFCURVE",
"366 611 CURVE SMOOTH",
"114 611 LINE",
"108 578 LINE",
"188 558 LINE",
"142 323 LINE",
"61 323 LINE"
);
},
{
closed = 1;
nodes = (
"458 564 OFFCURVE",
"506 506 OFFCURVE",
"506 401 CURVE SMOOTH",
"506 255 OFFCURVE",
"443 41 OFFCURVE",
"260 41 CURVE SMOOTH",
"227 41 OFFCURVE",
"191 49 OFFCURVE",
"169 58 CURVE",
"211 277 LINE",
"322 277 LINE",
"331 323 LINE",
"220 323 LINE",
"266 558 LINE",
"283 561 OFFCURVE",
"312 564 OFFCURVE",
"351 564 CURVE SMOOTH"
);
}
);
width = 623;
},
{
background = {
paths = (
{
closed = 1;
nodes = (
"61 274 LINE",
"122 274 LINE",
"82 69 LINE",
"-2 45 LINE",
"-10 0 LINE",
"272 0 LINE SMOOTH",
"511 0 OFFCURVE",
"632 193 OFFCURVE",
"632 403 CURVE SMOOTH",
"632 531 OFFCURVE",
"554 614 OFFCURVE",
"379 614 CURVE SMOOTH",
"108 614 LINE",
"99 569 LINE",
"175 546 LINE",
"133 330 LINE",
"72 330 LINE"
);
},
{
closed = 1;
nodes = (
"258 274 LINE",
"342 274 LINE",
"353 330 LINE",
"269 330 LINE",
"311 547 LINE",
"322 550 OFFCURVE",
"337 553 OFFCURVE",
"362 553 CURVE SMOOTH",
"444 553 OFFCURVE",
"484 511 OFFCURVE",
"484 405 CURVE SMOOTH",
"484 246 OFFCURVE",
"422 61 OFFCURVE",
"289 61 CURVE SMOOTH",
"264 61 OFFCURVE",
"237 63 OFFCURVE",
"218 70 CURVE"
);
}
);
};
layerId = "91FB354D-039B-406A-8F87-4ABC8510003D";
paths = (
{
closed = 1;
nodes = (
"61 274 LINE",
"122 274 LINE",
"82 69 LINE",
"-2 45 LINE",
"-10 0 LINE",
"272 0 LINE SMOOTH",
"511 0 OFFCURVE",
"632 193 OFFCURVE",
"632 403 CURVE SMOOTH",
"632 531 OFFCURVE",
"554 614 OFFCURVE",
"379 614 CURVE SMOOTH",
"108 614 LINE",
"99 569 LINE",
"175 546 LINE",
"133 330 LINE",
"72 330 LINE"
);
},
{
closed = 1;
nodes = (
"258 274 LINE",
"342 274 LINE",
"353 330 LINE",
"269 330 LINE",
"311 547 LINE",
"322 550 OFFCURVE",
"337 553 OFFCURVE",
"362 553 CURVE SMOOTH",
"444 553 OFFCURVE",
"484 511 OFFCURVE",
"484 405 CURVE SMOOTH",
"484 246 OFFCURVE",
"422 61 OFFCURVE",
"289 61 CURVE SMOOTH",
"264 61 OFFCURVE",
"237 63 OFFCURVE",
"218 70 CURVE"
);
}
);
width = 644;
}
);
rightKerningGroup = D;
unicode = 0110;
},
{
color = 11;
glyphname = E;
lastChange = "2015-02-19 03:26:13 +0000";
layers = (
{
anchors = (
{
name = bottom;
position = "{216, 0}";
},
{
name = ogonek;
position = "{427, 10}";
},
{
name = top;
position = "{335, 611}";
}
);
background = {
paths = (
{
closed = 1;
nodes = (
"355 323 LINE",
"219 323 LINE",
"264 559 LINE",
"453 559 LINE",
"453 479 LINE",
"491 479 LINE",
"516 611 LINE",
"107 611 LINE",
"101 578 LINE",
"186 558 LINE",
"88 53 LINE",
"-5 33 LINE",
"-11 0 LINE",
"421 0 LINE",
"449 147 LINE",
"412 147 LINE",
"370 56 LINE",
"167 56 LINE",
"210 277 LINE",
"343 277 LINE",
"353 208 LINE",
"387 208 LINE",
"422 389 LINE",
"388 389 LINE"
);
}
);
};
layerId = "27799D80-F866-457E-9382-0097DC0AFC53";
paths = (
{
closed = 1;
nodes = (
"355 323 LINE",
"219 323 LINE",
"264 559 LINE",
"453 559 LINE",
"453 479 LINE",
"491 479 LINE",
"516 611 LINE",
"107 611 LINE",
"101 578 LINE",
"186 558 LINE",
"88 53 LINE",
"-5 33 LINE",
"-11 0 LINE",
"421 0 LINE",
"449 147 LINE",
"412 147 LINE",
"370 56 LINE",
"167 56 LINE",
"210 277 LINE",
"343 277 LINE",
"353 208 LINE",
"387 208 LINE",
"422 389 LINE",
"388 389 LINE"
);
}
);
width = 528;
},
{
anchors = (
{
name = bottom;
position = "{220, 0}";
},
{
name = ogonek;
position = "{434, 10}";
},
{
name = top;
position = "{340, 614}";
}
);
background = {
paths = (
{
closed = 1;
nodes = (
"370 337 LINE",
"267 337 LINE",
"308 546 LINE",
"466 546 LINE",
"471 468 LINE",
"524 468 LINE",
"552 614 LINE",
"105 614 LINE",
"96 569 LINE",
"172 546 LINE",
"79 69 LINE",
"-5 45 LINE",
"-13 0 LINE",
"452 0 LINE",
"483 162 LINE",
"430 162 LINE",
"388 69 LINE",
"215 69 LINE",
"256 281 LINE",
"357 281 LINE",
"362 212 LINE",
"412 212 LINE",
"449 403 LINE",
"399 403 LINE"
);
}
);
};
layerId = "91FB354D-039B-406A-8F87-4ABC8510003D";
paths = (
{
closed = 1;
nodes = (
"370 337 LINE",
"267 337 LINE",
"308 546 LINE",
"466 546 LINE",
"471 468 LINE",
"524 468 LINE",
"552 614 LINE",
"105 614 LINE",
"96 569 LINE",
"172 546 LINE",
"79 69 LINE",
"-5 45 LINE",
"-13 0 LINE",
"452 0 LINE",
"483 162 LINE",
"430 162 LINE",
"388 69 LINE",
"215 69 LINE",
"256 281 LINE",
"357 281 LINE",
"362 212 LINE",
"412 212 LINE",
"449 403 LINE",
"399 403 LINE"
);
}
);
width = 536;
}
);
rightKerningGroup = E;
unicode = 0045;
},
{
color = 11;
glyphname = Eacute;
lastChange = "2015-02-19 03:26:13 +0000";
layers = (
{
background = {
paths = (
{
closed = 1;
nodes = (
"362 323 LINE",
"226 323 LINE",
"271 559 LINE",
"460 559 LINE",
"460 479 LINE",
"498 479 LINE",
"523 611 LINE",
"114 611 LINE",
"108 578 LINE",
"193 558 LINE",
"95 53 LINE",
"2 33 LINE",
"-4 0 LINE",
"428 0 LINE",
"456 147 LINE",
"419 147 LINE",
"377 56 LINE",
"174 56 LINE",
"217 277 LINE",
"350 277 LINE",
"360 208 LINE",
"394 208 LINE",
"429 389 LINE",
"395 389 LINE"
);
},
{
closed = 1;
nodes = (
"486 754 LINE",
"486 772 LINE",
"410 800 LINE",
"256 670 LINE",
"272 651 LINE"
);
}
);
};
layerId = "27799D80-F866-457E-9382-0097DC0AFC53";
paths = (
{
closed = 1;
nodes = (
"362 323 LINE",
"226 323 LINE",
"271 559 LINE",
"460 559 LINE",
"460 479 LINE",
"498 479 LINE",
"523 611 LINE",
"114 611 LINE",
"108 578 LINE",
"193 558 LINE",
"95 53 LINE",
"2 33 LINE",
"-4 0 LINE",
"428 0 LINE",
"456 147 LINE",
"419 147 LINE",
"377 56 LINE",
"174 56 LINE",
"217 277 LINE",
"350 277 LINE",
"360 208 LINE",
"394 208 LINE",
"429 389 LINE",
"395 389 LINE"
);
},
{
closed = 1;
nodes = (
"486 754 LINE",
"486 772 LINE",
"410 800 LINE",
"256 670 LINE",
"272 651 LINE"
);
}
);
width = 539;
},
{
background = {
paths = (
{
closed = 1;
nodes = (
"370 337 LINE",
"267 337 LINE",
"308 546 LINE",
"466 546 LINE",
"471 468 LINE",
"524 468 LINE",
"552 614 LINE",
"105 614 LINE",
"96 569 LINE",
"172 546 LINE",
"79 69 LINE",
"-5 45 LINE",
"-13 0 LINE",
"452 0 LINE",
"483 162 LINE",
"430 162 LINE",
"388 69 LINE",
"215 69 LINE",
"256 281 LINE",
"357 281 LINE",
"362 212 LINE",
"412 212 LINE",
"449 403 LINE",
"399 403 LINE"
);
},
{
closed = 1;
nodes = (
"506 743 LINE",
"506 766 LINE",
"407 800 LINE",
"251 669 LINE",
"278 634 LINE"
);
}
);
};
layerId = "91FB354D-039B-406A-8F87-4ABC8510003D";
paths = (
{
closed = 1;
nodes = (
"370 337 LINE",
"267 337 LINE",
"308 546 LINE",
"466 546 LINE",
"471 468 LINE",
"524 468 LINE",
"552 614 LINE",
"105 614 LINE",
"96 569 LINE",
"172 546 LINE",
"79 69 LINE",
"-5 45 LINE",
"-13 0 LINE",
"452 0 LINE",
"483 162 LINE",
"430 162 LINE",
"388 69 LINE",
"215 69 LINE",
"256 281 LINE",
"357 281 LINE",
"362 212 LINE",
"412 212 LINE",
"449 403 LINE",
"399 403 LINE"
);
},
{
closed = 1;
nodes = (
"506 743 LINE",
"506 766 LINE",
"407 800 LINE",
"251 669 LINE",
"278 634 LINE"
);
}
);
width = 536;
}
);
rightKerningGroup = E;
unicode = 00C9;
},
{
color = 11;
glyphname = Ecaron;
lastChange = "2015-02-19 03:26:13 +0000";
layers = (
{
background = {
paths = (
{
closed = 1;
nodes = (
"362 323 LINE",
"226 323 LINE",
"271 559 LINE",
"460 559 LINE",
"460 479 LINE",
"498 479 LINE",
"523 611 LINE",
"114 611 LINE",
"108 578 LINE",
"193 558 LINE",
"95 53 LINE",
"2 33 LINE",
"-4 0 LINE",
"428 0 LINE",
"456 147 LINE",
"419 147 LINE",
"377 56 LINE",
"174 56 LINE",
"217 277 LINE",
"350 277 LINE",
"360 208 LINE",
"394 208 LINE",
"429 389 LINE",
"395 389 LINE"
);
},
{
closed = 1;
nodes = (
"225 786 LINE",
"314 651 LINE",
"374 651 LINE",
"504 786 LINE",
"484 805 LINE",
"354 722 LINE",
"252 804 LINE"
);
}
);
};
layerId = "27799D80-F866-457E-9382-0097DC0AFC53";
paths = (
{
closed = 1;
nodes = (
"362 323 LINE",
"226 323 LINE",
"271 559 LINE",
"460 559 LINE",
"460 479 LINE",
"498 479 LINE",
"523 611 LINE",
"114 611 LINE",
"108 578 LINE",
"193 558 LINE",
"95 53 LINE",
"2 33 LINE",
"-4 0 LINE",
"428 0 LINE",
"456 147 LINE",
"419 147 LINE",
"377 56 LINE",
"174 56 LINE",
"217 277 LINE",
"350 277 LINE",
"360 208 LINE",
"394 208 LINE",
"429 389 LINE",
"395 389 LINE"
);
},
{
closed = 1;
nodes = (
"225 786 LINE",
"314 651 LINE",
"374 651 LINE",
"504 786 LINE",
"484 805 LINE",
"354 722 LINE",
"252 804 LINE"
);
}
);
width = 539;
},
{
background = {
paths = (
{
closed = 1;
nodes = (
"370 337 LINE",
"267 337 LINE",
"308 546 LINE",
"466 546 LINE",
"471 468 LINE",
"524 468 LINE",
"552 614 LINE",
"105 614 LINE",
"96 569 LINE",
"172 546 LINE",
"79 69 LINE",
"-5 45 LINE",
"-13 0 LINE",
"452 0 LINE",
"483 162 LINE",
"430 162 LINE",
"388 69 LINE",
"215 69 LINE",
"256 281 LINE",
"357 281 LINE",
"362 212 LINE",
"412 212 LINE",
"449 403 LINE",
"399 403 LINE"
);
},
{
closed = 1;
nodes = (
"226 769 LINE",
"308 639 LINE",
"393 639 LINE",
"521 765 LINE",
"498 795 LINE",
"364 727 LINE",
"256 795 LINE"
);
}
);
};
layerId = "91FB354D-039B-406A-8F87-4ABC8510003D";
paths = (
{
closed = 1;
nodes = (
"370 337 LINE",
"267 337 LINE",
"308 546 LINE",
"466 546 LINE",
"471 468 LINE",
"524 468 LINE",
"552 614 LINE",
"105 614 LINE",
"96 569 LINE",
"172 546 LINE",
"79 69 LINE",
"-5 45 LINE",
"-13 0 LINE",
"452 0 LINE",
"483 162 LINE",
"430 162 LINE",
"388 69 LINE",
"215 69 LINE",
"256 281 LINE",
"357 281 LINE",
"362 212 LINE",
"412 212 LINE",
"449 403 LINE",
"399 403 LINE"
);
},
{
closed = 1;
nodes = (
"226 769 LINE",
"308 639 LINE",
"393 639 LINE",
"521 765 LINE",
"498 795 LINE",
"364 727 LINE",
"256 795 LINE"
);
}
);
width = 536;
}
);
rightKerningGroup = E;
unicode = 011A;
},
{
color = 11;
glyphname = Ecircumflex;
lastChange = "2015-02-19 03:26:13 +0000";
layers = (
{
background = {
paths = (
{
closed = 1;
nodes = (
"362 323 LINE",
"226 323 LINE",
"271 559 LINE",
"460 559 LINE",
"460 479 LINE",
"498 479 LINE",
"523 611 LINE",
"114 611 LINE",
"108 578 LINE",
"193 558 LINE",
"95 53 LINE",
"2 33 LINE",
"-4 0 LINE",
"428 0 LINE",
"456 147 LINE",
"419 147 LINE",
"377 56 LINE",
"174 56 LINE",
"217 277 LINE",
"350 277 LINE",
"360 208 LINE",
"394 208 LINE",
"429 389 LINE",
"395 389 LINE"
);
},
{
closed = 1;
nodes = (
"472 669 LINE",
"393 804 LINE",
"333 804 LINE",
"194 669 LINE",
"214 650 LINE",
"352 735 LINE",
"446 650 LINE"
);
}
);
};
layerId = "27799D80-F866-457E-9382-0097DC0AFC53";
paths = (
{
closed = 1;
nodes = (
"362 323 LINE",
"226 323 LINE",
"271 559 LINE",
"460 559 LINE",
"460 479 LINE",
"498 479 LINE",
"523 611 LINE",
"114 611 LINE",
"108 578 LINE",
"193 558 LINE",
"95 53 LINE",
"2 33 LINE",
"-4 0 LINE",
"428 0 LINE",
"456 147 LINE",
"419 147 LINE",
"377 56 LINE",
"174 56 LINE",
"217 277 LINE",
"350 277 LINE",
"360 208 LINE",
"394 208 LINE",
"429 389 LINE",
"395 389 LINE"
);
},
{
closed = 1;
nodes = (
"472 669 LINE",
"393 804 LINE",
"333 804 LINE",
"194 669 LINE",
"214 650 LINE",
"352 735 LINE",
"446 650 LINE"
);
}
);
width = 539;
},
{
background = {
paths = (
{
closed = 1;
nodes = (
"370 337 LINE",
"267 337 LINE",
"308 546 LINE",
"466 546 LINE",
"471 468 LINE",
"524 468 LINE",
"552 614 LINE",
"105 614 LINE",
"96 569 LINE",
"172 546 LINE",
"79 69 LINE",
"-5 45 LINE",
"-13 0 LINE",
"452 0 LINE",
"483 162 LINE",
"430 162 LINE",
"388 69 LINE",
"215 69 LINE",
"256 281 LINE",
"357 281 LINE",
"362 212 LINE",
"412 212 LINE",
"449 403 LINE",
"399 403 LINE"
);
},
{
closed = 1;
nodes = (
"496 665 LINE",
"414 795 LINE",
"329 795 LINE",
"201 669 LINE",
"224 639 LINE",
"358 707 LINE",
"466 639 LINE"
);
}
);
};
layerId = "91FB354D-039B-406A-8F87-4ABC8510003D";
paths = (
{
closed = 1;
nodes = (
"370 337 LINE",
"267 337 LINE",
"308 546 LINE",
"466 546 LINE",
"471 468 LINE",
"524 468 LINE",
"552 614 LINE",
"105 614 LINE",
"96 569 LINE",
"172 546 LINE",
"79 69 LINE",
"-5 45 LINE",
"-13 0 LINE",
"452 0 LINE",
"483 162 LINE",
"430 162 LINE",
"388 69 LINE",
"215 69 LINE",
"256 281 LINE",
"357 281 LINE",
"362 212 LINE",
"412 212 LINE",
"449 403 LINE",
"399 403 LINE"
);
},
{
closed = 1;
nodes = (
"496 665 LINE",
"414 795 LINE",
"329 795 LINE",
"201 669 LINE",
"224 639 LINE",
"358 707 LINE",
"466 639 LINE"
);
}
);
width = 536;
}
);
rightKerningGroup = E;
unicode = 00CA;
},
{
color = 11;
glyphname = Edieresis;
lastChange = "2015-02-19 03:26:13 +0000";
layers = (
{
background = {
paths = (
{
closed = 1;
nodes = (
"362 323 LINE",
"226 323 LINE",
"271 559 LINE",
"460 559 LINE",
"460 479 LINE",
"498 479 LINE",
"523 611 LINE",
"114 611 LINE",
"108 578 LINE",
"193 558 LINE",
"95 53 LINE",
"2 33 LINE",
"-4 0 LINE",
"428 0 LINE",
"456 147 LINE",
"419 147 LINE",
"377 56 LINE",
"174 56 LINE",
"217 277 LINE",
"350 277 LINE",
"360 208 LINE",
"394 208 LINE",
"429 389 LINE",
"395 389 LINE"
);
},
{
closed = 1;
nodes = (
"298 758 OFFCURVE",
"271 784 OFFCURVE",
"241 784 CURVE SMOOTH",
"211 784 OFFCURVE",
"184 758 OFFCURVE",
"184 726 CURVE SMOOTH",
"184 696 OFFCURVE",
"211 671 OFFCURVE",
"241 671 CURVE SMOOTH",
"271 671 OFFCURVE",
"298 696 OFFCURVE",
"298 726 CURVE SMOOTH"
);
},
{
closed = 1;
nodes = (
"493 758 OFFCURVE",
"465 784 OFFCURVE",
"435 784 CURVE SMOOTH",
"405 784 OFFCURVE",
"378 758 OFFCURVE",
"378 726 CURVE SMOOTH",
"378 696 OFFCURVE",
"405 671 OFFCURVE",
"435 671 CURVE SMOOTH",
"465 671 OFFCURVE",
"493 696 OFFCURVE",
"493 726 CURVE SMOOTH"
);
}
);
};
layerId = "27799D80-F866-457E-9382-0097DC0AFC53";
paths = (
{
closed = 1;
nodes = (
"362 323 LINE",
"226 323 LINE",
"271 559 LINE",
"460 559 LINE",
"460 479 LINE",
"498 479 LINE",
"523 611 LINE",
"114 611 LINE",
"108 578 LINE",
"193 558 LINE",
"95 53 LINE",
"2 33 LINE",
"-4 0 LINE",
"428 0 LINE",
"456 147 LINE",
"419 147 LINE",
"377 56 LINE",
"174 56 LINE",
"217 277 LINE",
"350 277 LINE",
"360 208 LINE",
"394 208 LINE",
"429 389 LINE",
"395 389 LINE"
);
},
{
closed = 1;
nodes = (
"298 758 OFFCURVE",
"271 784 OFFCURVE",
"241 784 CURVE SMOOTH",
"211 784 OFFCURVE",
"184 758 OFFCURVE",
"184 726 CURVE SMOOTH",
"184 696 OFFCURVE",
"211 671 OFFCURVE",
"241 671 CURVE SMOOTH",
"271 671 OFFCURVE",
"298 696 OFFCURVE",
"298 726 CURVE SMOOTH"
);
},
{
closed = 1;
nodes = (
"493 758 OFFCURVE",
"465 784 OFFCURVE",
"435 784 CURVE SMOOTH",
"405 784 OFFCURVE",
"378 758 OFFCURVE",
"378 726 CURVE SMOOTH",
"378 696 OFFCURVE",
"405 671 OFFCURVE",
"435 671 CURVE SMOOTH",
"465 671 OFFCURVE",
"493 696 OFFCURVE",
"493 726 CURVE SMOOTH"
);
}
);
width = 539;
},
{
background = {
paths = (
{
closed = 1;
nodes = (
"370 337 LINE",
"267 337 LINE",
"308 546 LINE",
"466 546 LINE",
"471 468 LINE",
"524 468 LINE",
"552 614 LINE",
"105 614 LINE",
"96 569 LINE",
"172 546 LINE",
"79 69 LINE",
"-5 45 LINE",
"-13 0 LINE",
"452 0 LINE",
"483 162 LINE",
"430 162 LINE",
"388 69 LINE",
"215 69 LINE",
"256 281 LINE",
"357 281 LINE",
"362 212 LINE",
"412 212 LINE",
"449 403 LINE",
"399 403 LINE"
);
},
{
closed = 1;
nodes = (
"316 760 OFFCURVE",
"282 792 OFFCURVE",
"242 792 CURVE SMOOTH",
"201 792 OFFCURVE",
"164 760 OFFCURVE",
"164 719 CURVE SMOOTH",
"164 677 OFFCURVE",
"201 647 OFFCURVE",
"242 647 CURVE SMOOTH",
"282 647 OFFCURVE",
"316 677 OFFCURVE",
"316 719 CURVE SMOOTH"
);
},
{
closed = 1;
nodes = (
"547 760 OFFCURVE",
"512 792 OFFCURVE",
"474 792 CURVE SMOOTH",
"432 792 OFFCURVE",
"397 760 OFFCURVE",
"397 719 CURVE SMOOTH",
"397 677 OFFCURVE",
"432 647 OFFCURVE",
"474 647 CURVE SMOOTH",
"512 647 OFFCURVE",
"547 677 OFFCURVE",
"547 719 CURVE SMOOTH"
);
}
);
};
layerId = "91FB354D-039B-406A-8F87-4ABC8510003D";
paths = (
{
closed = 1;
nodes = (
"370 337 LINE",
"267 337 LINE",
"308 546 LINE",
"466 546 LINE",
"471 468 LINE",
"524 468 LINE",
"552 614 LINE",
"105 614 LINE",
"96 569 LINE",
"172 546 LINE",
"79 69 LINE",
"-5 45 LINE",
"-13 0 LINE",
"452 0 LINE",
"483 162 LINE",
"430 162 LINE",
"388 69 LINE",
"215 69 LINE",
"256 281 LINE",
"357 281 LINE",
"362 212 LINE",
"412 212 LINE",
"449 403 LINE",
"399 403 LINE"
);
},
{
closed = 1;
nodes = (
"316 760 OFFCURVE",
"282 792 OFFCURVE",
"242 792 CURVE SMOOTH",
"201 792 OFFCURVE",
"164 760 OFFCURVE",
"164 719 CURVE SMOOTH",
"164 677 OFFCURVE",
"201 647 OFFCURVE",
"242 647 CURVE SMOOTH",
"282 647 OFFCURVE",
"316 677 OFFCURVE",
"316 719 CURVE SMOOTH"
);
},
{
closed = 1;
nodes = (
"547 760 OFFCURVE",
"512 792 OFFCURVE",
"474 792 CURVE SMOOTH",
"432 792 OFFCURVE",
"397 760 OFFCURVE",
"397 719 CURVE SMOOTH",
"397 677 OFFCURVE",
"432 647 OFFCURVE",
"474 647 CURVE SMOOTH",
"512 647 OFFCURVE",
"547 677 OFFCURVE",
"547 719 CURVE SMOOTH"
);
}
);
width = 536;
}
);
rightKerningGroup = E;
unicode = 00CB;
},
{
color = 11;
glyphname = Edotaccent;
lastChange = "2015-02-19 03:26:13 +0000";
layers = (
{
background = {
paths = (
{
closed = 1;
nodes = (
"362 323 LINE",
"226 323 LINE",
"271 559 LINE",
"460 559 LINE",
"460 479 LINE",
"498 479 LINE",
"523 611 LINE",
"114 611 LINE",
"108 578 LINE",
"193 558 LINE",
"95 53 LINE",
"2 33 LINE",
"-4 0 LINE",
"428 0 LINE",
"456 147 LINE",
"419 147 LINE",
"377 56 LINE",
"174 56 LINE",
"217 277 LINE",
"350 277 LINE",
"360 208 LINE",
"394 208 LINE",
"429 389 LINE",
"395 389 LINE"
);
},
{
closed = 1;
nodes = (
"407 758 OFFCURVE",
"378 785 OFFCURVE",
"347 785 CURVE SMOOTH",
"315 785 OFFCURVE",
"287 758 OFFCURVE",
"287 725 CURVE SMOOTH",
"287 692 OFFCURVE",
"315 668 OFFCURVE",
"347 668 CURVE SMOOTH",
"378 668 OFFCURVE",
"407 692 OFFCURVE",
"407 725 CURVE SMOOTH"
);
}
);
};
layerId = "27799D80-F866-457E-9382-0097DC0AFC53";
paths = (
{
closed = 1;
nodes = (
"362 323 LINE",
"226 323 LINE",
"271 559 LINE",
"460 559 LINE",
"460 479 LINE",
"498 479 LINE",
"523 611 LINE",
"114 611 LINE",
"108 578 LINE",
"193 558 LINE",
"95 53 LINE",
"2 33 LINE",
"-4 0 LINE",
"428 0 LINE",
"456 147 LINE",
"419 147 LINE",
"377 56 LINE",
"174 56 LINE",
"217 277 LINE",
"350 277 LINE",
"360 208 LINE",
"394 208 LINE",
"429 389 LINE",
"395 389 LINE"
);
},
{
closed = 1;
nodes = (
"407 758 OFFCURVE",
"378 785 OFFCURVE",
"347 785 CURVE SMOOTH",
"315 785 OFFCURVE",
"287 758 OFFCURVE",
"287 725 CURVE SMOOTH",
"287 692 OFFCURVE",
"315 668 OFFCURVE",
"347 668 CURVE SMOOTH",
"378 668 OFFCURVE",
"407 692 OFFCURVE",
"407 725 CURVE SMOOTH"
);
}
);
width = 539;
},
{
background = {
paths = (
{
closed = 1;
nodes = (
"370 337 LINE",
"267 337 LINE",
"308 546 LINE",
"466 546 LINE",
"471 468 LINE",
"524 468 LINE",
"552 614 LINE",
"105 614 LINE",
"96 569 LINE",
"172 546 LINE",
"79 69 LINE",
"-5 45 LINE",
"-13 0 LINE",
"452 0 LINE",
"483 162 LINE",
"430 162 LINE",
"388 69 LINE",
"215 69 LINE",
"256 281 LINE",
"357 281 LINE",
"362 212 LINE",
"412 212 LINE",
"449 403 LINE",
"399 403 LINE"
);
},
{
closed = 1;
nodes = (
"443 760 OFFCURVE",
"406 799 OFFCURVE",
"361 799 CURVE SMOOTH",
"316 799 OFFCURVE",
"275 760 OFFCURVE",
"275 715 CURVE SMOOTH",
"275 670 OFFCURVE",
"316 635 OFFCURVE",
"361 635 CURVE SMOOTH",
"406 635 OFFCURVE",
"443 670 OFFCURVE",
"443 715 CURVE SMOOTH"
);
}
);
};
layerId = "91FB354D-039B-406A-8F87-4ABC8510003D";
paths = (
{
closed = 1;
nodes = (
"370 337 LINE",
"267 337 LINE",
"308 546 LINE",
"466 546 LINE",
"471 468 LINE",
"524 468 LINE",
"552 614 LINE",
"105 614 LINE",
"96 569 LINE",
"172 546 LINE",
"79 69 LINE",
"-5 45 LINE",
"-13 0 LINE",
"452 0 LINE",
"483 162 LINE",
"430 162 LINE",
"388 69 LINE",
"215 69 LINE",
"256 281 LINE",
"357 281 LINE",
"362 212 LINE",
"412 212 LINE",
"449 403 LINE",
"399 403 LINE"
);
},
{
closed = 1;
nodes = (
"443 760 OFFCURVE",
"406 799 OFFCURVE",
"361 799 CURVE SMOOTH",
"316 799 OFFCURVE",
"275 760 OFFCURVE",
"275 715 CURVE SMOOTH",
"275 670 OFFCURVE",
"316 635 OFFCURVE",
"361 635 CURVE SMOOTH",
"406 635 OFFCURVE",
"443 670 OFFCURVE",
"443 715 CURVE SMOOTH"
);
}
);
width = 536;
}
);
rightKerningGroup = E;
unicode = 0116;
},
{
color = 11;
glyphname = Egrave;
lastChange = "2015-02-19 03:26:13 +0000";
layers = (
{
background = {
paths = (
{
closed = 1;
nodes = (
"362 323 LINE",
"226 323 LINE",
"271 559 LINE",
"460 559 LINE",
"460 479 LINE",
"498 479 LINE",
"523 611 LINE",
"114 611 LINE",
"108 578 LINE",
"193 558 LINE",
"95 53 LINE",
"2 33 LINE",
"-4 0 LINE",
"428 0 LINE",
"456 147 LINE",
"419 147 LINE",
"377 56 LINE",
"174 56 LINE",
"217 277 LINE",
"350 277 LINE",
"360 208 LINE",
"394 208 LINE",
"429 389 LINE",
"395 389 LINE"
);
},
{
closed = 1;
nodes = (
"438 651 LINE",
"454 670 LINE",
"300 800 LINE",
"224 772 LINE",
"224 754 LINE"
);
}
);
};
layerId = "27799D80-F866-457E-9382-0097DC0AFC53";
paths = (
{
closed = 1;
nodes = (
"362 323 LINE",
"226 323 LINE",
"271 559 LINE",
"460 559 LINE",
"460 479 LINE",
"498 479 LINE",
"523 611 LINE",
"114 611 LINE",
"108 578 LINE",
"193 558 LINE",
"95 53 LINE",
"2 33 LINE",
"-4 0 LINE",
"428 0 LINE",
"456 147 LINE",
"419 147 LINE",
"377 56 LINE",
"174 56 LINE",
"217 277 LINE",
"350 277 LINE",
"360 208 LINE",
"394 208 LINE",
"429 389 LINE",
"395 389 LINE"
);
},
{
closed = 1;
nodes = (
"438 651 LINE",
"454 670 LINE",
"300 800 LINE",
"224 772 LINE",
"224 754 LINE"
);
}
);
width = 539;
},
{
background = {
paths = (
{
closed = 1;
nodes = (
"370 337 LINE",
"267 337 LINE",
"308 546 LINE",
"466 546 LINE",
"471 468 LINE",
"524 468 LINE",
"552 614 LINE",
"105 614 LINE",
"96 569 LINE",
"172 546 LINE",
"79 69 LINE",
"-5 45 LINE",
"-13 0 LINE",
"452 0 LINE",
"483 162 LINE",
"430 162 LINE",
"388 69 LINE",
"215 69 LINE",
"256 281 LINE",
"357 281 LINE",
"362 212 LINE",
"412 212 LINE",
"449 403 LINE",
"399 403 LINE"
);
},
{
closed = 1;
nodes = (
"434 669 LINE",
"280 800 LINE",
"183 766 LINE",
"179 743 LINE",
"411 634 LINE"
);
}
);
};
layerId = "91FB354D-039B-406A-8F87-4ABC8510003D";
paths = (
{
closed = 1;
nodes = (
"370 337 LINE",
"267 337 LINE",
"308 546 LINE",
"466 546 LINE",
"471 468 LINE",
"524 468 LINE",
"552 614 LINE",
"105 614 LINE",
"96 569 LINE",
"172 546 LINE",
"79 69 LINE",
"-5 45 LINE",
"-13 0 LINE",
"452 0 LINE",
"483 162 LINE",
"430 162 LINE",
"388 69 LINE",
"215 69 LINE",
"256 281 LINE",
"357 281 LINE",
"362 212 LINE",
"412 212 LINE",
"449 403 LINE",
"399 403 LINE"
);
},
{
closed = 1;
nodes = (
"434 669 LINE",
"280 800 LINE",
"183 766 LINE",
"179 743 LINE",
"411 634 LINE"
);
}
);
width = 536;
}
);
rightKerningGroup = E;
unicode = 00C8;
},
{
color = 11;
glyphname = Emacron;
lastChange = "2015-02-19 03:26:13 +0000";
layers = (
{
background = {
paths = (
{
closed = 1;
nodes = (
"362 323 LINE",
"226 323 LINE",
"271 559 LINE",
"460 559 LINE",
"460 479 LINE",
"498 479 LINE",
"523 611 LINE",
"114 611 LINE",
"108 578 LINE",
"193 558 LINE",
"95 53 LINE",
"2 33 LINE",
"-4 0 LINE",
"428 0 LINE",
"456 147 LINE",
"419 147 LINE",
"377 56 LINE",
"174 56 LINE",
"217 277 LINE",
"350 277 LINE",
"360 208 LINE",
"394 208 LINE",
"429 389 LINE",
"395 389 LINE"
);
},
{
closed = 1;
nodes = (
"234 689 LINE",
"471 689 LINE",
"479 743 LINE",
"242 743 LINE"
);
}
);
};
layerId = "27799D80-F866-457E-9382-0097DC0AFC53";
paths = (
{
closed = 1;
nodes = (
"362 323 LINE",
"226 323 LINE",
"271 559 LINE",
"460 559 LINE",
"460 479 LINE",
"498 479 LINE",
"523 611 LINE",
"114 611 LINE",
"108 578 LINE",
"193 558 LINE",
"95 53 LINE",
"2 33 LINE",
"-4 0 LINE",
"428 0 LINE",
"456 147 LINE",
"419 147 LINE",
"377 56 LINE",
"174 56 LINE",
"217 277 LINE",
"350 277 LINE",
"360 208 LINE",
"394 208 LINE",
"429 389 LINE",
"395 389 LINE"
);
},
{
closed = 1;
nodes = (
"234 689 LINE",
"471 689 LINE",
"479 743 LINE",
"242 743 LINE"
);
}
);
width = 539;
},
{
background = {
paths = (
{
closed = 1;
nodes = (
"370 337 LINE",
"267 337 LINE",
"308 546 LINE",
"466 546 LINE",
"471 468 LINE",
"524 468 LINE",
"552 614 LINE",
"105 614 LINE",
"96 569 LINE",
"172 546 LINE",
"79 69 LINE",
"-5 45 LINE",
"-13 0 LINE",
"452 0 LINE",
"483 162 LINE",
"430 162 LINE",
"388 69 LINE",
"215 69 LINE",
"256 281 LINE",
"357 281 LINE",
"362 212 LINE",
"412 212 LINE",
"449 403 LINE",
"399 403 LINE"
);
},
{
closed = 1;
nodes = (
"224 679 LINE",
"485 679 LINE",
"496 758 LINE",
"235 758 LINE"
);
}
);
};
layerId = "91FB354D-039B-406A-8F87-4ABC8510003D";
paths = (
{
closed = 1;
nodes = (
"370 337 LINE",
"267 337 LINE",
"308 546 LINE",
"466 546 LINE",
"471 468 LINE",
"524 468 LINE",
"552 614 LINE",
"105 614 LINE",
"96 569 LINE",
"172 546 LINE",
"79 69 LINE",
"-5 45 LINE",
"-13 0 LINE",
"452 0 LINE",
"483 162 LINE",
"430 162 LINE",
"388 69 LINE",
"215 69 LINE",
"256 281 LINE",
"357 281 LINE",
"362 212 LINE",
"412 212 LINE",
"449 403 LINE",
"399 403 LINE"
);
},
{
closed = 1;
nodes = (
"224 679 LINE",
"485 679 LINE",
"496 758 LINE",
"235 758 LINE"
);
}
);
width = 536;
}
);
rightKerningGroup = E;
unicode = 0112;
},
{
color = 11;
glyphname = Eogonek;
lastChange = "2015-02-19 03:26:13 +0000";
layers = (
{
background = {
paths = (
{
closed = 1;
nodes = (
"394 0 LINE",
"311 -60 OFFCURVE",
"279 -121 OFFCURVE",
"279 -165 CURVE SMOOTH",
"279 -203 OFFCURVE",
"302 -236 OFFCURVE",
"362 -236 CURVE SMOOTH",
"426 -236 OFFCURVE",
"463 -186 OFFCURVE",
"463 -186 CURVE",
"449 -170 LINE",
"431 -186 OFFCURVE",
"412 -192 OFFCURVE",
"396 -192 CURVE SMOOTH",
"366 -192 OFFCURVE",
"348 -176 OFFCURVE",
"348 -145 CURVE SMOOTH",
"348 -91 OFFCURVE",
"391 -33 OFFCURVE",
"428 0 CURVE",
"456 147 LINE",
"419 147 LINE",
"377 56 LINE",
"174 56 LINE",
"217 277 LINE",
"350 277 LINE",
"360 208 LINE",
"394 208 LINE",
"429 389 LINE",
"395 389 LINE",
"362 323 LINE",
"226 323 LINE",
"271 559 LINE",
"460 559 LINE",
"460 479 LINE",
"498 479 LINE",
"523 611 LINE",
"114 611 LINE",
"108 578 LINE",
"193 558 LINE",
"95 53 LINE",
"2 33 LINE",
"-4 0 LINE"
);
}
);
};
layerId = "27799D80-F866-457E-9382-0097DC0AFC53";
paths = (
{
closed = 1;
nodes = (
"394 0 LINE",
"311 -60 OFFCURVE",
"279 -121 OFFCURVE",
"279 -165 CURVE SMOOTH",
"279 -203 OFFCURVE",
"302 -236 OFFCURVE",
"362 -236 CURVE SMOOTH",
"426 -236 OFFCURVE",
"463 -186 OFFCURVE",
"463 -186 CURVE",
"449 -170 LINE",
"431 -186 OFFCURVE",
"412 -192 OFFCURVE",
"396 -192 CURVE SMOOTH",
"366 -192 OFFCURVE",
"348 -176 OFFCURVE",
"348 -145 CURVE SMOOTH",
"348 -91 OFFCURVE",
"391 -33 OFFCURVE",
"428 0 CURVE",
"456 147 LINE",
"419 147 LINE",
"377 56 LINE",
"174 56 LINE",
"217 277 LINE",
"350 277 LINE",
"360 208 LINE",
"394 208 LINE",
"429 389 LINE",
"395 389 LINE",
"362 323 LINE",
"226 323 LINE",
"271 559 LINE",
"460 559 LINE",
"460 479 LINE",
"498 479 LINE",
"523 611 LINE",
"114 611 LINE",
"108 578 LINE",
"193 558 LINE",
"95 53 LINE",
"2 33 LINE",
"-4 0 LINE"
);
}
);
width = 539;
},
{
background = {
paths = (
{
closed = 1;
nodes = (
"403 0 LINE",
"324 -58 OFFCURVE",
"291 -120 OFFCURVE",
"291 -160 CURVE SMOOTH",
"291 -198 OFFCURVE",
"312 -236 OFFCURVE",
"383 -236 CURVE SMOOTH",
"459 -236 OFFCURVE",
"501 -174 OFFCURVE",
"501 -174 CURVE",
"481 -152 LINE",
"459 -166 OFFCURVE",
"439 -174 OFFCURVE",
"417 -174 CURVE SMOOTH",
"390 -174 OFFCURVE",
"379 -159 OFFCURVE",
"379 -133 CURVE SMOOTH",
"379 -100 OFFCURVE",
"414 -31 OFFCURVE",
"448 0 CURVE",
"452 0 LINE",
"483 162 LINE",
"430 162 LINE",
"388 69 LINE",
"215 69 LINE",
"256 281 LINE",
"357 281 LINE",
"362 212 LINE",
"412 212 LINE",
"449 403 LINE",
"399 403 LINE",
"370 337 LINE",
"267 337 LINE",
"308 546 LINE",
"466 546 LINE",
"471 468 LINE",
"524 468 LINE",
"552 614 LINE",
"105 614 LINE",
"96 569 LINE",
"172 546 LINE",
"79 69 LINE",
"-5 45 LINE",
"-13 0 LINE"
);
}
);
};
layerId = "91FB354D-039B-406A-8F87-4ABC8510003D";
paths = (
{
closed = 1;
nodes = (
"403 0 LINE",
"324 -58 OFFCURVE",
"291 -120 OFFCURVE",
"291 -160 CURVE SMOOTH",
"291 -198 OFFCURVE",
"312 -236 OFFCURVE",
"383 -236 CURVE SMOOTH",
"459 -236 OFFCURVE",
"501 -174 OFFCURVE",
"501 -174 CURVE",
"481 -152 LINE",
"459 -166 OFFCURVE",
"439 -174 OFFCURVE",
"417 -174 CURVE SMOOTH",
"390 -174 OFFCURVE",
"379 -159 OFFCURVE",
"379 -133 CURVE SMOOTH",
"379 -100 OFFCURVE",
"414 -31 OFFCURVE",
"448 0 CURVE",
"452 0 LINE",
"483 162 LINE",
"430 162 LINE",
"388 69 LINE",
"215 69 LINE",
"256 281 LINE",
"357 281 LINE",
"362 212 LINE",
"412 212 LINE",
"449 403 LINE",
"399 403 LINE",
"370 337 LINE",
"267 337 LINE",
"308 546 LINE",
"466 546 LINE",
"471 468 LINE",
"524 468 LINE",
"552 614 LINE",
"105 614 LINE",
"96 569 LINE",
"172 546 LINE",
"79 69 LINE",
"-5 45 LINE",
"-13 0 LINE"
);
}
);
width = 536;
}
);
rightKerningGroup = E;
unicode = 0118;
},
{
color = 11;
glyphname = Etilde;
lastChange = "2015-02-19 03:26:13 +0000";
layers = (
{
background = {
paths = (
{
closed = 1;
nodes = (
"362 323 LINE",
"226 323 LINE",
"271 559 LINE",
"460 559 LINE",
"460 479 LINE",
"498 479 LINE",
"523 611 LINE",
"114 611 LINE",
"108 578 LINE",
"193 558 LINE",
"95 53 LINE",
"2 33 LINE",
"-4 0 LINE",
"428 0 LINE",
"456 147 LINE",
"419 147 LINE",
"377 56 LINE",
"174 56 LINE",
"217 277 LINE",
"350 277 LINE",
"360 208 LINE",
"394 208 LINE",
"429 389 LINE",
"395 389 LINE"
);
},
{
closed = 1;
nodes = (
"477 777 LINE",
"477 777 OFFCURVE",
"457 742 OFFCURVE",
"434 742 CURVE SMOOTH",
"399 742 OFFCURVE",
"316 782 OFFCURVE",
"282 782 CURVE SMOOTH",
"249 782 OFFCURVE",
"227 738 OFFCURVE",
"206 686 CURVE",
"236 674 LINE",
"236 674 OFFCURVE",
"259 710 OFFCURVE",
"281 710 CURVE SMOOTH",
"314 710 OFFCURVE",
"399 670 OFFCURVE",
"433 670 CURVE SMOOTH",
"465 670 OFFCURVE",
"487 714 OFFCURVE",
"508 765 CURVE"
);
}
);
};
layerId = "27799D80-F866-457E-9382-0097DC0AFC53";
paths = (
{
closed = 1;
nodes = (
"362 323 LINE",
"226 323 LINE",
"271 559 LINE",
"460 559 LINE",
"460 479 LINE",
"498 479 LINE",
"523 611 LINE",
"114 611 LINE",
"108 578 LINE",
"193 558 LINE",
"95 53 LINE",
"2 33 LINE",
"-4 0 LINE",
"428 0 LINE",
"456 147 LINE",
"419 147 LINE",
"377 56 LINE",
"174 56 LINE",
"217 277 LINE",
"350 277 LINE",
"360 208 LINE",
"394 208 LINE",
"429 389 LINE",
"395 389 LINE"
);
},
{
closed = 1;
nodes = (
"477 777 LINE",
"477 777 OFFCURVE",
"457 742 OFFCURVE",
"434 742 CURVE SMOOTH",
"399 742 OFFCURVE",
"316 782 OFFCURVE",
"282 782 CURVE SMOOTH",
"249 782 OFFCURVE",
"227 738 OFFCURVE",
"206 686 CURVE",
"236 674 LINE",
"236 674 OFFCURVE",
"259 710 OFFCURVE",
"281 710 CURVE SMOOTH",
"314 710 OFFCURVE",
"399 670 OFFCURVE",
"433 670 CURVE SMOOTH",
"465 670 OFFCURVE",
"487 714 OFFCURVE",
"508 765 CURVE"
);
}
);
width = 539;
},
{
background = {
paths = (
{
closed = 1;
nodes = (
"369 337 LINE",
"266 337 LINE",
"307 546 LINE",
"465 546 LINE",
"470 468 LINE",
"523 468 LINE",
"551 614 LINE",
"104 614 LINE",
"95 569 LINE",
"171 546 LINE",
"78 69 LINE",
"-6 45 LINE",
"-14 0 LINE",
"451 0 LINE",
"482 162 LINE",
"429 162 LINE",
"387 69 LINE",
"214 69 LINE",
"255 281 LINE",
"356 281 LINE",
"361 212 LINE",
"411 212 LINE",
"448 403 LINE",
"398 403 LINE"
);
},
{
closed = 1;
nodes = (
"499 778 LINE",
"499 778 OFFCURVE",
"482 747 OFFCURVE",
"457 747 CURVE SMOOTH",
"418 747 OFFCURVE",
"330 784 OFFCURVE",
"281 784 CURVE SMOOTH",
"248 784 OFFCURVE",
"214 738 OFFCURVE",
"194 680 CURVE",
"241 661 LINE",
"241 661 OFFCURVE",
"257 692 OFFCURVE",
"281 692 CURVE SMOOTH",
"319 692 OFFCURVE",
"408 655 OFFCURVE",
"457 655 CURVE SMOOTH",
"491 655 OFFCURVE",
"519 701 OFFCURVE",
"543 759 CURVE"
);
}
);
};
layerId = "91FB354D-039B-406A-8F87-4ABC8510003D";
paths = (
{
closed = 1;
nodes = (
"369 337 LINE",
"266 337 LINE",
"307 546 LINE",
"465 546 LINE",
"470 468 LINE",
"523 468 LINE",
"551 614 LINE",
"104 614 LINE",
"95 569 LINE",
"171 546 LINE",
"78 69 LINE",
"-6 45 LINE",
"-14 0 LINE",
"451 0 LINE",
"482 162 LINE",
"429 162 LINE",
"387 69 LINE",
"214 69 LINE",
"255 281 LINE",
"356 281 LINE",
"361 212 LINE",
"411 212 LINE",
"448 403 LINE",
"398 403 LINE"
);
},
{
closed = 1;
nodes = (
"499 778 LINE",
"499 778 OFFCURVE",
"482 747 OFFCURVE",
"457 747 CURVE SMOOTH",
"418 747 OFFCURVE",
"330 784 OFFCURVE",
"281 784 CURVE SMOOTH",
"248 784 OFFCURVE",
"214 738 OFFCURVE",
"194 680 CURVE",
"241 661 LINE",
"241 661 OFFCURVE",
"257 692 OFFCURVE",
"281 692 CURVE SMOOTH",
"319 692 OFFCURVE",
"408 655 OFFCURVE",
"457 655 CURVE SMOOTH",
"491 655 OFFCURVE",
"519 701 OFFCURVE",
"543 759 CURVE"
);
}
);
width = 536;
}
);
rightKerningGroup = E;
unicode = 1EBC;
},
{
color = 11;
glyphname = F;
lastChange = "2015-02-19 03:26:13 +0000";
layers = (
{
anchors = (
{
name = bottom;
position = "{198, 0}";
},
{
name = top;
position = "{317, 611}";
}
);
background = {
paths = (
{
closed = 1;
nodes = (
"107 611 LINE",
"101 578 LINE",
"186 558 LINE",
"88 53 LINE",
"-5 33 LINE",
"-11 0 LINE",
"273 0 LINE",
"279 34 LINE",
"166 54 LINE",
"208 267 LINE",
"344 267 LINE",
"349 198 LINE",
"383 198 LINE",
"418 379 LINE",
"384 379 LINE",
"351 313 LINE",
"217 313 LINE",
"264 559 LINE",
"452 559 LINE",
"452 479 LINE",
"491 479 LINE",
"516 611 LINE"
);
}
);
};
layerId = "27799D80-F866-457E-9382-0097DC0AFC53";
paths = (
{
closed = 1;
nodes = (
"107 611 LINE",
"101 578 LINE",
"186 558 LINE",
"88 53 LINE",
"-5 33 LINE",
"-11 0 LINE",
"273 0 LINE",
"279 34 LINE",
"166 54 LINE",
"208 267 LINE",
"344 267 LINE",
"349 198 LINE",
"383 198 LINE",
"418 379 LINE",
"384 379 LINE",
"351 313 LINE",
"217 313 LINE",
"264 559 LINE",
"452 559 LINE",
"452 479 LINE",
"491 479 LINE",
"516 611 LINE"
);
}
);
width = 491;
},
{
anchors = (
{
name = bottom;
position = "{206, 0}";
},
{
name = top;
position = "{326, 614}";
}
);
background = {
paths = (
{
closed = 1;
nodes = (
"105 614 LINE",
"96 569 LINE",
"172 546 LINE",
"79 69 LINE",
"-5 45 LINE",
"-13 0 LINE",
"292 0 LINE",
"301 47 LINE",
"215 69 LINE",
"253 264 LINE",
"358 264 LINE",
"363 195 LINE",
"413 195 LINE",
"450 386 LINE",
"400 386 LINE",
"371 320 LINE",
"264 320 LINE",
"308 546 LINE",
"471 546 LINE",
"476 468 LINE",
"529 468 LINE",
"557 614 LINE"
);
}
);
};
layerId = "91FB354D-039B-406A-8F87-4ABC8510003D";
paths = (
{
closed = 1;
nodes = (
"105 614 LINE",
"96 569 LINE",
"172 546 LINE",
"79 69 LINE",
"-5 45 LINE",
"-13 0 LINE",
"292 0 LINE",
"301 47 LINE",
"215 69 LINE",
"253 264 LINE",
"358 264 LINE",
"363 195 LINE",
"413 195 LINE",
"450 386 LINE",
"400 386 LINE",
"371 320 LINE",
"264 320 LINE",
"308 546 LINE",
"471 546 LINE",
"476 468 LINE",
"529 468 LINE",
"557 614 LINE"
);
}
);
width = 507;
}
);
unicode = 0046;
},
{
color = 11;
glyphname = G;
lastChange = "2015-02-19 03:26:13 +0000";
layers = (
{
anchors = (
{
name = bottom;
position = "{246, 0}";
},
{
name = top;
position = "{365, 611}";
}
);
background = {
paths = (
{
closed = 1;
nodes = (
"487 470 LINE",
"522 470 LINE",
"561 597 LINE",
"522 618 OFFCURVE",
"449 627 OFFCURVE",
"398 627 CURVE SMOOTH",
"151 627 OFFCURVE",
"35 423 OFFCURVE",
"35 209 CURVE SMOOTH",
"35 83 OFFCURVE",
"97 -11 OFFCURVE",
"268 -11 CURVE SMOOTH",
"336 -11 OFFCURVE",
"398 4 OFFCURVE",
"446 31 CURVE",
"485 234 LINE",
"556 254 LINE",
"562 288 LINE",
"333 288 LINE",
"327 254 LINE",
"407 234 LINE",
"372 56 LINE",
"344 42 OFFCURVE",
"314 37 OFFCURVE",
"281 37 CURVE SMOOTH",
"159 37 OFFCURVE",
"125 126 OFFCURVE",
"125 219 CURVE SMOOTH",
"125 314 OFFCURVE",
"169 578 OFFCURVE",
"389 578 CURVE SMOOTH",
"427 578 OFFCURVE",
"461 573 OFFCURVE",
"483 567 CURVE"
);
}
);
};
layerId = "27799D80-F866-457E-9382-0097DC0AFC53";
paths = (
{
closed = 1;
nodes = (
"487 470 LINE",
"522 470 LINE",
"561 597 LINE",
"522 618 OFFCURVE",
"449 627 OFFCURVE",
"398 627 CURVE SMOOTH",
"151 627 OFFCURVE",
"35 423 OFFCURVE",
"35 209 CURVE SMOOTH",
"35 83 OFFCURVE",
"97 -11 OFFCURVE",
"268 -11 CURVE SMOOTH",
"336 -11 OFFCURVE",
"398 4 OFFCURVE",
"446 31 CURVE",
"485 234 LINE",
"556 254 LINE",
"562 288 LINE",
"333 288 LINE",
"327 254 LINE",
"407 234 LINE",
"372 56 LINE",
"344 42 OFFCURVE",
"314 37 OFFCURVE",
"281 37 CURVE SMOOTH",
"159 37 OFFCURVE",
"125 126 OFFCURVE",
"125 219 CURVE SMOOTH",
"125 314 OFFCURVE",
"169 578 OFFCURVE",
"389 578 CURVE SMOOTH",
"427 578 OFFCURVE",
"461 573 OFFCURVE",
"483 567 CURVE"
);
}
);
width = 587;
},
{
anchors = (
{
name = bottom;
position = "{248, 0}";
},
{
name = top;
position = "{368, 614}";
}
);
background = {
paths = (
{
closed = 1;
nodes = (
"486 444 LINE",
"541 444 LINE",
"580 598 LINE",
"540 614 OFFCURVE",
"473 628 OFFCURVE",
"392 628 CURVE SMOOTH",
"155 628 OFFCURVE",
"36 437 OFFCURVE",
"36 218 CURVE SMOOTH",
"36 65 OFFCURVE",
"100 -10 OFFCURVE",
"270 -10 CURVE SMOOTH",
"360 -10 OFFCURVE",
"440 11 OFFCURVE",
"485 34 CURVE",
"522 223 LINE",
"583 242 LINE",
"592 289 LINE",
"331 289 LINE",
"322 244 LINE",
"396 221 LINE",
"366 66 LINE",
"339 59 OFFCURVE",
"312 59 OFFCURVE",
"295 59 CURVE SMOOTH",
"199 59 OFFCURVE",
"184 128 OFFCURVE",
"184 211 CURVE SMOOTH",
"184 351 OFFCURVE",
"216 560 OFFCURVE",
"380 560 CURVE SMOOTH",
"428 560 OFFCURVE",
"458 551 OFFCURVE",
"479 545 CURVE"
);
}
);
};
layerId = "91FB354D-039B-406A-8F87-4ABC8510003D";
paths = (
{
closed = 1;
nodes = (
"486 444 LINE",
"541 444 LINE",
"580 598 LINE",
"540 614 OFFCURVE",
"473 628 OFFCURVE",
"392 628 CURVE SMOOTH",
"155 628 OFFCURVE",
"36 437 OFFCURVE",
"36 218 CURVE SMOOTH",
"36 65 OFFCURVE",
"100 -10 OFFCURVE",
"270 -10 CURVE SMOOTH",
"360 -10 OFFCURVE",
"440 11 OFFCURVE",
"485 34 CURVE",
"522 223 LINE",
"583 242 LINE",
"592 289 LINE",
"331 289 LINE",
"322 244 LINE",
"396 221 LINE",
"366 66 LINE",
"339 59 OFFCURVE",
"312 59 OFFCURVE",
"295 59 CURVE SMOOTH",
"199 59 OFFCURVE",
"184 128 OFFCURVE",
"184 211 CURVE SMOOTH",
"184 351 OFFCURVE",
"216 560 OFFCURVE",
"380 560 CURVE SMOOTH",
"428 560 OFFCURVE",
"458 551 OFFCURVE",
"479 545 CURVE"
);
}
);
width = 592;
}
);
leftKerningGroup = G;
rightKerningGroup = G;
unicode = 0047;
},
{
color = 11;
glyphname = Gbreve;
lastChange = "2015-02-19 03:26:13 +0000";
layers = (
{
background = {
paths = (
{
closed = 1;
nodes = (
"478 470 LINE",
"513 470 LINE",
"552 597 LINE",
"513 618 OFFCURVE",
"440 627 OFFCURVE",
"389 627 CURVE SMOOTH",
"142 627 OFFCURVE",
"26 423 OFFCURVE",
"26 209 CURVE SMOOTH",
"26 83 OFFCURVE",
"88 -11 OFFCURVE",
"259 -11 CURVE SMOOTH",
"327 -11 OFFCURVE",
"389 4 OFFCURVE",
"437 31 CURVE",
"476 234 LINE",
"547 254 LINE",
"553 288 LINE",
"324 288 LINE",
"318 254 LINE",
"398 234 LINE",
"363 56 LINE",
"335 42 OFFCURVE",
"305 37 OFFCURVE",
"272 37 CURVE SMOOTH",
"150 37 OFFCURVE",
"116 126 OFFCURVE",
"116 219 CURVE SMOOTH",
"116 314 OFFCURVE",
"160 578 OFFCURVE",
"380 578 CURVE SMOOTH",
"418 578 OFFCURVE",
"452 573 OFFCURVE",
"474 567 CURVE"
);
},
{
closed = 1;
nodes = (
"471 669 OFFCURVE",
"505 726 OFFCURVE",
"517 785 CURVE",
"484 785 LINE",
"478 753 OFFCURVE",
"456 723 OFFCURVE",
"386 723 CURVE SMOOTH",
"328 723 OFFCURVE",
"316 744 OFFCURVE",
"314 769 CURVE",
"314 774 OFFCURVE",
"315 780 OFFCURVE",
"317 785 CURVE",
"283 785 LINE",
"281 776 OFFCURVE",
"278 765 OFFCURVE",
"278 756 CURVE SMOOTH",
"278 708 OFFCURVE",
"300 669 OFFCURVE",
"379 669 CURVE SMOOTH"
);
}
);
};
layerId = "27799D80-F866-457E-9382-0097DC0AFC53";
paths = (
{
closed = 1;
nodes = (
"478 470 LINE",
"513 470 LINE",
"552 597 LINE",
"513 618 OFFCURVE",
"440 627 OFFCURVE",
"389 627 CURVE SMOOTH",
"142 627 OFFCURVE",
"26 423 OFFCURVE",
"26 209 CURVE SMOOTH",
"26 83 OFFCURVE",
"88 -11 OFFCURVE",
"259 -11 CURVE SMOOTH",
"327 -11 OFFCURVE",
"389 4 OFFCURVE",
"437 31 CURVE",
"476 234 LINE",
"547 254 LINE",
"553 288 LINE",
"324 288 LINE",
"318 254 LINE",
"398 234 LINE",
"363 56 LINE",
"335 42 OFFCURVE",
"305 37 OFFCURVE",
"272 37 CURVE SMOOTH",
"150 37 OFFCURVE",
"116 126 OFFCURVE",
"116 219 CURVE SMOOTH",
"116 314 OFFCURVE",
"160 578 OFFCURVE",
"380 578 CURVE SMOOTH",
"418 578 OFFCURVE",
"452 573 OFFCURVE",
"474 567 CURVE"
);
},
{
closed = 1;
nodes = (
"471 669 OFFCURVE",
"505 726 OFFCURVE",
"517 785 CURVE",
"484 785 LINE",
"478 753 OFFCURVE",
"456 723 OFFCURVE",
"386 723 CURVE SMOOTH",
"328 723 OFFCURVE",
"316 744 OFFCURVE",
"314 769 CURVE",
"314 774 OFFCURVE",
"315 780 OFFCURVE",
"317 785 CURVE",
"283 785 LINE",
"281 776 OFFCURVE",
"278 765 OFFCURVE",
"278 756 CURVE SMOOTH",
"278 708 OFFCURVE",
"300 669 OFFCURVE",
"379 669 CURVE SMOOTH"
);
}
);
width = 580;
},
{
background = {
paths = (
{
closed = 1;
nodes = (
"486 444 LINE",
"541 444 LINE",
"580 598 LINE",
"540 614 OFFCURVE",
"473 628 OFFCURVE",
"392 628 CURVE SMOOTH",
"155 628 OFFCURVE",
"36 437 OFFCURVE",
"36 218 CURVE SMOOTH",
"36 65 OFFCURVE",
"100 -10 OFFCURVE",
"270 -10 CURVE SMOOTH",
"360 -10 OFFCURVE",
"440 11 OFFCURVE",
"485 34 CURVE",
"522 223 LINE",
"583 242 LINE",
"592 289 LINE",
"331 289 LINE",
"322 244 LINE",
"396 221 LINE",
"366 66 LINE",
"339 59 OFFCURVE",
"312 59 OFFCURVE",
"295 59 CURVE SMOOTH",
"199 59 OFFCURVE",
"184 128 OFFCURVE",
"184 211 CURVE SMOOTH",
"184 351 OFFCURVE",
"216 560 OFFCURVE",
"380 560 CURVE SMOOTH",
"428 560 OFFCURVE",
"458 551 OFFCURVE",
"479 545 CURVE"
);
},
{
closed = 1;
nodes = (
"484 651 OFFCURVE",
"515 718 OFFCURVE",
"529 788 CURVE",
"475 788 LINE",
"467 758 OFFCURVE",
"457 727 OFFCURVE",
"393 727 CURVE SMOOTH",
"346 727 OFFCURVE",
"341 747 OFFCURVE",
"341 770 CURVE SMOOTH",
"341 775 OFFCURVE",
"342 783 OFFCURVE",
"343 788 CURVE",
"287 788 LINE",
"282 774 OFFCURVE",
"278 755 OFFCURVE",
"278 740 CURVE SMOOTH",
"278 691 OFFCURVE",
"303 651 OFFCURVE",
"381 651 CURVE SMOOTH"
);
}
);
};
layerId = "91FB354D-039B-406A-8F87-4ABC8510003D";
paths = (
{
closed = 1;
nodes = (
"486 444 LINE",
"541 444 LINE",
"580 598 LINE",
"540 614 OFFCURVE",
"473 628 OFFCURVE",
"392 628 CURVE SMOOTH",
"155 628 OFFCURVE",
"36 437 OFFCURVE",
"36 218 CURVE SMOOTH",
"36 65 OFFCURVE",
"100 -10 OFFCURVE",
"270 -10 CURVE SMOOTH",
"360 -10 OFFCURVE",
"440 11 OFFCURVE",
"485 34 CURVE",
"522 223 LINE",
"583 242 LINE",
"592 289 LINE",
"331 289 LINE",
"322 244 LINE",
"396 221 LINE",
"366 66 LINE",
"339 59 OFFCURVE",
"312 59 OFFCURVE",
"295 59 CURVE SMOOTH",
"199 59 OFFCURVE",
"184 128 OFFCURVE",
"184 211 CURVE SMOOTH",
"184 351 OFFCURVE",
"216 560 OFFCURVE",
"380 560 CURVE SMOOTH",
"428 560 OFFCURVE",
"458 551 OFFCURVE",
"479 545 CURVE"
);
},
{
closed = 1;
nodes = (
"484 651 OFFCURVE",
"515 718 OFFCURVE",
"529 788 CURVE",
"475 788 LINE",
"467 758 OFFCURVE",
"457 727 OFFCURVE",
"393 727 CURVE SMOOTH",
"346 727 OFFCURVE",
"341 747 OFFCURVE",
"341 770 CURVE SMOOTH",
"341 775 OFFCURVE",
"342 783 OFFCURVE",
"343 788 CURVE",
"287 788 LINE",
"282 774 OFFCURVE",
"278 755 OFFCURVE",
"278 740 CURVE SMOOTH",
"278 691 OFFCURVE",
"303 651 OFFCURVE",
"381 651 CURVE SMOOTH"
);
}
);
width = 592;
}
);
leftKerningGroup = G;
rightKerningGroup = G;
unicode = 011E;
},
{
color = 11;
glyphname = Gcommaaccent;
lastChange = "2015-02-19 03:26:13 +0000";
layers = (
{
background = {
paths = (
{
closed = 1;
nodes = (
"478 470 LINE",
"513 470 LINE",
"552 597 LINE",
"513 618 OFFCURVE",
"440 627 OFFCURVE",
"389 627 CURVE SMOOTH",
"142 627 OFFCURVE",
"26 423 OFFCURVE",
"26 209 CURVE SMOOTH",
"26 83 OFFCURVE",
"88 -11 OFFCURVE",
"259 -11 CURVE SMOOTH",
"327 -11 OFFCURVE",
"389 4 OFFCURVE",
"437 31 CURVE",
"476 234 LINE",
"547 254 LINE",
"553 288 LINE",
"324 288 LINE",
"318 254 LINE",
"398 234 LINE",
"363 56 LINE",
"335 42 OFFCURVE",
"305 37 OFFCURVE",
"272 37 CURVE SMOOTH",
"150 37 OFFCURVE",
"116 126 OFFCURVE",
"116 219 CURVE SMOOTH",
"116 314 OFFCURVE",
"160 578 OFFCURVE",
"380 578 CURVE SMOOTH",
"418 578 OFFCURVE",
"452 573 OFFCURVE",
"474 567 CURVE"
);
},
{
closed = 1;
nodes = (
"213 -47 LINE",
"178 -214 LINE",
"203 -221 LINE",
"303 -48 LINE",
"288 -31 LINE"
);
}
);
};
layerId = "27799D80-F866-457E-9382-0097DC0AFC53";
paths = (
{
closed = 1;
nodes = (
"478 470 LINE",
"513 470 LINE",
"552 597 LINE",
"513 618 OFFCURVE",
"440 627 OFFCURVE",
"389 627 CURVE SMOOTH",
"142 627 OFFCURVE",
"26 423 OFFCURVE",
"26 209 CURVE SMOOTH",
"26 83 OFFCURVE",
"88 -11 OFFCURVE",
"259 -11 CURVE SMOOTH",
"327 -11 OFFCURVE",
"389 4 OFFCURVE",
"437 31 CURVE",
"476 234 LINE",
"547 254 LINE",
"553 288 LINE",
"324 288 LINE",
"318 254 LINE",
"398 234 LINE",
"363 56 LINE",
"335 42 OFFCURVE",
"305 37 OFFCURVE",
"272 37 CURVE SMOOTH",
"150 37 OFFCURVE",
"116 126 OFFCURVE",
"116 219 CURVE SMOOTH",
"116 314 OFFCURVE",
"160 578 OFFCURVE",
"380 578 CURVE SMOOTH",
"418 578 OFFCURVE",
"452 573 OFFCURVE",
"474 567 CURVE"
);
},
{
closed = 1;
nodes = (
"213 -47 LINE",
"178 -214 LINE",
"203 -221 LINE",
"303 -48 LINE",
"288 -31 LINE"
);
}
);
width = 580;
},
{
background = {
paths = (
{
closed = 1;
nodes = (
"486 444 LINE",
"541 444 LINE",
"580 598 LINE",
"540 614 OFFCURVE",
"473 628 OFFCURVE",
"392 628 CURVE SMOOTH",
"155 628 OFFCURVE",
"36 437 OFFCURVE",
"36 218 CURVE SMOOTH",
"36 65 OFFCURVE",
"100 -10 OFFCURVE",
"270 -10 CURVE SMOOTH",
"360 -10 OFFCURVE",
"440 11 OFFCURVE",
"485 34 CURVE",
"522 223 LINE",
"583 242 LINE",
"592 289 LINE",
"331 289 LINE",
"322 244 LINE",
"396 221 LINE",
"366 66 LINE",
"339 59 OFFCURVE",
"312 59 OFFCURVE",
"295 59 CURVE SMOOTH",
"199 59 OFFCURVE",
"184 128 OFFCURVE",
"184 211 CURVE SMOOTH",
"184 351 OFFCURVE",
"216 560 OFFCURVE",
"380 560 CURVE SMOOTH",
"428 560 OFFCURVE",
"458 551 OFFCURVE",
"479 545 CURVE"
);
},
{
closed = 1;
nodes = (
"336 -48 LINE",
"314 -24 LINE",
"222 -44 LINE",
"186 -225 LINE",
"226 -236 LINE"
);
}
);
};
layerId = "91FB354D-039B-406A-8F87-4ABC8510003D";
paths = (
{
closed = 1;
nodes = (
"486 444 LINE",
"541 444 LINE",
"580 598 LINE",
"540 614 OFFCURVE",
"473 628 OFFCURVE",
"392 628 CURVE SMOOTH",
"155 628 OFFCURVE",
"36 437 OFFCURVE",
"36 218 CURVE SMOOTH",
"36 65 OFFCURVE",
"100 -10 OFFCURVE",
"270 -10 CURVE SMOOTH",
"360 -10 OFFCURVE",
"440 11 OFFCURVE",
"485 34 CURVE",
"522 223 LINE",
"583 242 LINE",
"592 289 LINE",
"331 289 LINE",
"322 244 LINE",
"396 221 LINE",
"366 66 LINE",
"339 59 OFFCURVE",
"312 59 OFFCURVE",
"295 59 CURVE SMOOTH",
"199 59 OFFCURVE",
"184 128 OFFCURVE",
"184 211 CURVE SMOOTH",
"184 351 OFFCURVE",
"216 560 OFFCURVE",
"380 560 CURVE SMOOTH",
"428 560 OFFCURVE",
"458 551 OFFCURVE",
"479 545 CURVE"
);
},
{
closed = 1;
nodes = (
"336 -48 LINE",
"314 -24 LINE",
"222 -44 LINE",
"186 -225 LINE",
"226 -236 LINE"
);
}
);
width = 592;
}
);
leftKerningGroup = G;
rightKerningGroup = G;
unicode = 0122;
},
{
color = 11;
glyphname = H;
lastChange = "2015-02-19 03:26:13 +0000";
layers = (
{
anchors = (
{
name = bottom;
position = "{282, 0}";
},
{
name = center;
position = "{366, 306}";
},
{
name = top;
position = "{401, 611}";
}
);
background = {
paths = (
{
closed = 1;
nodes = (
"253 559 LINE",
"336 578 LINE",
"341 611 LINE",
"106 611 LINE",
"101 578 LINE",
"175 559 LINE",
"77 53 LINE",
"-5 33 LINE",
"-11 0 LINE",
"224 0 LINE",
"230 33 LINE",
"155 53 LINE",
"199 280 LINE",
"466 280 LINE",
"422 53 LINE",
"340 33 LINE",
"334 0 LINE",
"570 0 LINE",
"576 33 LINE",
"500 53 LINE",
"598 559 LINE",
"680 578 LINE",
"686 611 LINE",
"451 611 LINE",
"445 578 LINE",
"520 559 LINE",
"475 329 LINE",
"208 329 LINE"
);
}
);
};
layerId = "27799D80-F866-457E-9382-0097DC0AFC53";
paths = (
{
closed = 1;
nodes = (
"253 559 LINE",
"336 578 LINE",
"341 611 LINE",
"106 611 LINE",
"101 578 LINE",
"175 559 LINE",
"77 53 LINE",
"-5 33 LINE",
"-11 0 LINE",
"224 0 LINE",
"230 33 LINE",
"155 53 LINE",
"199 280 LINE",
"466 280 LINE",
"422 53 LINE",
"340 33 LINE",
"334 0 LINE",
"570 0 LINE",
"576 33 LINE",
"500 53 LINE",
"598 559 LINE",
"680 578 LINE",
"686 611 LINE",
"451 611 LINE",
"445 578 LINE",
"520 559 LINE",
"475 329 LINE",
"208 329 LINE"
);
}
);
width = 660;
},
{
anchors = (
{
name = bottom;
position = "{305, 0}";
},
{
name = center;
position = "{389, 307}";
},
{
name = top;
position = "{425, 614}";
}
);
background = {
paths = (
{
closed = 1;
nodes = (
"628 0 LINE",
"636 45 LINE",
"561 69 LINE",
"654 546 LINE",
"738 569 LINE",
"747 614 LINE",
"451 614 LINE",
"442 569 LINE",
"518 546 LINE",
"478 338 LINE",
"266 338 LINE",
"306 546 LINE",
"390 569 LINE",
"399 614 LINE",
"103 614 LINE",
"94 569 LINE",
"170 546 LINE",
"77 69 LINE",
"-7 45 LINE",
"-15 0 LINE",
"280 0 LINE",
"288 45 LINE",
"213 69 LINE",
"253 272 LINE",
"465 272 LINE",
"425 69 LINE",
"341 45 LINE",
"333 0 LINE"
);
}
);
};
layerId = "91FB354D-039B-406A-8F87-4ABC8510003D";
paths = (
{
closed = 1;
nodes = (
"628 0 LINE",
"636 45 LINE",
"561 69 LINE",
"654 546 LINE",
"738 569 LINE",
"747 614 LINE",
"451 614 LINE",
"442 569 LINE",
"518 546 LINE",
"478 338 LINE",
"266 338 LINE",
"306 546 LINE",
"390 569 LINE",
"399 614 LINE",
"103 614 LINE",
"94 569 LINE",
"170 546 LINE",
"77 69 LINE",
"-7 45 LINE",
"-15 0 LINE",
"280 0 LINE",
"288 45 LINE",
"213 69 LINE",
"253 272 LINE",
"465 272 LINE",
"425 69 LINE",
"341 45 LINE",
"333 0 LINE"
);
}
);
width = 705;
}
);
unicode = 0048;
},
{
color = 0;
glyphname = Hbar;
lastChange = "2015-02-19 03:49:03 +0000";
layers = (
{
anchors = (
{
name = bottom;
position = "{282, 0}";
},
{
name = center;
position = "{335, 276}";
},
{
name = top;
position = "{401, 611}";
}
);
background = {
paths = (
{
closed = 1;
nodes = (
"371 33 LINE",
"365 0 LINE",
"627 0 LINE",
"633 33 LINE",
"547 53 LINE",
"645 559 LINE",
"738 578 LINE",
"744 611 LINE",
"483 611 LINE",
"477 578 LINE",
"562 559 LINE",
"512 299 LINE",
"210 299 LINE",
"260 559 LINE",
"353 578 LINE",
"359 611 LINE",
"98 611 LINE",
"92 578 LINE",
"177 559 LINE",
"79 53 LINE",
"-14 33 LINE",
"-20 0 LINE",
"241 0 LINE",
"247 33 LINE",
"162 53 LINE",
"200 250 LINE",
"502 250 LINE",
"464 53 LINE"
);
},
{
closed = 1;
nodes = (
"59 393 LINE",
"699 393 LINE",
"708 439 LINE",
"68 439 LINE"
);
}
);
};
guideLines = (
{
angle = 79;
position = "{61, 379}";
},
{
angle = 79;
position = "{641, 379}";
},
{
angle = 79;
position = "{355, 379}";
}
);
layerId = "27799D80-F866-457E-9382-0097DC0AFC53";
paths = (
{
closed = 1;
nodes = (
"422 53 LINE",
"340 33 LINE",
"334 0 LINE",
"570 0 LINE",
"576 33 LINE",
"500 53 LINE",
"598 559 LINE",
"680 578 LINE",
"686 611 LINE",
"451 611 LINE",
"445 578 LINE",
"520 559 LINE"
);
},
{
closed = 1;
nodes = (
"253 559 LINE",
"336 578 LINE",
"341 611 LINE",
"106 611 LINE",
"101 578 LINE",
"175 559 LINE",
"77 53 LINE",
"-5 33 LINE",
"-11 0 LINE",
"224 0 LINE",
"230 33 LINE",
"155 53 LINE"
);
},
{
closed = 1;
nodes = (
"487 299 LINE",
"196 299 LINE",
"187 250 LINE",
"478 250 LINE"
);
},
{
closed = 1;
nodes = (
"67 393 LINE",
"641 393 LINE",
"650 439 LINE",
"76 439 LINE"
);
}
);
width = 660;
},
{
anchors = (
{
name = bottom;
position = "{305, 0}";
},
{
name = center;
position = "{359, 275}";
},
{
name = top;
position = "{425, 614}";
}
);
background = {
paths = (
{
closed = 1;
nodes = (
"641 0 LINE",
"650 45 LINE",
"570 69 LINE",
"662 546 LINE",
"752 569 LINE",
"761 614 LINE",
"455 614 LINE",
"446 569 LINE",
"527 546 LINE",
"481 305 LINE",
"255 305 LINE",
"301 546 LINE",
"391 569 LINE",
"400 614 LINE",
"95 614 LINE",
"86 569 LINE",
"166 546 LINE",
"74 69 LINE",
"-16 45 LINE",
"-25 0 LINE",
"280 0 LINE",
"289 45 LINE",
"209 69 LINE",
"243 246 LINE",
"469 246 LINE",
"435 69 LINE",
"345 45 LINE",
"336 0 LINE"
);
},
{
closed = 1;
nodes = (
"55 390 LINE",
"713 390 LINE",
"724 445 LINE",
"66 445 LINE"
);
}
);
};
guideLines = (
{
angle = 79;
position = "{61, 379}";
},
{
angle = 79;
position = "{697, 379}";
},
{
angle = 79;
position = "{379, 379}";
}
);
layerId = "91FB354D-039B-406A-8F87-4ABC8510003D";
paths = (
{
closed = 1;
nodes = (
"306 546 LINE",
"390 569 LINE",
"399 614 LINE",
"103 614 LINE",
"94 569 LINE",
"170 546 LINE",
"77 69 LINE",
"-7 45 LINE",
"-15 0 LINE",
"280 0 LINE",
"288 45 LINE",
"213 69 LINE"
);
},
{
closed = 1;
nodes = (
"63 390 LINE",
"699 390 LINE",
"710 445 LINE",
"74 445 LINE"
);
},
{
closed = 1;
nodes = (
"492 307 LINE",
"248 307 LINE",
"235 241 LINE",
"479 241 LINE"
);
},
{
closed = 1;
nodes = (
"425 69 LINE",
"341 45 LINE",
"333 0 LINE",
"628 0 LINE",
"636 45 LINE",
"561 69 LINE",
"654 546 LINE",
"738 569 LINE",
"747 614 LINE",
"451 614 LINE",
"442 569 LINE",
"518 546 LINE"
);
}
);
width = 705;
}
);
unicode = 0126;
},
{
color = 11;
glyphname = I;
lastChange = "2015-02-19 03:26:13 +0000";
layers = (
{
anchors = (
{
name = bottom;
position = "{116, 0}";
},
{
name = ogonek;
position = "{247, 10}";
},
{
name = top;
position = "{235, 611}";
}
);
background = {
paths = (
{
closed = 1;
nodes = (
"101 578 LINE",
"181 558 LINE",
"83 53 LINE",
"-5 33 LINE",
"-11 0 LINE",
"236 0 LINE",
"242 33 LINE",
"161 53 LINE",
"259 558 LINE",
"348 578 LINE",
"354 611 LINE",
"107 611 LINE"
);
}
);
};
layerId = "27799D80-F866-457E-9382-0097DC0AFC53";
paths = (
{
closed = 1;
nodes = (
"101 578 LINE",
"181 558 LINE",
"83 53 LINE",
"-5 33 LINE",
"-11 0 LINE",
"236 0 LINE",
"242 33 LINE",
"161 53 LINE",
"259 558 LINE",
"348 578 LINE",
"354 611 LINE",
"107 611 LINE"
);
}
);
width = 328;
},
{
anchors = (
{
name = bottom;
position = "{131, 0}";
},
{
name = ogonek;
position = "{273, 10}";
},
{
name = top;
position = "{251, 614}";
}
);
background = {
paths = (
{
closed = 1;
nodes = (
"308 546 LINE",
"392 569 LINE",
"401 614 LINE",
"105 614 LINE",
"96 569 LINE",
"172 546 LINE",
"79 69 LINE",
"-5 45 LINE",
"-13 0 LINE",
"282 0 LINE",
"290 45 LINE",
"215 69 LINE"
);
}
);
};
layerId = "91FB354D-039B-406A-8F87-4ABC8510003D";
paths = (
{
closed = 1;
nodes = (
"308 546 LINE",
"392 569 LINE",
"401 614 LINE",
"105 614 LINE",
"96 569 LINE",
"172 546 LINE",
"79 69 LINE",
"-5 45 LINE",
"-13 0 LINE",
"282 0 LINE",
"290 45 LINE",
"215 69 LINE"
);
}
);
width = 357;
}
);
unicode = 0049;
},
{
color = 11;
glyphname = Iacute;
lastChange = "2015-02-19 03:26:13 +0000";
layers = (
{
background = {
paths = (
{
closed = 1;
nodes = (
"107 578 LINE",
"187 558 LINE",
"89 53 LINE",
"1 33 LINE",
"-5 0 LINE",
"242 0 LINE",
"248 33 LINE",
"167 53 LINE",
"265 558 LINE",
"354 578 LINE",
"360 611 LINE",
"113 611 LINE"
);
},
{
closed = 1;
nodes = (
"369 754 LINE",
"369 772 LINE",
"293 800 LINE",
"139 670 LINE",
"155 651 LINE"
);
}
);
};
layerId = "27799D80-F866-457E-9382-0097DC0AFC53";
paths = (
{
closed = 1;
nodes = (
"107 578 LINE",
"187 558 LINE",
"89 53 LINE",
"1 33 LINE",
"-5 0 LINE",
"242 0 LINE",
"248 33 LINE",
"167 53 LINE",
"265 558 LINE",
"354 578 LINE",
"360 611 LINE",
"113 611 LINE"
);
},
{
closed = 1;
nodes = (
"369 754 LINE",
"369 772 LINE",
"293 800 LINE",
"139 670 LINE",
"155 651 LINE"
);
}
);
width = 352;
},
{
background = {
paths = (
{
closed = 1;
nodes = (
"308 546 LINE",
"392 569 LINE",
"401 614 LINE",
"105 614 LINE",
"96 569 LINE",
"172 546 LINE",
"79 69 LINE",
"-5 45 LINE",
"-13 0 LINE",
"282 0 LINE",
"290 45 LINE",
"215 69 LINE"
);
},
{
closed = 1;
nodes = (
"411 743 LINE",
"411 766 LINE",
"312 800 LINE",
"156 669 LINE",
"183 634 LINE"
);
}
);
};
layerId = "91FB354D-039B-406A-8F87-4ABC8510003D";
paths = (
{
closed = 1;
nodes = (
"308 546 LINE",
"392 569 LINE",
"401 614 LINE",
"105 614 LINE",
"96 569 LINE",
"172 546 LINE",
"79 69 LINE",
"-5 45 LINE",
"-13 0 LINE",
"282 0 LINE",
"290 45 LINE",
"215 69 LINE"
);
},
{
closed = 1;
nodes = (
"411 743 LINE",
"411 766 LINE",
"312 800 LINE",
"156 669 LINE",
"183 634 LINE"
);
}
);
width = 357;
}
);
unicode = 00CD;
},
{
color = 11;
glyphname = Icircumflex;
lastChange = "2015-02-19 03:26:13 +0000";
layers = (
{
background = {
paths = (
{
closed = 1;
nodes = (
"107 578 LINE",
"187 558 LINE",
"89 53 LINE",
"1 33 LINE",
"-5 0 LINE",
"242 0 LINE",
"248 33 LINE",
"167 53 LINE",
"265 558 LINE",
"354 578 LINE",
"360 611 LINE",
"113 611 LINE"
);
},
{
closed = 1;
nodes = (
"386 669 LINE",
"307 804 LINE",
"247 804 LINE",
"108 669 LINE",
"128 650 LINE",
"266 735 LINE",
"360 650 LINE"
);
}
);
};
layerId = "27799D80-F866-457E-9382-0097DC0AFC53";
paths = (
{
closed = 1;
nodes = (
"107 578 LINE",
"187 558 LINE",
"89 53 LINE",
"1 33 LINE",
"-5 0 LINE",
"242 0 LINE",
"248 33 LINE",
"167 53 LINE",
"265 558 LINE",
"354 578 LINE",
"360 611 LINE",
"113 611 LINE"
);
},
{
closed = 1;
nodes = (
"386 669 LINE",
"307 804 LINE",
"247 804 LINE",
"108 669 LINE",
"128 650 LINE",
"266 735 LINE",
"360 650 LINE"
);
}
);
width = 352;
},
{
background = {
paths = (
{
closed = 1;
nodes = (
"308 546 LINE",
"392 569 LINE",
"401 614 LINE",
"105 614 LINE",
"96 569 LINE",
"172 546 LINE",
"79 69 LINE",
"-5 45 LINE",
"-13 0 LINE",
"282 0 LINE",
"290 45 LINE",
"215 69 LINE"
);
},
{
closed = 1;
nodes = (
"410 665 LINE",
"328 795 LINE",
"243 795 LINE",
"115 669 LINE",
"138 639 LINE",
"272 707 LINE",
"380 639 LINE"
);
}
);
};
layerId = "91FB354D-039B-406A-8F87-4ABC8510003D";
paths = (
{
closed = 1;
nodes = (
"308 546 LINE",
"392 569 LINE",
"401 614 LINE",
"105 614 LINE",
"96 569 LINE",
"172 546 LINE",
"79 69 LINE",
"-5 45 LINE",
"-13 0 LINE",
"282 0 LINE",
"290 45 LINE",
"215 69 LINE"
);
},
{
closed = 1;
nodes = (
"410 665 LINE",
"328 795 LINE",
"243 795 LINE",
"115 669 LINE",
"138 639 LINE",
"272 707 LINE",
"380 639 LINE"
);
}
);
width = 357;
}
);
unicode = 00CE;
},
{
color = 11;
glyphname = Idieresis;
lastChange = "2015-02-19 03:26:13 +0000";
layers = (
{
background = {
paths = (
{
closed = 1;
nodes = (
"107 578 LINE",
"187 558 LINE",
"89 53 LINE",
"1 33 LINE",
"-5 0 LINE",
"242 0 LINE",
"248 33 LINE",
"167 53 LINE",
"265 558 LINE",
"354 578 LINE",
"360 611 LINE",
"113 611 LINE"
);
},
{
closed = 1;
nodes = (
"213 758 OFFCURVE",
"186 784 OFFCURVE",
"156 784 CURVE SMOOTH",
"126 784 OFFCURVE",
"99 758 OFFCURVE",
"99 726 CURVE SMOOTH",
"99 696 OFFCURVE",
"126 671 OFFCURVE",
"156 671 CURVE SMOOTH",
"186 671 OFFCURVE",
"213 696 OFFCURVE",
"213 726 CURVE SMOOTH"
);
},
{
closed = 1;
nodes = (
"408 758 OFFCURVE",
"380 784 OFFCURVE",
"350 784 CURVE SMOOTH",
"320 784 OFFCURVE",
"293 758 OFFCURVE",
"293 726 CURVE SMOOTH",
"293 696 OFFCURVE",
"320 671 OFFCURVE",
"350 671 CURVE SMOOTH",
"380 671 OFFCURVE",
"408 696 OFFCURVE",
"408 726 CURVE SMOOTH"
);
}
);
};
layerId = "27799D80-F866-457E-9382-0097DC0AFC53";
paths = (
{
closed = 1;
nodes = (
"107 578 LINE",
"187 558 LINE",
"89 53 LINE",
"1 33 LINE",
"-5 0 LINE",
"242 0 LINE",
"248 33 LINE",
"167 53 LINE",
"265 558 LINE",
"354 578 LINE",
"360 611 LINE",
"113 611 LINE"
);
},
{
closed = 1;
nodes = (
"213 758 OFFCURVE",
"186 784 OFFCURVE",
"156 784 CURVE SMOOTH",
"126 784 OFFCURVE",
"99 758 OFFCURVE",
"99 726 CURVE SMOOTH",
"99 696 OFFCURVE",
"126 671 OFFCURVE",
"156 671 CURVE SMOOTH",
"186 671 OFFCURVE",
"213 696 OFFCURVE",
"213 726 CURVE SMOOTH"
);
},
{
closed = 1;
nodes = (
"408 758 OFFCURVE",
"380 784 OFFCURVE",
"350 784 CURVE SMOOTH",
"320 784 OFFCURVE",
"293 758 OFFCURVE",
"293 726 CURVE SMOOTH",
"293 696 OFFCURVE",
"320 671 OFFCURVE",
"350 671 CURVE SMOOTH",
"380 671 OFFCURVE",
"408 696 OFFCURVE",
"408 726 CURVE SMOOTH"
);
}
);
width = 352;
},
{
background = {
paths = (
{
closed = 1;
nodes = (
"308 546 LINE",
"392 569 LINE",
"401 614 LINE",
"105 614 LINE",
"96 569 LINE",
"172 546 LINE",
"79 69 LINE",
"-5 45 LINE",
"-13 0 LINE",
"282 0 LINE",
"290 45 LINE",
"215 69 LINE"
);
},
{
closed = 1;
nodes = (
"232 760 OFFCURVE",
"198 792 OFFCURVE",
"158 792 CURVE SMOOTH",
"117 792 OFFCURVE",
"80 760 OFFCURVE",
"80 719 CURVE SMOOTH",
"80 677 OFFCURVE",
"117 647 OFFCURVE",
"158 647 CURVE SMOOTH",
"198 647 OFFCURVE",
"232 677 OFFCURVE",
"232 719 CURVE SMOOTH"
);
},
{
closed = 1;
nodes = (
"463 760 OFFCURVE",
"428 792 OFFCURVE",
"390 792 CURVE SMOOTH",
"348 792 OFFCURVE",
"313 760 OFFCURVE",
"313 719 CURVE SMOOTH",
"313 677 OFFCURVE",
"348 647 OFFCURVE",
"390 647 CURVE SMOOTH",
"428 647 OFFCURVE",
"463 677 OFFCURVE",
"463 719 CURVE SMOOTH"
);
}
);
};
layerId = "91FB354D-039B-406A-8F87-4ABC8510003D";
paths = (
{
closed = 1;
nodes = (
"308 546 LINE",
"392 569 LINE",
"401 614 LINE",
"105 614 LINE",
"96 569 LINE",
"172 546 LINE",
"79 69 LINE",
"-5 45 LINE",
"-13 0 LINE",
"282 0 LINE",
"290 45 LINE",
"215 69 LINE"
);
},
{
closed = 1;
nodes = (
"232 760 OFFCURVE",
"198 792 OFFCURVE",
"158 792 CURVE SMOOTH",
"117 792 OFFCURVE",
"80 760 OFFCURVE",
"80 719 CURVE SMOOTH",
"80 677 OFFCURVE",
"117 647 OFFCURVE",
"158 647 CURVE SMOOTH",
"198 647 OFFCURVE",
"232 677 OFFCURVE",
"232 719 CURVE SMOOTH"
);
},
{
closed = 1;
nodes = (
"463 760 OFFCURVE",
"428 792 OFFCURVE",
"390 792 CURVE SMOOTH",
"348 792 OFFCURVE",
"313 760 OFFCURVE",
"313 719 CURVE SMOOTH",
"313 677 OFFCURVE",
"348 647 OFFCURVE",
"390 647 CURVE SMOOTH",
"428 647 OFFCURVE",
"463 677 OFFCURVE",
"463 719 CURVE SMOOTH"
);
}
);
width = 357;
}
);
unicode = 00CF;
},
{
color = 11;
glyphname = Idotaccent;
lastChange = "2015-02-19 03:26:13 +0000";
layers = (
{
background = {
paths = (
{
closed = 1;
nodes = (
"107 578 LINE",
"187 558 LINE",
"89 53 LINE",
"1 33 LINE",
"-5 0 LINE",
"242 0 LINE",
"248 33 LINE",
"167 53 LINE",
"265 558 LINE",
"354 578 LINE",
"360 611 LINE",
"113 611 LINE"
);
},
{
closed = 1;
nodes = (
"314 758 OFFCURVE",
"285 785 OFFCURVE",
"254 785 CURVE SMOOTH",
"222 785 OFFCURVE",
"194 758 OFFCURVE",
"194 725 CURVE SMOOTH",
"194 692 OFFCURVE",
"222 668 OFFCURVE",
"254 668 CURVE SMOOTH",
"285 668 OFFCURVE",
"314 692 OFFCURVE",
"314 725 CURVE SMOOTH"
);
}
);
};
layerId = "27799D80-F866-457E-9382-0097DC0AFC53";
paths = (
{
closed = 1;
nodes = (
"107 578 LINE",
"187 558 LINE",
"89 53 LINE",
"1 33 LINE",
"-5 0 LINE",
"242 0 LINE",
"248 33 LINE",
"167 53 LINE",
"265 558 LINE",
"354 578 LINE",
"360 611 LINE",
"113 611 LINE"
);
},
{
closed = 1;
nodes = (
"314 758 OFFCURVE",
"285 785 OFFCURVE",
"254 785 CURVE SMOOTH",
"222 785 OFFCURVE",
"194 758 OFFCURVE",
"194 725 CURVE SMOOTH",
"194 692 OFFCURVE",
"222 668 OFFCURVE",
"254 668 CURVE SMOOTH",
"285 668 OFFCURVE",
"314 692 OFFCURVE",
"314 725 CURVE SMOOTH"
);
}
);
width = 352;
},
{
background = {
paths = (
{
closed = 1;
nodes = (
"308 546 LINE",
"392 569 LINE",
"401 614 LINE",
"105 614 LINE",
"96 569 LINE",
"172 546 LINE",
"79 69 LINE",
"-5 45 LINE",
"-13 0 LINE",
"282 0 LINE",
"290 45 LINE",
"215 69 LINE"
);
},
{
closed = 1;
nodes = (
"355 760 OFFCURVE",
"318 799 OFFCURVE",
"273 799 CURVE SMOOTH",
"228 799 OFFCURVE",
"187 760 OFFCURVE",
"187 715 CURVE SMOOTH",
"187 670 OFFCURVE",
"228 635 OFFCURVE",
"273 635 CURVE SMOOTH",
"318 635 OFFCURVE",
"355 670 OFFCURVE",
"355 715 CURVE SMOOTH"
);
}
);
};
layerId = "91FB354D-039B-406A-8F87-4ABC8510003D";
paths = (
{
closed = 1;
nodes = (
"308 546 LINE",
"392 569 LINE",
"401 614 LINE",
"105 614 LINE",
"96 569 LINE",
"172 546 LINE",
"79 69 LINE",
"-5 45 LINE",
"-13 0 LINE",
"282 0 LINE",
"290 45 LINE",
"215 69 LINE"
);
},
{
closed = 1;
nodes = (
"355 760 OFFCURVE",
"318 799 OFFCURVE",
"273 799 CURVE SMOOTH",
"228 799 OFFCURVE",
"187 760 OFFCURVE",
"187 715 CURVE SMOOTH",
"187 670 OFFCURVE",
"228 635 OFFCURVE",
"273 635 CURVE SMOOTH",
"318 635 OFFCURVE",
"355 670 OFFCURVE",
"355 715 CURVE SMOOTH"
);
}
);
width = 357;
}
);
unicode = 0130;
},
{
color = 11;
glyphname = Igrave;
lastChange = "2015-02-19 03:26:13 +0000";
layers = (
{
background = {
paths = (
{
closed = 1;
nodes = (
"107 578 LINE",
"187 558 LINE",
"89 53 LINE",
"1 33 LINE",
"-5 0 LINE",
"242 0 LINE",
"248 33 LINE",
"167 53 LINE",
"265 558 LINE",
"354 578 LINE",
"360 611 LINE",
"113 611 LINE"
);
},
{
closed = 1;
nodes = (
"353 651 LINE",
"369 670 LINE",
"215 800 LINE",
"139 772 LINE",
"139 754 LINE"
);
}
);
};
layerId = "27799D80-F866-457E-9382-0097DC0AFC53";
paths = (
{
closed = 1;
nodes = (
"107 578 LINE",
"187 558 LINE",
"89 53 LINE",
"1 33 LINE",
"-5 0 LINE",
"242 0 LINE",
"248 33 LINE",
"167 53 LINE",
"265 558 LINE",
"354 578 LINE",
"360 611 LINE",
"113 611 LINE"
);
},
{
closed = 1;
nodes = (
"353 651 LINE",
"369 670 LINE",
"215 800 LINE",
"139 772 LINE",
"139 754 LINE"
);
}
);
width = 352;
},
{
background = {
paths = (
{
closed = 1;
nodes = (
"308 546 LINE",
"392 569 LINE",
"401 614 LINE",
"105 614 LINE",
"96 569 LINE",
"172 546 LINE",
"79 69 LINE",
"-5 45 LINE",
"-13 0 LINE",
"282 0 LINE",
"290 45 LINE",
"215 69 LINE"
);
},
{
closed = 1;
nodes = (
"370 669 LINE",
"216 800 LINE",
"119 766 LINE",
"115 743 LINE",
"347 634 LINE"
);
}
);
};
layerId = "91FB354D-039B-406A-8F87-4ABC8510003D";
paths = (
{
closed = 1;
nodes = (
"308 546 LINE",
"392 569 LINE",
"401 614 LINE",
"105 614 LINE",
"96 569 LINE",
"172 546 LINE",
"79 69 LINE",
"-5 45 LINE",
"-13 0 LINE",
"282 0 LINE",
"290 45 LINE",
"215 69 LINE"
);
},
{
closed = 1;
nodes = (
"370 669 LINE",
"216 800 LINE",
"119 766 LINE",
"115 743 LINE",
"347 634 LINE"
);
}
);
width = 357;
}
);
unicode = 00CC;
},
{
color = 11;
glyphname = Imacron;
lastChange = "2015-02-19 03:26:13 +0000";
layers = (
{
background = {
paths = (
{
closed = 1;
nodes = (
"107 578 LINE",
"187 558 LINE",
"89 53 LINE",
"1 33 LINE",
"-5 0 LINE",
"242 0 LINE",
"248 33 LINE",
"167 53 LINE",
"265 558 LINE",
"354 578 LINE",
"360 611 LINE",
"113 611 LINE"
);
},
{
closed = 1;
nodes = (
"144 697 LINE",
"361 697 LINE",
"369 749 LINE",
"152 749 LINE"
);
}
);
};
layerId = "27799D80-F866-457E-9382-0097DC0AFC53";
paths = (
{
closed = 1;
nodes = (
"107 578 LINE",
"187 558 LINE",
"89 53 LINE",
"1 33 LINE",
"-5 0 LINE",
"242 0 LINE",
"248 33 LINE",
"167 53 LINE",
"265 558 LINE",
"354 578 LINE",
"360 611 LINE",
"113 611 LINE"
);
},
{
closed = 1;
nodes = (
"144 697 LINE",
"361 697 LINE",
"369 749 LINE",
"152 749 LINE"
);
}
);
width = 352;
},
{
background = {
paths = (
{
closed = 1;
nodes = (
"308 546 LINE",
"392 569 LINE",
"401 614 LINE",
"105 614 LINE",
"96 569 LINE",
"172 546 LINE",
"79 69 LINE",
"-5 45 LINE",
"-13 0 LINE",
"282 0 LINE",
"290 45 LINE",
"215 69 LINE"
);
},
{
closed = 1;
nodes = (
"146 679 LINE",
"407 679 LINE",
"418 758 LINE",
"157 758 LINE"
);
}
);
};
layerId = "91FB354D-039B-406A-8F87-4ABC8510003D";
paths = (
{
closed = 1;
nodes = (
"308 546 LINE",
"392 569 LINE",
"401 614 LINE",
"105 614 LINE",
"96 569 LINE",
"172 546 LINE",
"79 69 LINE",
"-5 45 LINE",
"-13 0 LINE",
"282 0 LINE",
"290 45 LINE",
"215 69 LINE"
);
},
{
closed = 1;
nodes = (
"146 679 LINE",
"407 679 LINE",
"418 758 LINE",
"157 758 LINE"
);
}
);
width = 357;
}
);
unicode = 012A;
},
{
color = 11;
glyphname = Iogonek;
lastChange = "2015-02-19 03:26:13 +0000";
layers = (
{
background = {
paths = (
{
closed = 1;
nodes = (
"107 578 LINE",
"187 558 LINE",
"89 53 LINE",
"1 33 LINE",
"-5 0 LINE",
"185 0 LINE",
"100 -46 OFFCURVE",
"61 -111 OFFCURVE",
"61 -165 CURVE SMOOTH",
"61 -203 OFFCURVE",
"84 -236 OFFCURVE",
"144 -236 CURVE SMOOTH",
"208 -236 OFFCURVE",
"245 -186 OFFCURVE",
"245 -186 CURVE",
"231 -170 LINE",
"213 -186 OFFCURVE",
"194 -192 OFFCURVE",
"178 -192 CURVE SMOOTH",
"148 -192 OFFCURVE",
"130 -176 OFFCURVE",
"130 -145 CURVE SMOOTH",
"130 -91 OFFCURVE",
"176 -32 OFFCURVE",
"242 0 CURVE",
"248 33 LINE",
"167 53 LINE",
"265 558 LINE",
"354 578 LINE",
"360 611 LINE",
"113 611 LINE"
);
}
);
};
layerId = "27799D80-F866-457E-9382-0097DC0AFC53";
paths = (
{
closed = 1;
nodes = (
"107 578 LINE",
"187 558 LINE",
"89 53 LINE",
"1 33 LINE",
"-5 0 LINE",
"185 0 LINE",
"100 -46 OFFCURVE",
"61 -111 OFFCURVE",
"61 -165 CURVE SMOOTH",
"61 -203 OFFCURVE",
"84 -236 OFFCURVE",
"144 -236 CURVE SMOOTH",
"208 -236 OFFCURVE",
"245 -186 OFFCURVE",
"245 -186 CURVE",
"231 -170 LINE",
"213 -186 OFFCURVE",
"194 -192 OFFCURVE",
"178 -192 CURVE SMOOTH",
"148 -192 OFFCURVE",
"130 -176 OFFCURVE",
"130 -145 CURVE SMOOTH",
"130 -91 OFFCURVE",
"176 -32 OFFCURVE",
"242 0 CURVE",
"248 33 LINE",
"167 53 LINE",
"265 558 LINE",
"354 578 LINE",
"360 611 LINE",
"113 611 LINE"
);
}
);
width = 352;
},
{
background = {
paths = (
{
closed = 1;
nodes = (
"308 546 LINE",
"392 569 LINE",
"401 614 LINE",
"105 614 LINE",
"96 569 LINE",
"172 546 LINE",
"79 69 LINE",
"-5 45 LINE",
"-13 0 LINE",
"171 0 LINE",
"101 -43 OFFCURVE",
"55 -108 OFFCURVE",
"55 -157 CURVE SMOOTH",
"55 -195 OFFCURVE",
"76 -236 OFFCURVE",
"147 -236 CURVE SMOOTH",
"223 -236 OFFCURVE",
"265 -174 OFFCURVE",
"265 -174 CURVE",
"245 -152 LINE",
"223 -166 OFFCURVE",
"203 -174 OFFCURVE",
"181 -174 CURVE SMOOTH",
"154 -174 OFFCURVE",
"143 -156 OFFCURVE",
"143 -130 CURVE SMOOTH",
"143 -70 OFFCURVE",
"215 -3 OFFCURVE",
"278 0 CURVE",
"282 0 LINE",
"283 0 LINE",
"291 44 LINE",
"290 44 LINE",
"290 45 LINE",
"215 69 LINE"
);
}
);
};
layerId = "91FB354D-039B-406A-8F87-4ABC8510003D";
paths = (
{
closed = 1;
nodes = (
"308 546 LINE",
"392 569 LINE",
"401 614 LINE",
"105 614 LINE",
"96 569 LINE",
"172 546 LINE",
"79 69 LINE",
"-5 45 LINE",
"-13 0 LINE",
"171 0 LINE",
"101 -43 OFFCURVE",
"55 -108 OFFCURVE",
"55 -157 CURVE SMOOTH",
"55 -195 OFFCURVE",
"76 -236 OFFCURVE",
"147 -236 CURVE SMOOTH",
"223 -236 OFFCURVE",
"265 -174 OFFCURVE",
"265 -174 CURVE",
"245 -152 LINE",
"223 -166 OFFCURVE",
"203 -174 OFFCURVE",
"181 -174 CURVE SMOOTH",
"154 -174 OFFCURVE",
"143 -156 OFFCURVE",
"143 -130 CURVE SMOOTH",
"143 -70 OFFCURVE",
"215 -3 OFFCURVE",
"278 0 CURVE",
"282 0 LINE",
"283 0 LINE",
"291 44 LINE",
"290 44 LINE",
"290 45 LINE",
"215 69 LINE"
);
}
);
width = 357;
}
);
unicode = 012E;
},
{
color = 11;
glyphname = Itilde;
lastChange = "2015-02-19 03:26:13 +0000";
layers = (
{
background = {
paths = (
{
closed = 1;
nodes = (
"107 578 LINE",
"187 558 LINE",
"89 53 LINE",
"1 33 LINE",
"-5 0 LINE",
"242 0 LINE",
"248 33 LINE",
"167 53 LINE",
"265 558 LINE",
"354 578 LINE",
"360 611 LINE",
"113 611 LINE"
);
},
{
closed = 1;
nodes = (
"374 777 LINE",
"374 777 OFFCURVE",
"354 742 OFFCURVE",
"331 742 CURVE SMOOTH",
"296 742 OFFCURVE",
"213 782 OFFCURVE",
"179 782 CURVE SMOOTH",
"146 782 OFFCURVE",
"124 738 OFFCURVE",
"103 686 CURVE",
"133 674 LINE",
"133 674 OFFCURVE",
"156 710 OFFCURVE",
"178 710 CURVE SMOOTH",
"211 710 OFFCURVE",
"296 670 OFFCURVE",
"330 670 CURVE SMOOTH",
"362 670 OFFCURVE",
"384 714 OFFCURVE",
"405 765 CURVE"
);
}
);
};
layerId = "27799D80-F866-457E-9382-0097DC0AFC53";
paths = (
{
closed = 1;
nodes = (
"107 578 LINE",
"187 558 LINE",
"89 53 LINE",
"1 33 LINE",
"-5 0 LINE",
"242 0 LINE",
"248 33 LINE",
"167 53 LINE",
"265 558 LINE",
"354 578 LINE",
"360 611 LINE",
"113 611 LINE"
);
},
{
closed = 1;
nodes = (
"374 777 LINE",
"374 777 OFFCURVE",
"354 742 OFFCURVE",
"331 742 CURVE SMOOTH",
"296 742 OFFCURVE",
"213 782 OFFCURVE",
"179 782 CURVE SMOOTH",
"146 782 OFFCURVE",
"124 738 OFFCURVE",
"103 686 CURVE",
"133 674 LINE",
"133 674 OFFCURVE",
"156 710 OFFCURVE",
"178 710 CURVE SMOOTH",
"211 710 OFFCURVE",
"296 670 OFFCURVE",
"330 670 CURVE SMOOTH",
"362 670 OFFCURVE",
"384 714 OFFCURVE",
"405 765 CURVE"
);
}
);
width = 352;
},
{
background = {
paths = (
{
closed = 1;
nodes = (
"308 546 LINE",
"392 569 LINE",
"401 614 LINE",
"105 614 LINE",
"96 569 LINE",
"172 546 LINE",
"79 69 LINE",
"-5 45 LINE",
"-13 0 LINE",
"282 0 LINE",
"290 45 LINE",
"215 69 LINE"
);
},
{
closed = 1;
nodes = (
"394 778 LINE",
"394 778 OFFCURVE",
"377 747 OFFCURVE",
"352 747 CURVE SMOOTH",
"313 747 OFFCURVE",
"225 784 OFFCURVE",
"176 784 CURVE SMOOTH",
"143 784 OFFCURVE",
"109 738 OFFCURVE",
"89 680 CURVE",
"136 661 LINE",
"136 661 OFFCURVE",
"152 692 OFFCURVE",
"176 692 CURVE SMOOTH",
"214 692 OFFCURVE",
"303 655 OFFCURVE",
"352 655 CURVE SMOOTH",
"386 655 OFFCURVE",
"414 701 OFFCURVE",
"438 759 CURVE"
);
}
);
};
layerId = "91FB354D-039B-406A-8F87-4ABC8510003D";
paths = (
{
closed = 1;
nodes = (
"308 546 LINE",
"392 569 LINE",
"401 614 LINE",
"105 614 LINE",
"96 569 LINE",
"172 546 LINE",
"79 69 LINE",
"-5 45 LINE",
"-13 0 LINE",
"282 0 LINE",
"290 45 LINE",
"215 69 LINE"
);
},
{
closed = 1;
nodes = (
"394 778 LINE",
"394 778 OFFCURVE",
"377 747 OFFCURVE",
"352 747 CURVE SMOOTH",
"313 747 OFFCURVE",
"225 784 OFFCURVE",
"176 784 CURVE SMOOTH",
"143 784 OFFCURVE",
"109 738 OFFCURVE",
"89 680 CURVE",
"136 661 LINE",
"136 661 OFFCURVE",
"152 692 OFFCURVE",
"176 692 CURVE SMOOTH",
"214 692 OFFCURVE",
"303 655 OFFCURVE",
"352 655 CURVE SMOOTH",
"386 655 OFFCURVE",
"414 701 OFFCURVE",
"438 759 CURVE"
);
}
);
width = 357;
}
);
unicode = 0128;
},
{
color = 11;
glyphname = J;
lastChange = "2015-02-19 03:26:13 +0000";
layers = (
{
anchors = (
{
name = bottom;
position = "{105, 0}";
},
{
name = top;
position = "{224, 611}";
}
);
background = {
paths = (
{
closed = 1;
nodes = (
"83 -149 OFFCURVE",
"139 -102 OFFCURVE",
"169 63 CURVE SMOOTH",
"259 558 LINE",
"346 578 LINE",
"352 611 LINE",
"106 611 LINE",
"100 578 LINE",
"180 558 LINE",
"84 30 LINE SMOOTH",
"71 -42 OFFCURVE",
"50 -94 OFFCURVE",
"-11 -94 CURVE SMOOTH",
"-79 -94 LINE",
"-88 -122 LINE",
"-69 -137 OFFCURVE",
"-43 -149 OFFCURVE",
"0 -149 CURVE SMOOTH"
);
}
);
};
layerId = "27799D80-F866-457E-9382-0097DC0AFC53";
paths = (
{
closed = 1;
nodes = (
"83 -149 OFFCURVE",
"139 -102 OFFCURVE",
"169 63 CURVE SMOOTH",
"259 558 LINE",
"346 578 LINE",
"352 611 LINE",
"106 611 LINE",
"100 578 LINE",
"180 558 LINE",
"84 30 LINE SMOOTH",
"71 -42 OFFCURVE",
"50 -94 OFFCURVE",
"-11 -94 CURVE SMOOTH",
"-79 -94 LINE",
"-88 -122 LINE",
"-69 -137 OFFCURVE",
"-43 -149 OFFCURVE",
"0 -149 CURVE SMOOTH"
);
}
);
width = 305;
},
{
anchors = (
{
name = bottom;
position = "{127, 0}";
},
{
name = top;
position = "{247, 614}";
}
);
background = {
paths = (
{
closed = 1;
nodes = (
"112 -150 OFFCURVE",
"186 -103 OFFCURVE",
"218 63 CURVE SMOOTH",
"312 546 LINE",
"397 569 LINE",
"405 614 LINE",
"113 614 LINE",
"105 569 LINE",
"180 546 LINE",
"82 41 LINE SMOOTH",
"68 -29 OFFCURVE",
"47 -81 OFFCURVE",
"-10 -81 CURVE SMOOTH",
"-72 -81 LINE",
"-83 -118 LINE",
"-64 -134 OFFCURVE",
"-35 -150 OFFCURVE",
"14 -150 CURVE SMOOTH"
);
}
);
};
layerId = "91FB354D-039B-406A-8F87-4ABC8510003D";
paths = (
{
closed = 1;
nodes = (
"112 -150 OFFCURVE",
"186 -103 OFFCURVE",
"218 63 CURVE SMOOTH",
"312 546 LINE",
"397 569 LINE",
"405 614 LINE",
"113 614 LINE",
"105 569 LINE",
"180 546 LINE",
"82 41 LINE SMOOTH",
"68 -29 OFFCURVE",
"47 -81 OFFCURVE",
"-10 -81 CURVE SMOOTH",
"-72 -81 LINE",
"-83 -118 LINE",
"-64 -134 OFFCURVE",
"-35 -150 OFFCURVE",
"14 -150 CURVE SMOOTH"
);
}
);
width = 350;
}
);
unicode = 004A;
},
{
color = 11;
glyphname = K;
lastChange = "2015-02-19 03:26:13 +0000";
layers = (
{
anchors = (
{
name = bottom;
position = "{230, 0}";
},
{
name = top;
position = "{349, 611}";
}
);
background = {
paths = (
{
closed = 1;
nodes = (
"511 33 LINE",
"429 52 LINE",
"289 333 LINE",
"523 558 LINE",
"594 578 LINE",
"600 611 LINE",
"408 611 LINE",
"402 578 LINE",
"460 558 LINE",
"213 324 LINE",
"259 558 LINE",
"348 578 LINE",
"354 611 LINE",
"107 611 LINE",
"101 578 LINE",
"181 558 LINE",
"83 53 LINE",
"-5 33 LINE",
"-11 0 LINE",
"236 0 LINE",
"242 33 LINE",
"161 53 LINE",
"211 312 LINE",
"361 0 LINE",
"505 0 LINE"
);
}
);
};
layerId = "27799D80-F866-457E-9382-0097DC0AFC53";
paths = (
{
closed = 1;
nodes = (
"511 33 LINE",
"429 52 LINE",
"289 333 LINE",
"523 558 LINE",
"594 578 LINE",
"600 611 LINE",
"408 611 LINE",
"402 578 LINE",
"460 558 LINE",
"213 324 LINE",
"259 558 LINE",
"348 578 LINE",
"354 611 LINE",
"107 611 LINE",
"101 578 LINE",
"181 558 LINE",
"83 53 LINE",
"-5 33 LINE",
"-11 0 LINE",
"236 0 LINE",
"242 33 LINE",
"161 53 LINE",
"211 312 LINE",
"361 0 LINE",
"505 0 LINE"
);
}
);
width = 556;
},
{
anchors = (
{
name = bottom;
position = "{240, 0}";
},
{
name = top;
position = "{360, 614}";
}
);
background = {
paths = (
{
closed = 1;
nodes = (
"564 45 LINE",
"489 73 LINE",
"361 339 LINE",
"582 549 LINE",
"651 571 LINE",
"659 614 LINE",
"446 614 LINE",
"437 569 LINE",
"486 554 LINE",
"269 347 LINE",
"308 546 LINE",
"382 567 LINE",
"391 614 LINE",
"105 614 LINE",
"96 569 LINE",
"172 546 LINE",
"79 69 LINE",
"-5 45 LINE",
"-13 0 LINE",
"266 0 LINE",
"275 46 LINE",
"215 69 LINE",
"254 271 LINE",
"372 0 LINE",
"556 0 LINE"
);
}
);
};
layerId = "91FB354D-039B-406A-8F87-4ABC8510003D";
paths = (
{
closed = 1;
nodes = (
"564 45 LINE",
"489 73 LINE",
"361 339 LINE",
"582 549 LINE",
"651 571 LINE",
"659 614 LINE",
"446 614 LINE",
"437 569 LINE",
"486 554 LINE",
"269 347 LINE",
"308 546 LINE",
"382 567 LINE",
"391 614 LINE",
"105 614 LINE",
"96 569 LINE",
"172 546 LINE",
"79 69 LINE",
"-5 45 LINE",
"-13 0 LINE",
"266 0 LINE",
"275 46 LINE",
"215 69 LINE",
"254 271 LINE",
"372 0 LINE",
"556 0 LINE"
);
}
);
width = 576;
}
);
rightKerningGroup = K;
unicode = 004B;
},
{
color = 11;
glyphname = Kcommaaccent;
lastChange = "2015-02-19 03:26:13 +0000";
layers = (
{
background = {
paths = (
{
closed = 1;
nodes = (
"518 33 LINE",
"436 52 LINE",
"296 333 LINE",
"530 558 LINE",
"601 578 LINE",
"607 611 LINE",
"415 611 LINE",
"409 578 LINE",
"467 558 LINE",
"220 324 LINE",
"266 558 LINE",
"355 578 LINE",
"361 611 LINE",
"114 611 LINE",
"108 578 LINE",
"188 558 LINE",
"90 53 LINE",
"2 33 LINE",
"-4 0 LINE",
"243 0 LINE",
"249 33 LINE",
"168 53 LINE",
"218 312 LINE",
"368 0 LINE",
"512 0 LINE"
);
},
{
closed = 1;
nodes = (
"214 -47 LINE",
"179 -214 LINE",
"204 -221 LINE",
"304 -48 LINE",
"289 -31 LINE"
);
}
);
};
layerId = "27799D80-F866-457E-9382-0097DC0AFC53";
paths = (
{
closed = 1;
nodes = (
"518 33 LINE",
"436 52 LINE",
"296 333 LINE",
"530 558 LINE",
"601 578 LINE",
"607 611 LINE",
"415 611 LINE",
"409 578 LINE",
"467 558 LINE",
"220 324 LINE",
"266 558 LINE",
"355 578 LINE",
"361 611 LINE",
"114 611 LINE",
"108 578 LINE",
"188 558 LINE",
"90 53 LINE",
"2 33 LINE",
"-4 0 LINE",
"243 0 LINE",
"249 33 LINE",
"168 53 LINE",
"218 312 LINE",
"368 0 LINE",
"512 0 LINE"
);
},
{
closed = 1;
nodes = (
"214 -47 LINE",
"179 -214 LINE",
"204 -221 LINE",
"304 -48 LINE",
"289 -31 LINE"
);
}
);
width = 563;
},
{
background = {
paths = (
{
closed = 1;
nodes = (
"563 45 LINE",
"488 73 LINE",
"360 339 LINE",
"581 549 LINE",
"650 571 LINE",
"658 614 LINE",
"445 614 LINE",
"436 569 LINE",
"485 554 LINE",
"268 347 LINE",
"307 546 LINE",
"381 567 LINE",
"390 614 LINE",
"104 614 LINE",
"95 569 LINE",
"171 546 LINE",
"78 69 LINE",
"-6 45 LINE",
"-14 0 LINE",
"265 0 LINE",
"274 46 LINE",
"214 69 LINE",
"253 271 LINE",
"371 0 LINE",
"555 0 LINE"
);
},
{
closed = 1;
nodes = (
"333 -48 LINE",
"311 -24 LINE",
"219 -44 LINE",
"183 -225 LINE",
"223 -236 LINE"
);
}
);
};
layerId = "91FB354D-039B-406A-8F87-4ABC8510003D";
paths = (
{
closed = 1;
nodes = (
"563 45 LINE",
"488 73 LINE",
"360 339 LINE",
"581 549 LINE",
"650 571 LINE",
"658 614 LINE",
"445 614 LINE",
"436 569 LINE",
"485 554 LINE",
"268 347 LINE",
"307 546 LINE",
"381 567 LINE",
"390 614 LINE",
"104 614 LINE",
"95 569 LINE",
"171 546 LINE",
"78 69 LINE",
"-6 45 LINE",
"-14 0 LINE",
"265 0 LINE",
"274 46 LINE",
"214 69 LINE",
"253 271 LINE",
"371 0 LINE",
"555 0 LINE"
);
},
{
closed = 1;
nodes = (
"333 -48 LINE",
"311 -24 LINE",
"219 -44 LINE",
"183 -225 LINE",
"223 -236 LINE"
);
}
);
width = 576;
}
);
rightKerningGroup = K;
unicode = 0136;
},
{
color = 11;
glyphname = L;
lastChange = "2015-02-21 01:44:30 +0000";
layers = (
{
anchors = (
{
name = bottom;
position = "{177, 0}";
},
{
name = center;
position = "{173, 306}";
},
{
name = top;
position = "{296, 611}";
},
{
name = topright;
position = "{399, 493}";
}
);
background = {
paths = (
{
closed = 1;
nodes = (
"419 147 LINE",
"383 147 LINE",
"342 56 LINE",
"161 56 LINE",
"259 558 LINE",
"348 578 LINE",
"354 611 LINE",
"107 611 LINE",
"101 578 LINE",
"181 558 LINE",
"83 53 LINE",
"-5 33 LINE",
"-11 0 LINE",
"391 0 LINE"
);
}
);
};
layerId = "27799D80-F866-457E-9382-0097DC0AFC53";
paths = (
{
closed = 1;
nodes = (
"419 147 LINE",
"383 147 LINE",
"342 56 LINE",
"161 56 LINE",
"259 558 LINE",
"348 578 LINE",
"354 611 LINE",
"107 611 LINE",
"101 578 LINE",
"181 558 LINE",
"83 53 LINE",
"-5 33 LINE",
"-11 0 LINE",
"391 0 LINE"
);
}
);
width = 449;
},
{
anchors = (
{
name = bottom;
position = "{186, 0}";
},
{
name = center;
position = "{190, 307}";
},
{
name = top;
position = "{306, 614}";
},
{
name = topright;
position = "{434, 492}";
}
);
background = {
paths = (
{
closed = 1;
nodes = (
"458 162 LINE",
"405 162 LINE",
"363 69 LINE",
"215 69 LINE",
"308 546 LINE",
"392 569 LINE",
"401 614 LINE",
"105 614 LINE",
"96 569 LINE",
"172 546 LINE",
"79 69 LINE",
"-5 45 LINE",
"-13 0 LINE",
"427 0 LINE"
);
}
);
};
layerId = "91FB354D-039B-406A-8F87-4ABC8510003D";
paths = (
{
closed = 1;
nodes = (
"458 162 LINE",
"405 162 LINE",
"363 69 LINE",
"215 69 LINE",
"308 546 LINE",
"392 569 LINE",
"401 614 LINE",
"105 614 LINE",
"96 569 LINE",
"172 546 LINE",
"79 69 LINE",
"-5 45 LINE",
"-13 0 LINE",
"427 0 LINE"
);
}
);
width = 468;
}
);
rightKerningGroup = L;
unicode = 004C;
},
{
color = 11;
glyphname = Lacute;
lastChange = "2015-02-19 03:26:13 +0000";
layers = (
{
background = {
paths = (
{
closed = 1;
nodes = (
"426 147 LINE",
"390 147 LINE",
"349 56 LINE",
"168 56 LINE",
"266 558 LINE",
"355 578 LINE",
"361 611 LINE",
"114 611 LINE",
"108 578 LINE",
"188 558 LINE",
"90 53 LINE",
"2 33 LINE",
"-4 0 LINE",
"398 0 LINE"
);
},
{
closed = 1;
nodes = (
"385 754 LINE",
"385 772 LINE",
"309 800 LINE",
"155 670 LINE",
"171 651 LINE"
);
}
);
};
layerId = "27799D80-F866-457E-9382-0097DC0AFC53";
paths = (
{
closed = 1;
nodes = (
"426 147 LINE",
"390 147 LINE",
"349 56 LINE",
"168 56 LINE",
"266 558 LINE",
"355 578 LINE",
"361 611 LINE",
"114 611 LINE",
"108 578 LINE",
"188 558 LINE",
"90 53 LINE",
"2 33 LINE",
"-4 0 LINE",
"398 0 LINE"
);
},
{
closed = 1;
nodes = (
"385 754 LINE",
"385 772 LINE",
"309 800 LINE",
"155 670 LINE",
"171 651 LINE"
);
}
);
width = 462;
},
{
background = {
paths = (
{
closed = 1;
nodes = (
"457 162 LINE",
"404 162 LINE",
"362 69 LINE",
"214 69 LINE",
"307 546 LINE",
"391 569 LINE",
"400 614 LINE",
"104 614 LINE",
"95 569 LINE",
"171 546 LINE",
"78 69 LINE",
"-6 45 LINE",
"-14 0 LINE",
"426 0 LINE"
);
},
{
closed = 1;
nodes = (
"397 743 LINE",
"397 766 LINE",
"298 800 LINE",
"142 669 LINE",
"169 634 LINE"
);
}
);
};
layerId = "91FB354D-039B-406A-8F87-4ABC8510003D";
paths = (
{
closed = 1;
nodes = (
"457 162 LINE",
"404 162 LINE",
"362 69 LINE",
"214 69 LINE",
"307 546 LINE",
"391 569 LINE",
"400 614 LINE",
"104 614 LINE",
"95 569 LINE",
"171 546 LINE",
"78 69 LINE",
"-6 45 LINE",
"-14 0 LINE",
"426 0 LINE"
);
},
{
closed = 1;
nodes = (
"397 743 LINE",
"397 766 LINE",
"298 800 LINE",
"142 669 LINE",
"169 634 LINE"
);
}
);
width = 468;
}
);
rightKerningGroup = L;
unicode = 0139;
},
{
color = 11;
glyphname = Lcaron;
lastChange = "2015-02-19 03:26:13 +0000";
layers = (
{
background = {
paths = (
{
closed = 1;
nodes = (
"426 147 LINE",
"390 147 LINE",
"349 56 LINE",
"168 56 LINE",
"266 558 LINE",
"355 578 LINE",
"361 611 LINE",
"114 611 LINE",
"108 578 LINE",
"188 558 LINE",
"90 53 LINE",
"2 33 LINE",
"-4 0 LINE",
"398 0 LINE"
);
},
{
closed = 1;
nodes = (
"132 786 LINE",
"221 651 LINE",
"281 651 LINE",
"411 786 LINE",
"391 805 LINE",
"261 722 LINE",
"159 804 LINE"
);
}
);
};
layerId = "27799D80-F866-457E-9382-0097DC0AFC53";
paths = (
{
closed = 1;
nodes = (
"426 147 LINE",
"390 147 LINE",
"349 56 LINE",
"168 56 LINE",
"266 558 LINE",
"355 578 LINE",
"361 611 LINE",
"114 611 LINE",
"108 578 LINE",
"188 558 LINE",
"90 53 LINE",
"2 33 LINE",
"-4 0 LINE",
"398 0 LINE"
);
},
{
closed = 1;
nodes = (
"132 786 LINE",
"221 651 LINE",
"281 651 LINE",
"411 786 LINE",
"391 805 LINE",
"261 722 LINE",
"159 804 LINE"
);
}
);
width = 462;
},
{
background = {
paths = (
{
closed = 1;
nodes = (
"457 162 LINE",
"404 162 LINE",
"362 69 LINE",
"214 69 LINE",
"307 546 LINE",
"391 569 LINE",
"400 614 LINE",
"104 614 LINE",
"95 569 LINE",
"171 546 LINE",
"78 69 LINE",
"-6 45 LINE",
"-14 0 LINE",
"426 0 LINE"
);
},
{
closed = 1;
nodes = (
"128 769 LINE",
"210 639 LINE",
"295 639 LINE",
"423 765 LINE",
"400 795 LINE",
"266 727 LINE",
"158 795 LINE"
);
}
);
};
layerId = "91FB354D-039B-406A-8F87-4ABC8510003D";
paths = (
{
closed = 1;
nodes = (
"457 162 LINE",
"404 162 LINE",
"362 69 LINE",
"214 69 LINE",
"307 546 LINE",
"391 569 LINE",
"400 614 LINE",
"104 614 LINE",
"95 569 LINE",
"171 546 LINE",
"78 69 LINE",
"-6 45 LINE",
"-14 0 LINE",
"426 0 LINE"
);
},
{
closed = 1;
nodes = (
"128 769 LINE",
"210 639 LINE",
"295 639 LINE",
"423 765 LINE",
"400 795 LINE",
"266 727 LINE",
"158 795 LINE"
);
}
);
width = 468;
}
);
rightKerningGroup = L;
unicode = 013D;
},
{
color = 11;
glyphname = Lcommaaccent;
lastChange = "2015-02-19 03:26:13 +0000";
layers = (
{
background = {
paths = (
{
closed = 1;
nodes = (
"426 147 LINE",
"390 147 LINE",
"349 56 LINE",
"168 56 LINE",
"266 558 LINE",
"355 578 LINE",
"361 611 LINE",
"114 611 LINE",
"108 578 LINE",
"188 558 LINE",
"90 53 LINE",
"2 33 LINE",
"-4 0 LINE",
"398 0 LINE"
);
},
{
closed = 1;
nodes = (
"182 -47 LINE",
"147 -214 LINE",
"172 -221 LINE",
"272 -48 LINE",
"257 -31 LINE"
);
}
);
};
layerId = "27799D80-F866-457E-9382-0097DC0AFC53";
paths = (
{
closed = 1;
nodes = (
"426 147 LINE",
"390 147 LINE",
"349 56 LINE",
"168 56 LINE",
"266 558 LINE",
"355 578 LINE",
"361 611 LINE",
"114 611 LINE",
"108 578 LINE",
"188 558 LINE",
"90 53 LINE",
"2 33 LINE",
"-4 0 LINE",
"398 0 LINE"
);
},
{
closed = 1;
nodes = (
"182 -47 LINE",
"147 -214 LINE",
"172 -221 LINE",
"272 -48 LINE",
"257 -31 LINE"
);
}
);
width = 462;
},
{
background = {
paths = (
{
closed = 1;
nodes = (
"457 162 LINE",
"404 162 LINE",
"362 69 LINE",
"214 69 LINE",
"307 546 LINE",
"391 569 LINE",
"400 614 LINE",
"104 614 LINE",
"95 569 LINE",
"171 546 LINE",
"78 69 LINE",
"-6 45 LINE",
"-14 0 LINE",
"426 0 LINE"
);
},
{
closed = 1;
nodes = (
"277 -48 LINE",
"255 -24 LINE",
"163 -44 LINE",
"127 -225 LINE",
"167 -236 LINE"
);
}
);
};
layerId = "91FB354D-039B-406A-8F87-4ABC8510003D";
paths = (
{
closed = 1;
nodes = (
"457 162 LINE",
"404 162 LINE",
"362 69 LINE",
"214 69 LINE",
"307 546 LINE",
"391 569 LINE",
"400 614 LINE",
"104 614 LINE",
"95 569 LINE",
"171 546 LINE",
"78 69 LINE",
"-6 45 LINE",
"-14 0 LINE",
"426 0 LINE"
);
},
{
closed = 1;
nodes = (
"277 -48 LINE",
"255 -24 LINE",
"163 -44 LINE",
"127 -225 LINE",
"167 -236 LINE"
);
}
);
width = 468;
}
);
rightKerningGroup = L;
unicode = 013B;
},
{
color = 11;
glyphname = Lslash;
lastChange = "2015-02-19 03:26:13 +0000";
layers = (
{
background = {
paths = (
{
closed = 1;
nodes = (
"426 147 LINE",
"390 147 LINE",
"349 56 LINE",
"168 56 LINE",
"216 301 LINE",
"336 363 LINE",
"314 401 LINE",
"226 356 LINE",
"266 558 LINE",
"355 578 LINE",
"361 611 LINE",
"114 611 LINE",
"108 578 LINE",
"188 558 LINE",
"140 312 LINE",
"33 257 LINE",
"53 218 LINE",
"129 257 LINE",
"90 53 LINE",
"2 33 LINE",
"-4 0 LINE",
"398 0 LINE"
);
}
);
};
layerId = "27799D80-F866-457E-9382-0097DC0AFC53";
paths = (
{
closed = 1;
nodes = (
"426 147 LINE",
"390 147 LINE",
"349 56 LINE",
"168 56 LINE",
"216 301 LINE",
"336 363 LINE",
"314 401 LINE",
"226 356 LINE",
"266 558 LINE",
"355 578 LINE",
"361 611 LINE",
"114 611 LINE",
"108 578 LINE",
"188 558 LINE",
"140 312 LINE",
"33 257 LINE",
"53 218 LINE",
"129 257 LINE",
"90 53 LINE",
"2 33 LINE",
"-4 0 LINE",
"398 0 LINE"
);
}
);
width = 462;
},
{
background = {
paths = (
{
closed = 1;
nodes = (
"457 162 LINE",
"404 162 LINE",
"362 69 LINE",
"214 69 LINE",
"260 305 LINE",
"389 363 LINE",
"363 422 LINE",
"275 382 LINE",
"307 546 LINE",
"391 569 LINE",
"400 614 LINE",
"104 614 LINE",
"95 569 LINE",
"171 546 LINE",
"126 315 LINE",
"13 265 LINE",
"38 206 LINE",
"111 238 LINE",
"78 69 LINE",
"-6 45 LINE",
"-14 0 LINE",
"426 0 LINE"
);
}
);
};
layerId = "91FB354D-039B-406A-8F87-4ABC8510003D";
paths = (
{
closed = 1;
nodes = (
"457 162 LINE",
"404 162 LINE",
"362 69 LINE",
"214 69 LINE",
"260 305 LINE",
"389 363 LINE",
"363 422 LINE",
"275 382 LINE",
"307 546 LINE",
"391 569 LINE",
"400 614 LINE",
"104 614 LINE",
"95 569 LINE",
"171 546 LINE",
"126 315 LINE",
"13 265 LINE",
"38 206 LINE",
"111 238 LINE",
"78 69 LINE",
"-6 45 LINE",
"-14 0 LINE",
"426 0 LINE"
);
}
);
width = 464;
}
);
rightKerningGroup = L;
unicode = 0141;
},
{
color = 11;
glyphname = M;
lastChange = "2015-02-19 03:26:13 +0000";
layers = (
{
anchors = (
{
name = bottom;
position = "{349, 0}";
},
{
name = top;
position = "{468, 611}";
}
);
background = {
paths = (
{
closed = 1;
nodes = (
"215 33 LINE",
"136 53 LINE",
"239 511 LINE",
"310 -10 LINE",
"359 0 LINE",
"627 508 LINE",
"554 53 LINE",
"466 33 LINE",
"460 0 LINE",
"709 0 LINE",
"715 33 LINE",
"633 53 LINE",
"713 558 LINE",
"802 578 LINE",
"808 611 LINE",
"625 611 LINE",
"370 118 LINE",
"303 611 LINE",
"133 611 LINE",
"127 578 LINE",
"198 559 LINE",
"84 53 LINE",
"4 33 LINE",
"-2 0 LINE",
"209 0 LINE"
);
}
);
};
layerId = "27799D80-F866-457E-9382-0097DC0AFC53";
paths = (
{
closed = 1;
nodes = (
"215 33 LINE",
"136 53 LINE",
"239 511 LINE",
"310 -10 LINE",
"359 0 LINE",
"627 508 LINE",
"554 53 LINE",
"466 33 LINE",
"460 0 LINE",
"709 0 LINE",
"715 33 LINE",
"633 53 LINE",
"713 558 LINE",
"802 578 LINE",
"808 611 LINE",
"625 611 LINE",
"370 118 LINE",
"303 611 LINE",
"133 611 LINE",
"127 578 LINE",
"198 559 LINE",
"84 53 LINE",
"4 33 LINE",
"-2 0 LINE",
"209 0 LINE"
);
}
);
width = 794;
},
{
anchors = (
{
name = bottom;
position = "{347, 0}";
},
{
name = top;
position = "{467, 614}";
}
);
background = {
paths = (
{
closed = 1;
nodes = (
"208 45 LINE",
"133 69 LINE",
"218 415 LINE",
"278 -10 LINE",
"366 4 LINE",
"583 421 LINE",
"533 69 LINE",
"449 45 LINE",
"440 0 LINE",
"731 0 LINE",
"740 45 LINE",
"666 69 LINE",
"735 546 LINE",
"820 569 LINE",
"828 614 LINE",
"609 614 LINE",
"381 163 LINE",
"322 614 LINE",
"112 614 LINE",
"104 569 LINE",
"178 546 LINE",
"63 69 LINE",
"-20 45 LINE",
"-29 0 LINE",
"199 0 LINE"
);
}
);
};
layerId = "91FB354D-039B-406A-8F87-4ABC8510003D";
paths = (
{
closed = 1;
nodes = (
"208 45 LINE",
"133 69 LINE",
"218 415 LINE",
"278 -10 LINE",
"366 4 LINE",
"583 421 LINE",
"533 69 LINE",
"449 45 LINE",
"440 0 LINE",
"731 0 LINE",
"740 45 LINE",
"666 69 LINE",
"735 546 LINE",
"820 569 LINE",
"828 614 LINE",
"609 614 LINE",
"381 163 LINE",
"322 614 LINE",
"112 614 LINE",
"104 569 LINE",
"178 546 LINE",
"63 69 LINE",
"-20 45 LINE",
"-29 0 LINE",
"199 0 LINE"
);
}
);
width = 790;
}
);
unicode = 004D;
},
{
color = 11;
glyphname = N;
lastChange = "2015-02-19 03:26:13 +0000";
layers = (
{
anchors = (
{
name = bottom;
position = "{290, 0}";
},
{
name = top;
position = "{409, 611}";
}
);
background = {
paths = (
{
closed = 1;
nodes = (
"490 578 LINE",
"566 559 LINE",
"483 130 LINE",
"234 611 LINE",
"104 611 LINE",
"98 578 LINE",
"169 559 LINE",
"71 53 LINE",
"-8 33 LINE",
"-14 0 LINE",
"197 0 LINE",
"203 33 LINE",
"126 53 LINE",
"210 488 LINE",
"464 -8 LINE",
"510 0 LINE",
"618 559 LINE",
"699 578 LINE",
"705 611 LINE",
"496 611 LINE"
);
}
);
};
layerId = "27799D80-F866-457E-9382-0097DC0AFC53";
paths = (
{
closed = 1;
nodes = (
"490 578 LINE",
"566 559 LINE",
"483 130 LINE",
"234 611 LINE",
"104 611 LINE",
"98 578 LINE",
"169 559 LINE",
"71 53 LINE",
"-8 33 LINE",
"-14 0 LINE",
"197 0 LINE",
"203 33 LINE",
"126 53 LINE",
"210 488 LINE",
"464 -8 LINE",
"510 0 LINE",
"618 559 LINE",
"699 578 LINE",
"705 611 LINE",
"496 611 LINE"
);
}
);
width = 676;
},
{
anchors = (
{
name = bottom;
position = "{287, 0}";
},
{
name = top;
position = "{407, 614}";
}
);
background = {
paths = (
{
closed = 1;
nodes = (
"478 569 LINE",
"553 546 LINE",
"482 172 LINE",
"290 614 LINE",
"105 614 LINE",
"97 569 LINE",
"172 546 LINE",
"80 69 LINE",
"-4 45 LINE",
"-13 0 LINE",
"218 0 LINE",
"227 45 LINE",
"152 69 LINE",
"223 437 LINE",
"417 -12 LINE",
"520 0 LINE",
"626 546 LINE",
"711 569 LINE",
"719 614 LINE",
"486 614 LINE"
);
}
);
};
layerId = "91FB354D-039B-406A-8F87-4ABC8510003D";
paths = (
{
closed = 1;
nodes = (
"478 569 LINE",
"553 546 LINE",
"482 172 LINE",
"290 614 LINE",
"105 614 LINE",
"97 569 LINE",
"172 546 LINE",
"80 69 LINE",
"-4 45 LINE",
"-13 0 LINE",
"218 0 LINE",
"227 45 LINE",
"152 69 LINE",
"223 437 LINE",
"417 -12 LINE",
"520 0 LINE",
"626 546 LINE",
"711 569 LINE",
"719 614 LINE",
"486 614 LINE"
);
}
);
width = 669;
}
);
rightKerningGroup = N;
unicode = 004E;
},
{
color = 11;
glyphname = Nacute;
lastChange = "2015-02-19 03:26:13 +0000";
layers = (
{
background = {
paths = (
{
closed = 1;
nodes = (
"500 578 LINE",
"576 559 LINE",
"493 130 LINE",
"244 611 LINE",
"114 611 LINE",
"108 578 LINE",
"179 559 LINE",
"81 53 LINE",
"2 33 LINE",
"-4 0 LINE",
"207 0 LINE",
"213 33 LINE",
"136 53 LINE",
"220 488 LINE",
"474 -8 LINE",
"520 0 LINE",
"628 559 LINE",
"709 578 LINE",
"715 611 LINE",
"506 611 LINE"
);
},
{
closed = 1;
nodes = (
"570 754 LINE",
"570 772 LINE",
"494 800 LINE",
"340 670 LINE",
"356 651 LINE"
);
}
);
};
layerId = "27799D80-F866-457E-9382-0097DC0AFC53";
paths = (
{
closed = 1;
nodes = (
"500 578 LINE",
"576 559 LINE",
"493 130 LINE",
"244 611 LINE",
"114 611 LINE",
"108 578 LINE",
"179 559 LINE",
"81 53 LINE",
"2 33 LINE",
"-4 0 LINE",
"207 0 LINE",
"213 33 LINE",
"136 53 LINE",
"220 488 LINE",
"474 -8 LINE",
"520 0 LINE",
"628 559 LINE",
"709 578 LINE",
"715 611 LINE",
"506 611 LINE"
);
},
{
closed = 1;
nodes = (
"570 754 LINE",
"570 772 LINE",
"494 800 LINE",
"340 670 LINE",
"356 651 LINE"
);
}
);
width = 706;
},
{
background = {
paths = (
{
closed = 1;
nodes = (
"478 569 LINE",
"553 546 LINE",
"482 172 LINE",
"290 614 LINE",
"105 614 LINE",
"97 569 LINE",
"172 546 LINE",
"80 69 LINE",
"-4 45 LINE",
"-13 0 LINE",
"218 0 LINE",
"227 45 LINE",
"152 69 LINE",
"223 437 LINE",
"417 -12 LINE",
"520 0 LINE",
"626 546 LINE",
"711 569 LINE",
"719 614 LINE",
"486 614 LINE"
);
},
{
closed = 1;
nodes = (
"595 743 LINE",
"595 766 LINE",
"496 800 LINE",
"340 669 LINE",
"367 634 LINE"
);
}
);
};
layerId = "91FB354D-039B-406A-8F87-4ABC8510003D";
paths = (
{
closed = 1;
nodes = (
"478 569 LINE",
"553 546 LINE",
"482 172 LINE",
"290 614 LINE",
"105 614 LINE",
"97 569 LINE",
"172 546 LINE",
"80 69 LINE",
"-4 45 LINE",
"-13 0 LINE",
"218 0 LINE",
"227 45 LINE",
"152 69 LINE",
"223 437 LINE",
"417 -12 LINE",
"520 0 LINE",
"626 546 LINE",
"711 569 LINE",
"719 614 LINE",
"486 614 LINE"
);
},
{
closed = 1;
nodes = (
"595 743 LINE",
"595 766 LINE",
"496 800 LINE",
"340 669 LINE",
"367 634 LINE"
);
}
);
width = 669;
}
);
rightKerningGroup = N;
unicode = 0143;
},
{
color = 11;
glyphname = Ncaron;
lastChange = "2015-02-19 03:26:13 +0000";
layers = (
{
background = {
paths = (
{
closed = 1;
nodes = (
"500 578 LINE",
"576 559 LINE",
"493 130 LINE",
"244 611 LINE",
"114 611 LINE",
"108 578 LINE",
"179 559 LINE",
"81 53 LINE",
"2 33 LINE",
"-4 0 LINE",
"207 0 LINE",
"213 33 LINE",
"136 53 LINE",
"220 488 LINE",
"474 -8 LINE",
"520 0 LINE",
"628 559 LINE",
"709 578 LINE",
"715 611 LINE",
"506 611 LINE"
);
},
{
closed = 1;
nodes = (
"290 786 LINE",
"379 651 LINE",
"439 651 LINE",
"569 786 LINE",
"549 805 LINE",
"419 722 LINE",
"317 804 LINE"
);
}
);
};
layerId = "27799D80-F866-457E-9382-0097DC0AFC53";
paths = (
{
closed = 1;
nodes = (
"500 578 LINE",
"576 559 LINE",
"493 130 LINE",
"244 611 LINE",
"114 611 LINE",
"108 578 LINE",
"179 559 LINE",
"81 53 LINE",
"2 33 LINE",
"-4 0 LINE",
"207 0 LINE",
"213 33 LINE",
"136 53 LINE",
"220 488 LINE",
"474 -8 LINE",
"520 0 LINE",
"628 559 LINE",
"709 578 LINE",
"715 611 LINE",
"506 611 LINE"
);
},
{
closed = 1;
nodes = (
"290 786 LINE",
"379 651 LINE",
"439 651 LINE",
"569 786 LINE",
"549 805 LINE",
"419 722 LINE",
"317 804 LINE"
);
}
);
width = 706;
},
{
background = {
paths = (
{
closed = 1;
nodes = (
"478 569 LINE",
"553 546 LINE",
"482 172 LINE",
"290 614 LINE",
"105 614 LINE",
"97 569 LINE",
"172 546 LINE",
"80 69 LINE",
"-4 45 LINE",
"-13 0 LINE",
"218 0 LINE",
"227 45 LINE",
"152 69 LINE",
"223 437 LINE",
"417 -12 LINE",
"520 0 LINE",
"626 546 LINE",
"711 569 LINE",
"719 614 LINE",
"486 614 LINE"
);
},
{
closed = 1;
nodes = (
"297 769 LINE",
"379 639 LINE",
"464 639 LINE",
"592 765 LINE",
"569 795 LINE",
"435 727 LINE",
"327 795 LINE"
);
}
);
};
layerId = "91FB354D-039B-406A-8F87-4ABC8510003D";
paths = (
{
closed = 1;
nodes = (
"478 569 LINE",
"553 546 LINE",
"482 172 LINE",
"290 614 LINE",
"105 614 LINE",
"97 569 LINE",
"172 546 LINE",
"80 69 LINE",
"-4 45 LINE",
"-13 0 LINE",
"218 0 LINE",
"227 45 LINE",
"152 69 LINE",
"223 437 LINE",
"417 -12 LINE",
"520 0 LINE",
"626 546 LINE",
"711 569 LINE",
"719 614 LINE",
"486 614 LINE"
);
},
{
closed = 1;
nodes = (
"297 769 LINE",
"379 639 LINE",
"464 639 LINE",
"592 765 LINE",
"569 795 LINE",
"435 727 LINE",
"327 795 LINE"
);
}
);
width = 669;
}
);
rightKerningGroup = N;
unicode = 0147;
},
{
color = 11;
glyphname = Ncommaaccent;
lastChange = "2015-02-19 03:26:13 +0000";
layers = (
{
background = {
paths = (
{
closed = 1;
nodes = (
"500 578 LINE",
"576 559 LINE",
"493 130 LINE",
"244 611 LINE",
"114 611 LINE",
"108 578 LINE",
"179 559 LINE",
"81 53 LINE",
"2 33 LINE",
"-4 0 LINE",
"207 0 LINE",
"213 33 LINE",
"136 53 LINE",
"220 488 LINE",
"474 -8 LINE",
"520 0 LINE",
"628 559 LINE",
"709 578 LINE",
"715 611 LINE",
"506 611 LINE"
);
},
{
closed = 1;
nodes = (
"256 -47 LINE",
"221 -214 LINE",
"246 -221 LINE",
"346 -48 LINE",
"331 -31 LINE"
);
}
);
};
layerId = "27799D80-F866-457E-9382-0097DC0AFC53";
paths = (
{
closed = 1;
nodes = (
"500 578 LINE",
"576 559 LINE",
"493 130 LINE",
"244 611 LINE",
"114 611 LINE",
"108 578 LINE",
"179 559 LINE",
"81 53 LINE",
"2 33 LINE",
"-4 0 LINE",
"207 0 LINE",
"213 33 LINE",
"136 53 LINE",
"220 488 LINE",
"474 -8 LINE",
"520 0 LINE",
"628 559 LINE",
"709 578 LINE",
"715 611 LINE",
"506 611 LINE"
);
},
{
closed = 1;
nodes = (
"256 -47 LINE",
"221 -214 LINE",
"246 -221 LINE",
"346 -48 LINE",
"331 -31 LINE"
);
}
);
width = 706;
},
{
background = {
paths = (
{
closed = 1;
nodes = (
"478 569 LINE",
"553 546 LINE",
"482 172 LINE",
"290 614 LINE",
"105 614 LINE",
"97 569 LINE",
"172 546 LINE",
"80 69 LINE",
"-4 45 LINE",
"-13 0 LINE",
"218 0 LINE",
"227 45 LINE",
"152 69 LINE",
"223 437 LINE",
"417 -12 LINE",
"520 0 LINE",
"626 546 LINE",
"711 569 LINE",
"719 614 LINE",
"486 614 LINE"
);
},
{
closed = 1;
nodes = (
"374 -48 LINE",
"352 -24 LINE",
"260 -44 LINE",
"224 -225 LINE",
"264 -236 LINE"
);
}
);
};
layerId = "91FB354D-039B-406A-8F87-4ABC8510003D";
paths = (
{
closed = 1;
nodes = (
"478 569 LINE",
"553 546 LINE",
"482 172 LINE",
"290 614 LINE",
"105 614 LINE",
"97 569 LINE",
"172 546 LINE",
"80 69 LINE",
"-4 45 LINE",
"-13 0 LINE",
"218 0 LINE",
"227 45 LINE",
"152 69 LINE",
"223 437 LINE",
"417 -12 LINE",
"520 0 LINE",
"626 546 LINE",
"711 569 LINE",
"719 614 LINE",
"486 614 LINE"
);
},
{
closed = 1;
nodes = (
"374 -48 LINE",
"352 -24 LINE",
"260 -44 LINE",
"224 -225 LINE",
"264 -236 LINE"
);
}
);
width = 669;
}
);
rightKerningGroup = N;
unicode = 0145;
},
{
color = 0;
glyphname = Eng;
lastChange = "2015-02-18 19:19:55 +0000";
layers = (
{
background = {
paths = (
{
closed = 1;
nodes = (
"490 578 LINE",
"566 559 LINE",
"483 130 LINE",
"234 611 LINE",
"104 611 LINE",
"98 578 LINE",
"169 559 LINE",
"71 53 LINE",
"-8 33 LINE",
"-14 0 LINE",
"197 0 LINE",
"203 33 LINE",
"126 53 LINE",
"210 488 LINE",
"438 42 LINE",
"425 -67 OFFCURVE",
"394 -112 OFFCURVE",
"319 -112 CURVE SMOOTH",
"291 -112 OFFCURVE",
"265 -109 OFFCURVE",
"237 -101 CURVE",
"229 -138 LINE",
"258 -154 OFFCURVE",
"290 -167 OFFCURVE",
"333 -167 CURVE SMOOTH",
"437 -167 OFFCURVE",
"488 -116 OFFCURVE",
"522 63 CURVE SMOOTH",
"618 559 LINE",
"699 578 LINE",
"705 611 LINE",
"496 611 LINE"
);
}
);
};
layerId = "27799D80-F866-457E-9382-0097DC0AFC53";
paths = (
{
closed = 1;
nodes = (
"490 578 LINE",
"566 559 LINE",
"483 130 LINE",
"234 611 LINE",
"104 611 LINE",
"98 578 LINE",
"169 559 LINE",
"71 53 LINE",
"-8 33 LINE",
"-14 0 LINE",
"197 0 LINE",
"203 33 LINE",
"126 53 LINE",
"210 488 LINE",
"438 42 LINE",
"425 -67 OFFCURVE",
"394 -112 OFFCURVE",
"319 -112 CURVE SMOOTH",
"291 -112 OFFCURVE",
"265 -109 OFFCURVE",
"237 -101 CURVE",
"229 -138 LINE",
"258 -154 OFFCURVE",
"290 -167 OFFCURVE",
"333 -167 CURVE SMOOTH",
"437 -167 OFFCURVE",
"488 -116 OFFCURVE",
"522 63 CURVE SMOOTH",
"618 559 LINE",
"699 578 LINE",
"705 611 LINE",
"496 611 LINE"
);
}
);
width = 676;
},
{
background = {
paths = (
{
closed = 1;
nodes = (
"478 569 LINE",
"553 546 LINE",
"482 172 LINE",
"290 614 LINE",
"105 614 LINE",
"97 569 LINE",
"172 546 LINE",
"80 69 LINE",
"-4 45 LINE",
"-13 0 LINE",
"218 0 LINE",
"227 45 LINE",
"152 69 LINE",
"223 437 LINE",
"395 38 LINE",
"384 -61 OFFCURVE",
"354 -113 OFFCURVE",
"289 -113 CURVE SMOOTH",
"268 -113 OFFCURVE",
"235 -109 OFFCURVE",
"214 -98 CURVE",
"197 -150 LINE",
"227 -166 OFFCURVE",
"277 -184 OFFCURVE",
"323 -184 CURVE SMOOTH",
"423 -184 OFFCURVE",
"499 -129 OFFCURVE",
"532 63 CURVE SMOOTH",
"626 546 LINE",
"711 569 LINE",
"719 614 LINE",
"486 614 LINE"
);
}
);
};
layerId = "91FB354D-039B-406A-8F87-4ABC8510003D";
paths = (
{
closed = 1;
nodes = (
"478 569 LINE",
"553 546 LINE",
"482 172 LINE",
"290 614 LINE",
"105 614 LINE",
"97 569 LINE",
"172 546 LINE",
"80 69 LINE",
"-4 45 LINE",
"-13 0 LINE",
"218 0 LINE",
"227 45 LINE",
"152 69 LINE",
"223 437 LINE",
"395 38 LINE",
"384 -61 OFFCURVE",
"354 -113 OFFCURVE",
"289 -113 CURVE SMOOTH",
"268 -113 OFFCURVE",
"235 -109 OFFCURVE",
"214 -98 CURVE",
"197 -150 LINE",
"227 -166 OFFCURVE",
"277 -184 OFFCURVE",
"323 -184 CURVE SMOOTH",
"423 -184 OFFCURVE",
"499 -129 OFFCURVE",
"532 63 CURVE SMOOTH",
"626 546 LINE",
"711 569 LINE",
"719 614 LINE",
"486 614 LINE"
);
}
);
width = 669;
}
);
unicode = 014A;
},
{
color = 0;
glyphname = Nhookleft;
lastChange = "2015-02-19 21:17:34 +0000";
layers = (
{
anchors = (
{
name = bottom;
position = "{290, 0}";
},
{
name = top;
position = "{409, 611}";
}
);
background = {
anchors = (
{
name = bottom;
position = "{217, 0}";
},
{
name = top;
position = "{187, 493}";
}
);
paths = (
{
closed = 1;
nodes = (
"171 575 LINE",
"70 0 LINE SMOOTH",
"55 -87 OFFCURVE",
"16 -112 OFFCURVE",
"-46 -112 CURVE SMOOTH",
"-74 -112 OFFCURVE",
"-101 -107 OFFCURVE",
"-123 -101 CURVE",
"-131 -138 LINE",
"-108 -153 OFFCURVE",
"-73 -167 OFFCURVE",
"-31 -167 CURVE SMOOTH",
"52 -167 OFFCURVE",
"106 -112 OFFCURVE",
"124 -10 CURVE SMOOTH",
"203 442 OFFCURVE",
"216 518 OFFCURVE",
"216 527 CURVE"
);
}
);
};
layerId = "27799D80-F866-457E-9382-0097DC0AFC53";
paths = (
{
closed = 1;
nodes = (
"490 578 LINE",
"566 559 LINE",
"483 130 LINE",
"234 611 LINE",
"104 611 LINE",
"98 578 LINE",
"168 559 LINE",
"70 0 LINE SMOOTH",
"55 -87 OFFCURVE",
"16 -112 OFFCURVE",
"-46 -112 CURVE SMOOTH",
"-74 -112 OFFCURVE",
"-101 -107 OFFCURVE",
"-123 -101 CURVE",
"-131 -138 LINE",
"-108 -153 OFFCURVE",
"-73 -167 OFFCURVE",
"-31 -167 CURVE SMOOTH",
"52 -167 OFFCURVE",
"106 -112 OFFCURVE",
"124 -10 CURVE SMOOTH",
"178 297 OFFCURVE",
"201 430 OFFCURVE",
"210 487 CURVE",
"464 -8 LINE",
"510 0 LINE",
"618 559 LINE",
"699 578 LINE",
"705 611 LINE",
"496 611 LINE"
);
}
);
width = 676;
},
{
anchors = (
{
name = bottom;
position = "{287, 0}";
},
{
name = top;
position = "{407, 614}";
}
);
background = {
anchors = (
{
name = bottom;
position = "{246, 0}";
},
{
name = top;
position = "{194, 492}";
}
);
paths = (
{
closed = 1;
nodes = (
"176 566 LINE",
"63 -16 LINE SMOOTH",
"49 -88 OFFCURVE",
"11 -113 OFFCURVE",
"-37 -113 CURVE SMOOTH",
"-60 -113 OFFCURVE",
"-86 -107 OFFCURVE",
"-108 -98 CURVE",
"-125 -150 LINE",
"-103 -165 OFFCURVE",
"-69 -184 OFFCURVE",
"-21 -184 CURVE SMOOTH",
"67 -184 OFFCURVE",
"116 -122 OFFCURVE",
"135 -25 CURVE SMOOTH",
"169 149 OFFCURVE",
"233 490 OFFCURVE",
"233 492 CURVE"
);
}
);
};
layerId = "91FB354D-039B-406A-8F87-4ABC8510003D";
paths = (
{
closed = 1;
nodes = (
"478 569 LINE",
"553 546 LINE",
"482 172 LINE",
"290 614 LINE",
"105 614 LINE",
"97 569 LINE",
"172 546 LINE",
"63 -16 LINE SMOOTH",
"49 -88 OFFCURVE",
"11 -113 OFFCURVE",
"-37 -113 CURVE SMOOTH",
"-60 -113 OFFCURVE",
"-86 -107 OFFCURVE",
"-108 -98 CURVE",
"-125 -150 LINE",
"-103 -165 OFFCURVE",
"-69 -184 OFFCURVE",
"-21 -184 CURVE SMOOTH",
"67 -184 OFFCURVE",
"116 -122 OFFCURVE",
"135 -25 CURVE SMOOTH",
"161 107 OFFCURVE",
"204 334 OFFCURVE",
"223 438 CURVE",
"417 -12 LINE",
"520 0 LINE",
"626 546 LINE",
"711 569 LINE",
"719 614 LINE",
"486 614 LINE"
);
}
);
width = 669;
}
);
unicode = 019D;
},
{
color = 11;
glyphname = Ntilde;
lastChange = "2015-02-19 03:26:13 +0000";
layers = (
{
background = {
paths = (
{
closed = 1;
nodes = (
"500 578 LINE",
"576 559 LINE",
"493 130 LINE",
"244 611 LINE",
"114 611 LINE",
"108 578 LINE",
"179 559 LINE",
"81 53 LINE",
"2 33 LINE",
"-4 0 LINE",
"207 0 LINE",
"213 33 LINE",
"136 53 LINE",
"220 488 LINE",
"474 -8 LINE",
"520 0 LINE",
"628 559 LINE",
"709 578 LINE",
"715 611 LINE",
"506 611 LINE"
);
},
{
closed = 1;
nodes = (
"559 777 LINE",
"559 777 OFFCURVE",
"539 742 OFFCURVE",
"516 742 CURVE SMOOTH",
"481 742 OFFCURVE",
"398 782 OFFCURVE",
"364 782 CURVE SMOOTH",
"331 782 OFFCURVE",
"309 738 OFFCURVE",
"288 686 CURVE",
"318 674 LINE",
"318 674 OFFCURVE",
"341 710 OFFCURVE",
"363 710 CURVE SMOOTH",
"396 710 OFFCURVE",
"481 670 OFFCURVE",
"515 670 CURVE SMOOTH",
"547 670 OFFCURVE",
"569 714 OFFCURVE",
"590 765 CURVE"
);
}
);
};
layerId = "27799D80-F866-457E-9382-0097DC0AFC53";
paths = (
{
closed = 1;
nodes = (
"500 578 LINE",
"576 559 LINE",
"493 130 LINE",
"244 611 LINE",
"114 611 LINE",
"108 578 LINE",
"179 559 LINE",
"81 53 LINE",
"2 33 LINE",
"-4 0 LINE",
"207 0 LINE",
"213 33 LINE",
"136 53 LINE",
"220 488 LINE",
"474 -8 LINE",
"520 0 LINE",
"628 559 LINE",
"709 578 LINE",
"715 611 LINE",
"506 611 LINE"
);
},
{
closed = 1;
nodes = (
"559 777 LINE",
"559 777 OFFCURVE",
"539 742 OFFCURVE",
"516 742 CURVE SMOOTH",
"481 742 OFFCURVE",
"398 782 OFFCURVE",
"364 782 CURVE SMOOTH",
"331 782 OFFCURVE",
"309 738 OFFCURVE",
"288 686 CURVE",
"318 674 LINE",
"318 674 OFFCURVE",
"341 710 OFFCURVE",
"363 710 CURVE SMOOTH",
"396 710 OFFCURVE",
"481 670 OFFCURVE",
"515 670 CURVE SMOOTH",
"547 670 OFFCURVE",
"569 714 OFFCURVE",
"590 765 CURVE"
);
}
);
width = 706;
},
{
background = {
paths = (
{
closed = 1;
nodes = (
"478 569 LINE",
"553 546 LINE",
"482 172 LINE",
"290 614 LINE",
"105 614 LINE",
"97 569 LINE",
"172 546 LINE",
"80 69 LINE",
"-4 45 LINE",
"-13 0 LINE",
"218 0 LINE",
"227 45 LINE",
"152 69 LINE",
"223 437 LINE",
"417 -12 LINE",
"520 0 LINE",
"626 546 LINE",
"711 569 LINE",
"719 614 LINE",
"486 614 LINE"
);
},
{
closed = 1;
nodes = (
"563 778 LINE",
"563 778 OFFCURVE",
"546 747 OFFCURVE",
"521 747 CURVE SMOOTH",
"482 747 OFFCURVE",
"394 784 OFFCURVE",
"345 784 CURVE SMOOTH",
"312 784 OFFCURVE",
"278 738 OFFCURVE",
"258 680 CURVE",
"305 661 LINE",
"305 661 OFFCURVE",
"321 692 OFFCURVE",
"345 692 CURVE SMOOTH",
"383 692 OFFCURVE",
"472 655 OFFCURVE",
"521 655 CURVE SMOOTH",
"555 655 OFFCURVE",
"583 701 OFFCURVE",
"607 759 CURVE"
);
}
);
};
layerId = "91FB354D-039B-406A-8F87-4ABC8510003D";
paths = (
{
closed = 1;
nodes = (
"478 569 LINE",
"553 546 LINE",
"482 172 LINE",
"290 614 LINE",
"105 614 LINE",
"97 569 LINE",
"172 546 LINE",
"80 69 LINE",
"-4 45 LINE",
"-13 0 LINE",
"218 0 LINE",
"227 45 LINE",
"152 69 LINE",
"223 437 LINE",
"417 -12 LINE",
"520 0 LINE",
"626 546 LINE",
"711 569 LINE",
"719 614 LINE",
"486 614 LINE"
);
},
{
closed = 1;
nodes = (
"563 778 LINE",
"563 778 OFFCURVE",
"546 747 OFFCURVE",
"521 747 CURVE SMOOTH",
"482 747 OFFCURVE",
"394 784 OFFCURVE",
"345 784 CURVE SMOOTH",
"312 784 OFFCURVE",
"278 738 OFFCURVE",
"258 680 CURVE",
"305 661 LINE",
"305 661 OFFCURVE",
"321 692 OFFCURVE",
"345 692 CURVE SMOOTH",
"383 692 OFFCURVE",
"472 655 OFFCURVE",
"521 655 CURVE SMOOTH",
"555 655 OFFCURVE",
"583 701 OFFCURVE",
"607 759 CURVE"
);
}
);
width = 669;
}
);
rightKerningGroup = N;
unicode = 00D1;
},
{
color = 11;
glyphname = O;
lastChange = "2015-02-19 03:26:13 +0000";
layers = (
{
anchors = (
{
name = bottom;
position = "{262, 0}";
},
{
name = center;
position = "{321, 306}";
},
{
name = top;
position = "{381, 611}";
},
{
name = topright;
position = "{616, 639}";
}
);
background = {
paths = (
{
closed = 1;
nodes = (
"163 626 OFFCURVE",
"42 426 OFFCURVE",
"42 215 CURVE SMOOTH",
"42 86 OFFCURVE",
"105 -9 OFFCURVE",
"262 -9 CURVE SMOOTH",
"486 -9 OFFCURVE",
"603 192 OFFCURVE",
"603 406 CURVE SMOOTH",
"603 533 OFFCURVE",
"543 626 OFFCURVE",
"385 626 CURVE SMOOTH"
);
},
{
closed = 1;
nodes = (
"132 311 OFFCURVE",
"176 578 OFFCURVE",
"373 578 CURVE SMOOTH",
"483 578 OFFCURVE",
"515 499 OFFCURVE",
"515 401 CURVE SMOOTH",
"515 257 OFFCURVE",
"451 39 OFFCURVE",
"271 39 CURVE SMOOTH",
"167 39 OFFCURVE",
"132 114 OFFCURVE",
"132 217 CURVE SMOOTH"
);
}
);
};
guideLines = (
{
angle = 79;
position = "{307, 233}";
}
);
layerId = "27799D80-F866-457E-9382-0097DC0AFC53";
paths = (
{
closed = 1;
nodes = (
"163 626 OFFCURVE",
"42 426 OFFCURVE",
"42 215 CURVE SMOOTH",
"42 86 OFFCURVE",
"105 -9 OFFCURVE",
"262 -9 CURVE SMOOTH",
"486 -9 OFFCURVE",
"603 192 OFFCURVE",
"603 406 CURVE SMOOTH",
"603 533 OFFCURVE",
"543 626 OFFCURVE",
"385 626 CURVE SMOOTH"
);
},
{
closed = 1;
nodes = (
"132 311 OFFCURVE",
"176 578 OFFCURVE",
"373 578 CURVE SMOOTH",
"483 578 OFFCURVE",
"515 499 OFFCURVE",
"515 401 CURVE SMOOTH",
"515 257 OFFCURVE",
"451 39 OFFCURVE",
"271 39 CURVE SMOOTH",
"167 39 OFFCURVE",
"132 114 OFFCURVE",
"132 217 CURVE SMOOTH"
);
}
);
width = 623;
},
{
anchors = (
{
name = bottom;
position = "{267, 0}";
},
{
name = center;
position = "{327, 307}";
},
{
name = top;
position = "{387, 614}";
},
{
name = topright;
position = "{636, 649}";
}
);
background = {
paths = (
{
closed = 1;
nodes = (
"494 -10 OFFCURVE",
"618 201 OFFCURVE",
"618 418 CURVE SMOOTH",
"618 539 OFFCURVE",
"560 628 OFFCURVE",
"389 628 CURVE SMOOTH",
"160 628 OFFCURVE",
"36 422 OFFCURVE",
"36 208 CURVE SMOOTH",
"36 65 OFFCURVE",
"96 -10 OFFCURVE",
"265 -10 CURVE SMOOTH"
);
},
{
closed = 1;
nodes = (
"197 58 OFFCURVE",
"183 112 OFFCURVE",
"183 203 CURVE SMOOTH",
"183 298 OFFCURVE",
"212 560 OFFCURVE",
"376 560 CURVE SMOOTH",
"451 560 OFFCURVE",
"471 512 OFFCURVE",
"471 422 CURVE SMOOTH",
"471 269 OFFCURVE",
"426 58 OFFCURVE",
"279 58 CURVE SMOOTH"
);
}
);
};
guideLines = (
{
angle = 79;
position = "{313, 233}";
}
);
layerId = "91FB354D-039B-406A-8F87-4ABC8510003D";
paths = (
{
closed = 1;
nodes = (
"494 -10 OFFCURVE",
"618 201 OFFCURVE",
"618 418 CURVE SMOOTH",
"618 539 OFFCURVE",
"560 628 OFFCURVE",
"389 628 CURVE SMOOTH",
"160 628 OFFCURVE",
"36 422 OFFCURVE",
"36 208 CURVE SMOOTH",
"36 65 OFFCURVE",
"96 -10 OFFCURVE",
"265 -10 CURVE SMOOTH"
);
},
{
closed = 1;
nodes = (
"197 58 OFFCURVE",
"183 112 OFFCURVE",
"183 203 CURVE SMOOTH",
"183 298 OFFCURVE",
"212 560 OFFCURVE",
"376 560 CURVE SMOOTH",
"451 560 OFFCURVE",
"471 512 OFFCURVE",
"471 422 CURVE SMOOTH",
"471 269 OFFCURVE",
"426 58 OFFCURVE",
"279 58 CURVE SMOOTH"
);
}
);
width = 630;
}
);
leftKerningGroup = O;
rightKerningGroup = O;
unicode = 004F;
},
{
color = 11;
glyphname = Oacute;
lastChange = "2015-02-21 01:20:21 +0000";
layers = (
{
background = {
paths = (
{
closed = 1;
nodes = (
"163 626 OFFCURVE",
"42 426 OFFCURVE",
"42 215 CURVE SMOOTH",
"42 86 OFFCURVE",
"105 -9 OFFCURVE",
"262 -9 CURVE SMOOTH",
"486 -9 OFFCURVE",
"603 192 OFFCURVE",
"603 406 CURVE SMOOTH",
"603 533 OFFCURVE",
"543 626 OFFCURVE",
"385 626 CURVE SMOOTH"
);
},
{
closed = 1;
nodes = (
"132 311 OFFCURVE",
"176 578 OFFCURVE",
"373 578 CURVE SMOOTH",
"483 578 OFFCURVE",
"515 499 OFFCURVE",
"515 401 CURVE SMOOTH",
"515 257 OFFCURVE",
"451 39 OFFCURVE",
"271 39 CURVE SMOOTH",
"167 39 OFFCURVE",
"132 114 OFFCURVE",
"132 217 CURVE SMOOTH"
);
},
{
closed = 1;
nodes = (
"533 754 LINE",
"533 772 LINE",
"457 800 LINE",
"303 670 LINE",
"319 651 LINE"
);
}
);
};
components = (
{
name = O;
},
{
anchor = top;
name = acute.case;
transform = "{1, 0, 0, 1, 231, 0}";
}
);
layerId = "27799D80-F866-457E-9382-0097DC0AFC53";
width = 623;
},
{
background = {
paths = (
{
closed = 1;
nodes = (
"494 -10 OFFCURVE",
"618 201 OFFCURVE",
"618 418 CURVE SMOOTH",
"618 539 OFFCURVE",
"560 628 OFFCURVE",
"389 628 CURVE SMOOTH",
"160 628 OFFCURVE",
"36 422 OFFCURVE",
"36 208 CURVE SMOOTH",
"36 65 OFFCURVE",
"96 -10 OFFCURVE",
"265 -10 CURVE SMOOTH"
);
},
{
closed = 1;
nodes = (
"197 58 OFFCURVE",
"183 112 OFFCURVE",
"183 203 CURVE SMOOTH",
"183 298 OFFCURVE",
"212 560 OFFCURVE",
"376 560 CURVE SMOOTH",
"451 560 OFFCURVE",
"471 512 OFFCURVE",
"471 422 CURVE SMOOTH",
"471 269 OFFCURVE",
"426 58 OFFCURVE",
"279 58 CURVE SMOOTH"
);
},
{
closed = 1;
nodes = (
"567 743 LINE",
"567 766 LINE",
"468 800 LINE",
"312 669 LINE",
"339 634 LINE"
);
}
);
};
components = (
{
name = O;
},
{
anchor = top;
name = acute.case;
transform = "{1, 0, 0, 1, 245, 0}";
}
);
layerId = "91FB354D-039B-406A-8F87-4ABC8510003D";
width = 630;
}
);
leftKerningGroup = O;
rightKerningGroup = O;
unicode = 00D3;
},
{
color = 11;
glyphname = Ocircumflex;
lastChange = "2015-02-19 03:26:13 +0000";
layers = (
{
background = {
paths = (
{
closed = 1;
nodes = (
"163 626 OFFCURVE",
"42 426 OFFCURVE",
"42 215 CURVE SMOOTH",
"42 86 OFFCURVE",
"105 -9 OFFCURVE",
"262 -9 CURVE SMOOTH",
"486 -9 OFFCURVE",
"603 192 OFFCURVE",
"603 406 CURVE SMOOTH",
"603 533 OFFCURVE",
"543 626 OFFCURVE",
"385 626 CURVE SMOOTH"
);
},
{
closed = 1;
nodes = (
"132 311 OFFCURVE",
"176 578 OFFCURVE",
"373 578 CURVE SMOOTH",
"483 578 OFFCURVE",
"515 499 OFFCURVE",
"515 401 CURVE SMOOTH",
"515 257 OFFCURVE",
"451 39 OFFCURVE",
"271 39 CURVE SMOOTH",
"167 39 OFFCURVE",
"132 114 OFFCURVE",
"132 217 CURVE SMOOTH"
);
},
{
closed = 1;
nodes = (
"526 669 LINE",
"447 804 LINE",
"387 804 LINE",
"248 669 LINE",
"268 650 LINE",
"406 735 LINE",
"500 650 LINE"
);
}
);
};
layerId = "27799D80-F866-457E-9382-0097DC0AFC53";
paths = (
{
closed = 1;
nodes = (
"163 626 OFFCURVE",
"42 426 OFFCURVE",
"42 215 CURVE SMOOTH",
"42 86 OFFCURVE",
"105 -9 OFFCURVE",
"262 -9 CURVE SMOOTH",
"486 -9 OFFCURVE",
"603 192 OFFCURVE",
"603 406 CURVE SMOOTH",
"603 533 OFFCURVE",
"543 626 OFFCURVE",
"385 626 CURVE SMOOTH"
);
},
{
closed = 1;
nodes = (
"132 311 OFFCURVE",
"176 578 OFFCURVE",
"373 578 CURVE SMOOTH",
"483 578 OFFCURVE",
"515 499 OFFCURVE",
"515 401 CURVE SMOOTH",
"515 257 OFFCURVE",
"451 39 OFFCURVE",
"271 39 CURVE SMOOTH",
"167 39 OFFCURVE",
"132 114 OFFCURVE",
"132 217 CURVE SMOOTH"
);
},
{
closed = 1;
nodes = (
"526 669 LINE",
"447 804 LINE",
"387 804 LINE",
"248 669 LINE",
"268 650 LINE",
"406 735 LINE",
"500 650 LINE"
);
}
);
width = 623;
},
{
background = {
paths = (
{
closed = 1;
nodes = (
"494 -10 OFFCURVE",
"618 201 OFFCURVE",
"618 418 CURVE SMOOTH",
"618 539 OFFCURVE",
"560 628 OFFCURVE",
"389 628 CURVE SMOOTH",
"160 628 OFFCURVE",
"36 422 OFFCURVE",
"36 208 CURVE SMOOTH",
"36 65 OFFCURVE",
"96 -10 OFFCURVE",
"265 -10 CURVE SMOOTH"
);
},
{
closed = 1;
nodes = (
"197 58 OFFCURVE",
"183 112 OFFCURVE",
"183 203 CURVE SMOOTH",
"183 298 OFFCURVE",
"212 560 OFFCURVE",
"376 560 CURVE SMOOTH",
"451 560 OFFCURVE",
"471 512 OFFCURVE",
"471 422 CURVE SMOOTH",
"471 269 OFFCURVE",
"426 58 OFFCURVE",
"279 58 CURVE SMOOTH"
);
},
{
closed = 1;
nodes = (
"535 665 LINE",
"453 795 LINE",
"368 795 LINE",
"240 669 LINE",
"263 639 LINE",
"397 707 LINE",
"505 639 LINE"
);
}
);
};
layerId = "91FB354D-039B-406A-8F87-4ABC8510003D";
paths = (
{
closed = 1;
nodes = (
"494 -10 OFFCURVE",
"618 201 OFFCURVE",
"618 418 CURVE SMOOTH",
"618 539 OFFCURVE",
"560 628 OFFCURVE",
"389 628 CURVE SMOOTH",
"160 628 OFFCURVE",
"36 422 OFFCURVE",
"36 208 CURVE SMOOTH",
"36 65 OFFCURVE",
"96 -10 OFFCURVE",
"265 -10 CURVE SMOOTH"
);
},
{
closed = 1;
nodes = (
"197 58 OFFCURVE",
"183 112 OFFCURVE",
"183 203 CURVE SMOOTH",
"183 298 OFFCURVE",
"212 560 OFFCURVE",
"376 560 CURVE SMOOTH",
"451 560 OFFCURVE",
"471 512 OFFCURVE",
"471 422 CURVE SMOOTH",
"471 269 OFFCURVE",
"426 58 OFFCURVE",
"279 58 CURVE SMOOTH"
);
},
{
closed = 1;
nodes = (
"535 665 LINE",
"453 795 LINE",
"368 795 LINE",
"240 669 LINE",
"263 639 LINE",
"397 707 LINE",
"505 639 LINE"
);
}
);
width = 630;
}
);
leftKerningGroup = O;
rightKerningGroup = O;
unicode = 00D4;
},
{
color = 11;
glyphname = Odieresis;
lastChange = "2015-02-19 03:26:13 +0000";
layers = (
{
background = {
paths = (
{
closed = 1;
nodes = (
"163 626 OFFCURVE",
"42 426 OFFCURVE",
"42 215 CURVE SMOOTH",
"42 86 OFFCURVE",
"105 -9 OFFCURVE",
"262 -9 CURVE SMOOTH",
"486 -9 OFFCURVE",
"603 192 OFFCURVE",
"603 406 CURVE SMOOTH",
"603 533 OFFCURVE",
"543 626 OFFCURVE",
"385 626 CURVE SMOOTH"
);
},
{
closed = 1;
nodes = (
"132 311 OFFCURVE",
"176 578 OFFCURVE",
"373 578 CURVE SMOOTH",
"483 578 OFFCURVE",
"515 499 OFFCURVE",
"515 401 CURVE SMOOTH",
"515 257 OFFCURVE",
"451 39 OFFCURVE",
"271 39 CURVE SMOOTH",
"167 39 OFFCURVE",
"132 114 OFFCURVE",
"132 217 CURVE SMOOTH"
);
},
{
closed = 1;
nodes = (
"364 758 OFFCURVE",
"337 784 OFFCURVE",
"307 784 CURVE SMOOTH",
"277 784 OFFCURVE",
"250 758 OFFCURVE",
"250 726 CURVE SMOOTH",
"250 696 OFFCURVE",
"277 671 OFFCURVE",
"307 671 CURVE SMOOTH",
"337 671 OFFCURVE",
"364 696 OFFCURVE",
"364 726 CURVE SMOOTH"
);
},
{
closed = 1;
nodes = (
"559 758 OFFCURVE",
"531 784 OFFCURVE",
"501 784 CURVE SMOOTH",
"471 784 OFFCURVE",
"444 758 OFFCURVE",
"444 726 CURVE SMOOTH",
"444 696 OFFCURVE",
"471 671 OFFCURVE",
"501 671 CURVE SMOOTH",
"531 671 OFFCURVE",
"559 696 OFFCURVE",
"559 726 CURVE SMOOTH"
);
}
);
};
layerId = "27799D80-F866-457E-9382-0097DC0AFC53";
paths = (
{
closed = 1;
nodes = (
"163 626 OFFCURVE",
"42 426 OFFCURVE",
"42 215 CURVE SMOOTH",
"42 86 OFFCURVE",
"105 -9 OFFCURVE",
"262 -9 CURVE SMOOTH",
"486 -9 OFFCURVE",
"603 192 OFFCURVE",
"603 406 CURVE SMOOTH",
"603 533 OFFCURVE",
"543 626 OFFCURVE",
"385 626 CURVE SMOOTH"
);
},
{
closed = 1;
nodes = (
"132 311 OFFCURVE",
"176 578 OFFCURVE",
"373 578 CURVE SMOOTH",
"483 578 OFFCURVE",
"515 499 OFFCURVE",
"515 401 CURVE SMOOTH",
"515 257 OFFCURVE",
"451 39 OFFCURVE",
"271 39 CURVE SMOOTH",
"167 39 OFFCURVE",
"132 114 OFFCURVE",
"132 217 CURVE SMOOTH"
);
},
{
closed = 1;
nodes = (
"364 758 OFFCURVE",
"337 784 OFFCURVE",
"307 784 CURVE SMOOTH",
"277 784 OFFCURVE",
"250 758 OFFCURVE",
"250 726 CURVE SMOOTH",
"250 696 OFFCURVE",
"277 671 OFFCURVE",
"307 671 CURVE SMOOTH",
"337 671 OFFCURVE",
"364 696 OFFCURVE",
"364 726 CURVE SMOOTH"
);
},
{
closed = 1;
nodes = (
"559 758 OFFCURVE",
"531 784 OFFCURVE",
"501 784 CURVE SMOOTH",
"471 784 OFFCURVE",
"444 758 OFFCURVE",
"444 726 CURVE SMOOTH",
"444 696 OFFCURVE",
"471 671 OFFCURVE",
"501 671 CURVE SMOOTH",
"531 671 OFFCURVE",
"559 696 OFFCURVE",
"559 726 CURVE SMOOTH"
);
}
);
width = 623;
},
{
background = {
paths = (
{
closed = 1;
nodes = (
"494 -10 OFFCURVE",
"618 201 OFFCURVE",
"618 418 CURVE SMOOTH",
"618 539 OFFCURVE",
"560 628 OFFCURVE",
"389 628 CURVE SMOOTH",
"160 628 OFFCURVE",
"36 422 OFFCURVE",
"36 208 CURVE SMOOTH",
"36 65 OFFCURVE",
"96 -10 OFFCURVE",
"265 -10 CURVE SMOOTH"
);
},
{
closed = 1;
nodes = (
"197 58 OFFCURVE",
"183 112 OFFCURVE",
"183 203 CURVE SMOOTH",
"183 298 OFFCURVE",
"212 560 OFFCURVE",
"376 560 CURVE SMOOTH",
"451 560 OFFCURVE",
"471 512 OFFCURVE",
"471 422 CURVE SMOOTH",
"471 269 OFFCURVE",
"426 58 OFFCURVE",
"279 58 CURVE SMOOTH"
);
},
{
closed = 1;
nodes = (
"361 760 OFFCURVE",
"327 792 OFFCURVE",
"287 792 CURVE SMOOTH",
"246 792 OFFCURVE",
"209 760 OFFCURVE",
"209 719 CURVE SMOOTH",
"209 677 OFFCURVE",
"246 647 OFFCURVE",
"287 647 CURVE SMOOTH",
"327 647 OFFCURVE",
"361 677 OFFCURVE",
"361 719 CURVE SMOOTH"
);
},
{
closed = 1;
nodes = (
"592 760 OFFCURVE",
"557 792 OFFCURVE",
"519 792 CURVE SMOOTH",
"477 792 OFFCURVE",
"442 760 OFFCURVE",
"442 719 CURVE SMOOTH",
"442 677 OFFCURVE",
"477 647 OFFCURVE",
"519 647 CURVE SMOOTH",
"557 647 OFFCURVE",
"592 677 OFFCURVE",
"592 719 CURVE SMOOTH"
);
}
);
};
layerId = "91FB354D-039B-406A-8F87-4ABC8510003D";
paths = (
{
closed = 1;
nodes = (
"494 -10 OFFCURVE",
"618 201 OFFCURVE",
"618 418 CURVE SMOOTH",
"618 539 OFFCURVE",
"560 628 OFFCURVE",
"389 628 CURVE SMOOTH",
"160 628 OFFCURVE",
"36 422 OFFCURVE",
"36 208 CURVE SMOOTH",
"36 65 OFFCURVE",
"96 -10 OFFCURVE",
"265 -10 CURVE SMOOTH"
);
},
{
closed = 1;
nodes = (
"197 58 OFFCURVE",
"183 112 OFFCURVE",
"183 203 CURVE SMOOTH",
"183 298 OFFCURVE",
"212 560 OFFCURVE",
"376 560 CURVE SMOOTH",
"451 560 OFFCURVE",
"471 512 OFFCURVE",
"471 422 CURVE SMOOTH",
"471 269 OFFCURVE",
"426 58 OFFCURVE",
"279 58 CURVE SMOOTH"
);
},
{
closed = 1;
nodes = (
"361 760 OFFCURVE",
"327 792 OFFCURVE",
"287 792 CURVE SMOOTH",
"246 792 OFFCURVE",
"209 760 OFFCURVE",
"209 719 CURVE SMOOTH",
"209 677 OFFCURVE",
"246 647 OFFCURVE",
"287 647 CURVE SMOOTH",
"327 647 OFFCURVE",
"361 677 OFFCURVE",
"361 719 CURVE SMOOTH"
);
},
{
closed = 1;
nodes = (
"592 760 OFFCURVE",
"557 792 OFFCURVE",
"519 792 CURVE SMOOTH",
"477 792 OFFCURVE",
"442 760 OFFCURVE",
"442 719 CURVE SMOOTH",
"442 677 OFFCURVE",
"477 647 OFFCURVE",
"519 647 CURVE SMOOTH",
"557 647 OFFCURVE",
"592 677 OFFCURVE",
"592 719 CURVE SMOOTH"
);
}
);
width = 630;
}
);
leftKerningGroup = O;
rightKerningGroup = O;
unicode = 00D6;
},
{
color = 11;
glyphname = Ograve;
lastChange = "2015-02-19 03:26:13 +0000";
layers = (
{
background = {
paths = (
{
closed = 1;
nodes = (
"163 626 OFFCURVE",
"42 426 OFFCURVE",
"42 215 CURVE SMOOTH",
"42 86 OFFCURVE",
"105 -9 OFFCURVE",
"262 -9 CURVE SMOOTH",
"486 -9 OFFCURVE",
"603 192 OFFCURVE",
"603 406 CURVE SMOOTH",
"603 533 OFFCURVE",
"543 626 OFFCURVE",
"385 626 CURVE SMOOTH"
);
},
{
closed = 1;
nodes = (
"132 311 OFFCURVE",
"176 578 OFFCURVE",
"373 578 CURVE SMOOTH",
"483 578 OFFCURVE",
"515 499 OFFCURVE",
"515 401 CURVE SMOOTH",
"515 257 OFFCURVE",
"451 39 OFFCURVE",
"271 39 CURVE SMOOTH",
"167 39 OFFCURVE",
"132 114 OFFCURVE",
"132 217 CURVE SMOOTH"
);
},
{
closed = 1;
nodes = (
"490 651 LINE",
"506 670 LINE",
"352 800 LINE",
"276 772 LINE",
"276 754 LINE"
);
}
);
};
layerId = "27799D80-F866-457E-9382-0097DC0AFC53";
paths = (
{
closed = 1;
nodes = (
"163 626 OFFCURVE",
"42 426 OFFCURVE",
"42 215 CURVE SMOOTH",
"42 86 OFFCURVE",
"105 -9 OFFCURVE",
"262 -9 CURVE SMOOTH",
"486 -9 OFFCURVE",
"603 192 OFFCURVE",
"603 406 CURVE SMOOTH",
"603 533 OFFCURVE",
"543 626 OFFCURVE",
"385 626 CURVE SMOOTH"
);
},
{
closed = 1;
nodes = (
"132 311 OFFCURVE",
"176 578 OFFCURVE",
"373 578 CURVE SMOOTH",
"483 578 OFFCURVE",
"515 499 OFFCURVE",
"515 401 CURVE SMOOTH",
"515 257 OFFCURVE",
"451 39 OFFCURVE",
"271 39 CURVE SMOOTH",
"167 39 OFFCURVE",
"132 114 OFFCURVE",
"132 217 CURVE SMOOTH"
);
},
{
closed = 1;
nodes = (
"490 651 LINE",
"506 670 LINE",
"352 800 LINE",
"276 772 LINE",
"276 754 LINE"
);
}
);
width = 623;
},
{
background = {
paths = (
{
closed = 1;
nodes = (
"494 -10 OFFCURVE",
"618 201 OFFCURVE",
"618 418 CURVE SMOOTH",
"618 539 OFFCURVE",
"560 628 OFFCURVE",
"389 628 CURVE SMOOTH",
"160 628 OFFCURVE",
"36 422 OFFCURVE",
"36 208 CURVE SMOOTH",
"36 65 OFFCURVE",
"96 -10 OFFCURVE",
"265 -10 CURVE SMOOTH"
);
},
{
closed = 1;
nodes = (
"197 58 OFFCURVE",
"183 112 OFFCURVE",
"183 203 CURVE SMOOTH",
"183 298 OFFCURVE",
"212 560 OFFCURVE",
"376 560 CURVE SMOOTH",
"451 560 OFFCURVE",
"471 512 OFFCURVE",
"471 422 CURVE SMOOTH",
"471 269 OFFCURVE",
"426 58 OFFCURVE",
"279 58 CURVE SMOOTH"
);
},
{
closed = 1;
nodes = (
"496 669 LINE",
"342 800 LINE",
"245 766 LINE",
"241 743 LINE",
"473 634 LINE"
);
}
);
};
layerId = "91FB354D-039B-406A-8F87-4ABC8510003D";
paths = (
{
closed = 1;
nodes = (
"494 -10 OFFCURVE",
"618 201 OFFCURVE",
"618 418 CURVE SMOOTH",
"618 539 OFFCURVE",
"560 628 OFFCURVE",
"389 628 CURVE SMOOTH",
"160 628 OFFCURVE",
"36 422 OFFCURVE",
"36 208 CURVE SMOOTH",
"36 65 OFFCURVE",
"96 -10 OFFCURVE",
"265 -10 CURVE SMOOTH"
);
},
{
closed = 1;
nodes = (
"197 58 OFFCURVE",
"183 112 OFFCURVE",
"183 203 CURVE SMOOTH",
"183 298 OFFCURVE",
"212 560 OFFCURVE",
"376 560 CURVE SMOOTH",
"451 560 OFFCURVE",
"471 512 OFFCURVE",
"471 422 CURVE SMOOTH",
"471 269 OFFCURVE",
"426 58 OFFCURVE",
"279 58 CURVE SMOOTH"
);
},
{
closed = 1;
nodes = (
"496 669 LINE",
"342 800 LINE",
"245 766 LINE",
"241 743 LINE",
"473 634 LINE"
);
}
);
width = 630;
}
);
leftKerningGroup = O;
rightKerningGroup = O;
unicode = 00D2;
},
{
color = 11;
glyphname = Ohungarumlaut;
lastChange = "2015-02-19 03:26:13 +0000";
layers = (
{
background = {
paths = (
{
closed = 1;
nodes = (
"163 626 OFFCURVE",
"42 426 OFFCURVE",
"42 215 CURVE SMOOTH",
"42 86 OFFCURVE",
"105 -9 OFFCURVE",
"262 -9 CURVE SMOOTH",
"486 -9 OFFCURVE",
"603 192 OFFCURVE",
"603 406 CURVE SMOOTH",
"603 533 OFFCURVE",
"543 626 OFFCURVE",
"385 626 CURVE SMOOTH"
);
},
{
closed = 1;
nodes = (
"132 311 OFFCURVE",
"176 578 OFFCURVE",
"373 578 CURVE SMOOTH",
"483 578 OFFCURVE",
"515 499 OFFCURVE",
"515 401 CURVE SMOOTH",
"515 257 OFFCURVE",
"451 39 OFFCURVE",
"271 39 CURVE SMOOTH",
"167 39 OFFCURVE",
"132 114 OFFCURVE",
"132 217 CURVE SMOOTH"
);
},
{
closed = 1;
nodes = (
"408 791 LINE",
"408 808 LINE",
"333 808 LINE",
"247 658 LINE",
"266 647 LINE"
);
},
{
closed = 1;
nodes = (
"569 791 LINE",
"569 808 LINE",
"494 808 LINE",
"408 658 LINE",
"427 647 LINE"
);
}
);
};
layerId = "27799D80-F866-457E-9382-0097DC0AFC53";
paths = (
{
closed = 1;
nodes = (
"163 626 OFFCURVE",
"42 426 OFFCURVE",
"42 215 CURVE SMOOTH",
"42 86 OFFCURVE",
"105 -9 OFFCURVE",
"262 -9 CURVE SMOOTH",
"486 -9 OFFCURVE",
"603 192 OFFCURVE",
"603 406 CURVE SMOOTH",
"603 533 OFFCURVE",
"543 626 OFFCURVE",
"385 626 CURVE SMOOTH"
);
},
{
closed = 1;
nodes = (
"132 311 OFFCURVE",
"176 578 OFFCURVE",
"373 578 CURVE SMOOTH",
"483 578 OFFCURVE",
"515 499 OFFCURVE",
"515 401 CURVE SMOOTH",
"515 257 OFFCURVE",
"451 39 OFFCURVE",
"271 39 CURVE SMOOTH",
"167 39 OFFCURVE",
"132 114 OFFCURVE",
"132 217 CURVE SMOOTH"
);
},
{
closed = 1;
nodes = (
"408 791 LINE",
"408 808 LINE",
"333 808 LINE",
"247 658 LINE",
"266 647 LINE"
);
},
{
closed = 1;
nodes = (
"569 791 LINE",
"569 808 LINE",
"494 808 LINE",
"408 658 LINE",
"427 647 LINE"
);
}
);
width = 623;
},
{
background = {
paths = (
{
closed = 1;
nodes = (
"494 -10 OFFCURVE",
"618 201 OFFCURVE",
"618 418 CURVE SMOOTH",
"618 539 OFFCURVE",
"560 628 OFFCURVE",
"389 628 CURVE SMOOTH",
"160 628 OFFCURVE",
"36 422 OFFCURVE",
"36 208 CURVE SMOOTH",
"36 65 OFFCURVE",
"96 -10 OFFCURVE",
"265 -10 CURVE SMOOTH"
);
},
{
closed = 1;
nodes = (
"197 58 OFFCURVE",
"183 112 OFFCURVE",
"183 203 CURVE SMOOTH",
"183 298 OFFCURVE",
"212 560 OFFCURVE",
"376 560 CURVE SMOOTH",
"451 560 OFFCURVE",
"471 512 OFFCURVE",
"471 422 CURVE SMOOTH",
"471 269 OFFCURVE",
"426 58 OFFCURVE",
"279 58 CURVE SMOOTH"
);
},
{
closed = 1;
nodes = (
"443 792 LINE",
"443 814 LINE",
"351 814 LINE",
"259 654 LINE",
"290 631 LINE"
);
},
{
closed = 1;
nodes = (
"604 792 LINE",
"604 814 LINE",
"512 814 LINE",
"420 654 LINE",
"451 631 LINE"
);
}
);
};
layerId = "91FB354D-039B-406A-8F87-4ABC8510003D";
paths = (
{
closed = 1;
nodes = (
"494 -10 OFFCURVE",
"618 201 OFFCURVE",
"618 418 CURVE SMOOTH",
"618 539 OFFCURVE",
"560 628 OFFCURVE",
"389 628 CURVE SMOOTH",
"160 628 OFFCURVE",
"36 422 OFFCURVE",
"36 208 CURVE SMOOTH",
"36 65 OFFCURVE",
"96 -10 OFFCURVE",
"265 -10 CURVE SMOOTH"
);
},
{
closed = 1;
nodes = (
"197 58 OFFCURVE",
"183 112 OFFCURVE",
"183 203 CURVE SMOOTH",
"183 298 OFFCURVE",
"212 560 OFFCURVE",
"376 560 CURVE SMOOTH",
"451 560 OFFCURVE",
"471 512 OFFCURVE",
"471 422 CURVE SMOOTH",
"471 269 OFFCURVE",
"426 58 OFFCURVE",
"279 58 CURVE SMOOTH"
);
},
{
closed = 1;
nodes = (
"443 792 LINE",
"443 814 LINE",
"351 814 LINE",
"259 654 LINE",
"290 631 LINE"
);
},
{
closed = 1;
nodes = (
"604 792 LINE",
"604 814 LINE",
"512 814 LINE",
"420 654 LINE",
"451 631 LINE"
);
}
);
width = 630;
}
);
leftKerningGroup = O;
rightKerningGroup = O;
unicode = 0150;
},
{
color = 11;
glyphname = Omacron;
lastChange = "2015-02-19 03:26:13 +0000";
layers = (
{
background = {
paths = (
{
closed = 1;
nodes = (
"163 626 OFFCURVE",
"42 426 OFFCURVE",
"42 215 CURVE SMOOTH",
"42 86 OFFCURVE",
"105 -9 OFFCURVE",
"262 -9 CURVE SMOOTH",
"486 -9 OFFCURVE",
"603 192 OFFCURVE",
"603 406 CURVE SMOOTH",
"603 533 OFFCURVE",
"543 626 OFFCURVE",
"385 626 CURVE SMOOTH"
);
},
{
closed = 1;
nodes = (
"132 311 OFFCURVE",
"176 578 OFFCURVE",
"373 578 CURVE SMOOTH",
"483 578 OFFCURVE",
"515 499 OFFCURVE",
"515 401 CURVE SMOOTH",
"515 257 OFFCURVE",
"451 39 OFFCURVE",
"271 39 CURVE SMOOTH",
"167 39 OFFCURVE",
"132 114 OFFCURVE",
"132 217 CURVE SMOOTH"
);
},
{
closed = 1;
nodes = (
"285 689 LINE",
"522 689 LINE",
"530 743 LINE",
"293 743 LINE"
);
}
);
};
layerId = "27799D80-F866-457E-9382-0097DC0AFC53";
paths = (
{
closed = 1;
nodes = (
"163 626 OFFCURVE",
"42 426 OFFCURVE",
"42 215 CURVE SMOOTH",
"42 86 OFFCURVE",
"105 -9 OFFCURVE",
"262 -9 CURVE SMOOTH",
"486 -9 OFFCURVE",
"603 192 OFFCURVE",
"603 406 CURVE SMOOTH",
"603 533 OFFCURVE",
"543 626 OFFCURVE",
"385 626 CURVE SMOOTH"
);
},
{
closed = 1;
nodes = (
"132 311 OFFCURVE",
"176 578 OFFCURVE",
"373 578 CURVE SMOOTH",
"483 578 OFFCURVE",
"515 499 OFFCURVE",
"515 401 CURVE SMOOTH",
"515 257 OFFCURVE",
"451 39 OFFCURVE",
"271 39 CURVE SMOOTH",
"167 39 OFFCURVE",
"132 114 OFFCURVE",
"132 217 CURVE SMOOTH"
);
},
{
closed = 1;
nodes = (
"285 689 LINE",
"522 689 LINE",
"530 743 LINE",
"293 743 LINE"
);
}
);
width = 623;
},
{
background = {
paths = (
{
closed = 1;
nodes = (
"494 -10 OFFCURVE",
"618 201 OFFCURVE",
"618 418 CURVE SMOOTH",
"618 539 OFFCURVE",
"560 628 OFFCURVE",
"389 628 CURVE SMOOTH",
"160 628 OFFCURVE",
"36 422 OFFCURVE",
"36 208 CURVE SMOOTH",
"36 65 OFFCURVE",
"96 -10 OFFCURVE",
"265 -10 CURVE SMOOTH"
);
},
{
closed = 1;
nodes = (
"197 58 OFFCURVE",
"183 112 OFFCURVE",
"183 203 CURVE SMOOTH",
"183 298 OFFCURVE",
"212 560 OFFCURVE",
"376 560 CURVE SMOOTH",
"451 560 OFFCURVE",
"471 512 OFFCURVE",
"471 422 CURVE SMOOTH",
"471 269 OFFCURVE",
"426 58 OFFCURVE",
"279 58 CURVE SMOOTH"
);
},
{
closed = 1;
nodes = (
"267 679 LINE",
"528 679 LINE",
"539 758 LINE",
"278 758 LINE"
);
}
);
};
layerId = "91FB354D-039B-406A-8F87-4ABC8510003D";
paths = (
{
closed = 1;
nodes = (
"494 -10 OFFCURVE",
"618 201 OFFCURVE",
"618 418 CURVE SMOOTH",
"618 539 OFFCURVE",
"560 628 OFFCURVE",
"389 628 CURVE SMOOTH",
"160 628 OFFCURVE",
"36 422 OFFCURVE",
"36 208 CURVE SMOOTH",
"36 65 OFFCURVE",
"96 -10 OFFCURVE",
"265 -10 CURVE SMOOTH"
);
},
{
closed = 1;
nodes = (
"197 58 OFFCURVE",
"183 112 OFFCURVE",
"183 203 CURVE SMOOTH",
"183 298 OFFCURVE",
"212 560 OFFCURVE",
"376 560 CURVE SMOOTH",
"451 560 OFFCURVE",
"471 512 OFFCURVE",
"471 422 CURVE SMOOTH",
"471 269 OFFCURVE",
"426 58 OFFCURVE",
"279 58 CURVE SMOOTH"
);
},
{
closed = 1;
nodes = (
"267 679 LINE",
"528 679 LINE",
"539 758 LINE",
"278 758 LINE"
);
}
);
width = 630;
}
);
leftKerningGroup = O;
rightKerningGroup = O;
unicode = 014C;
},
{
glyphname = Oogonek;
lastChange = "2015-02-21 02:55:36 +0000";
layers = (
{
components = (
{
name = O;
}
);
layerId = "27799D80-F866-457E-9382-0097DC0AFC53";
paths = (
{
closed = 1;
nodes = (
"404 41 LINE",
"321 -19 OFFCURVE",
"289 -80 OFFCURVE",
"289 -124 CURVE SMOOTH",
"289 -162 OFFCURVE",
"313 -195 OFFCURVE",
"370 -195 CURVE SMOOTH",
"420 -195 OFFCURVE",
"453 -169 OFFCURVE",
"473 -145 CURVE",
"459 -129 LINE",
"441 -145 OFFCURVE",
"423 -151 OFFCURVE",
"405 -151 CURVE SMOOTH",
"376 -151 OFFCURVE",
"358 -135 OFFCURVE",
"358 -102 CURVE SMOOTH",
"358 -46 OFFCURVE",
"410 19 OFFCURVE",
"455 55 CURVE"
);
}
);
width = 623;
},
{
components = (
{
name = O;
}
);
layerId = "91FB354D-039B-406A-8F87-4ABC8510003D";
paths = (
{
closed = 1;
nodes = (
"405 41 LINE",
"321 -17 OFFCURVE",
"286 -78 OFFCURVE",
"286 -121 CURVE SMOOTH",
"286 -157 OFFCURVE",
"310 -195 OFFCURVE",
"375 -195 CURVE SMOOTH",
"435 -195 OFFCURVE",
"473 -163 OFFCURVE",
"496 -133 CURVE",
"476 -111 LINE",
"454 -125 OFFCURVE",
"433 -133 OFFCURVE",
"413 -133 CURVE SMOOTH",
"385 -133 OFFCURVE",
"374 -117 OFFCURVE",
"374 -95 CURVE SMOOTH",
"374 -50 OFFCURVE",
"423 25 OFFCURVE",
"465 58 CURVE"
);
}
);
width = 630;
}
);
unicode = 01EA;
},
{
color = 11;
glyphname = Oslash;
lastChange = "2015-02-21 01:37:08 +0000";
layers = (
{
anchors = (
{
name = top;
position = "{313, 611}";
}
);
background = {
paths = (
{
closed = 1;
nodes = (
"385 626 LINE SMOOTH",
"163 626 OFFCURVE",
"42 426 OFFCURVE",
"42 215 CURVE SMOOTH",
"42 108 OFFCURVE",
"85 25 OFFCURVE",
"188 0 CURVE",
"157 -96 LINE",
"218 -96 LINE",
"246 -9 LINE",
"262 -9 LINE SMOOTH",
"486 -9 OFFCURVE",
"603 192 OFFCURVE",
"603 406 CURVE SMOOTH",
"603 514 OFFCURVE",
"559 597 OFFCURVE",
"449 620 CURVE",
"478 708 LINE",
"417 708 LINE",
"390 626 LINE"
);
},
{
closed = 1;
nodes = (
"515 257 OFFCURVE",
"451 39 OFFCURVE",
"271 39 CURVE SMOOTH",
"261 39 LINE",
"432 568 LINE",
"495 544 OFFCURVE",
"515 478 OFFCURVE",
"515 401 CURVE SMOOTH"
);
},
{
closed = 1;
nodes = (
"132 311 OFFCURVE",
"176 578 OFFCURVE",
"373 578 CURVE SMOOTH",
"375 578 LINE",
"205 52 LINE",
"151 78 OFFCURVE",
"132 140 OFFCURVE",
"132 217 CURVE SMOOTH"
);
}
);
};
layerId = "27799D80-F866-457E-9382-0097DC0AFC53";
paths = (
{
closed = 1;
nodes = (
"385 626 LINE SMOOTH",
"163 626 OFFCURVE",
"42 426 OFFCURVE",
"42 215 CURVE SMOOTH",
"42 108 OFFCURVE",
"85 25 OFFCURVE",
"188 0 CURVE",
"157 -96 LINE",
"218 -96 LINE",
"246 -9 LINE",
"262 -9 LINE SMOOTH",
"486 -9 OFFCURVE",
"603 192 OFFCURVE",
"603 406 CURVE SMOOTH",
"603 514 OFFCURVE",
"559 597 OFFCURVE",
"449 620 CURVE",
"478 708 LINE",
"417 708 LINE",
"390 626 LINE"
);
},
{
closed = 1;
nodes = (
"515 257 OFFCURVE",
"451 39 OFFCURVE",
"271 39 CURVE SMOOTH",
"261 39 LINE",
"432 568 LINE",
"495 544 OFFCURVE",
"515 478 OFFCURVE",
"515 401 CURVE SMOOTH"
);
},
{
closed = 1;
nodes = (
"132 311 OFFCURVE",
"176 578 OFFCURVE",
"373 578 CURVE SMOOTH",
"375 578 LINE",
"205 52 LINE",
"151 78 OFFCURVE",
"132 140 OFFCURVE",
"132 217 CURVE SMOOTH"
);
}
);
width = 623;
},
{
anchors = (
{
name = top;
position = "{277, 614}";
}
);
background = {
paths = (
{
closed = 1;
nodes = (
"265 -10 LINE SMOOTH",
"494 -10 OFFCURVE",
"618 201 OFFCURVE",
"618 418 CURVE SMOOTH",
"618 519 OFFCURVE",
"577 598 OFFCURVE",
"463 621 CURVE",
"492 709 LINE",
"421 709 LINE",
"394 628 LINE",
"389 628 LINE SMOOTH",
"160 628 OFFCURVE",
"36 422 OFFCURVE",
"36 208 CURVE SMOOTH",
"36 89 OFFCURVE",
"77 17 OFFCURVE",
"189 -3 CURVE",
"160 -92 LINE",
"231 -92 LINE",
"257 -10 LINE"
);
},
{
closed = 1;
nodes = (
"471 269 OFFCURVE",
"426 58 OFFCURVE",
"279 58 CURVE",
"437 541 LINE",
"463 520 OFFCURVE",
"471 479 OFFCURVE",
"471 422 CURVE SMOOTH"
);
},
{
closed = 1;
nodes = (
"183 297 OFFCURVE",
"211 556 OFFCURVE",
"372 560 CURVE",
"215 77 LINE",
"189 100 OFFCURVE",
"183 144 OFFCURVE",
"183 203 CURVE SMOOTH"
);
}
);
};
layerId = "91FB354D-039B-406A-8F87-4ABC8510003D";
paths = (
{
closed = 1;
nodes = (
"265 -10 LINE SMOOTH",
"494 -10 OFFCURVE",
"618 201 OFFCURVE",
"618 418 CURVE SMOOTH",
"618 519 OFFCURVE",
"577 598 OFFCURVE",
"463 621 CURVE",
"492 709 LINE",
"421 709 LINE",
"394 628 LINE",
"389 628 LINE SMOOTH",
"160 628 OFFCURVE",
"36 422 OFFCURVE",
"36 208 CURVE SMOOTH",
"36 89 OFFCURVE",
"77 17 OFFCURVE",
"189 -3 CURVE",
"160 -92 LINE",
"231 -92 LINE",
"257 -10 LINE"
);
},
{
closed = 1;
nodes = (
"471 269 OFFCURVE",
"426 58 OFFCURVE",
"279 58 CURVE",
"437 541 LINE",
"463 520 OFFCURVE",
"471 479 OFFCURVE",
"471 422 CURVE SMOOTH"
);
},
{
closed = 1;
nodes = (
"183 297 OFFCURVE",
"211 556 OFFCURVE",
"372 560 CURVE",
"215 77 LINE",
"189 100 OFFCURVE",
"183 144 OFFCURVE",
"183 203 CURVE SMOOTH"
);
}
);
width = 630;
}
);
leftKerningGroup = O;
rightKerningGroup = O;
unicode = 00D8;
},
{
color = 11;
glyphname = Otilde;
lastChange = "2015-02-19 03:26:13 +0000";
layers = (
{
background = {
paths = (
{
closed = 1;
nodes = (
"163 626 OFFCURVE",
"42 426 OFFCURVE",
"42 215 CURVE SMOOTH",
"42 86 OFFCURVE",
"105 -9 OFFCURVE",
"262 -9 CURVE SMOOTH",
"486 -9 OFFCURVE",
"603 192 OFFCURVE",
"603 406 CURVE SMOOTH",
"603 533 OFFCURVE",
"543 626 OFFCURVE",
"385 626 CURVE SMOOTH"
);
},
{
closed = 1;
nodes = (
"132 311 OFFCURVE",
"176 578 OFFCURVE",
"373 578 CURVE SMOOTH",
"483 578 OFFCURVE",
"515 499 OFFCURVE",
"515 401 CURVE SMOOTH",
"515 257 OFFCURVE",
"451 39 OFFCURVE",
"271 39 CURVE SMOOTH",
"167 39 OFFCURVE",
"132 114 OFFCURVE",
"132 217 CURVE SMOOTH"
);
},
{
closed = 1;
nodes = (
"537 777 LINE",
"537 777 OFFCURVE",
"517 742 OFFCURVE",
"494 742 CURVE SMOOTH",
"459 742 OFFCURVE",
"376 782 OFFCURVE",
"342 782 CURVE SMOOTH",
"309 782 OFFCURVE",
"287 738 OFFCURVE",
"266 686 CURVE",
"296 674 LINE",
"296 674 OFFCURVE",
"319 710 OFFCURVE",
"341 710 CURVE SMOOTH",
"374 710 OFFCURVE",
"459 670 OFFCURVE",
"493 670 CURVE SMOOTH",
"525 670 OFFCURVE",
"547 714 OFFCURVE",
"568 765 CURVE"
);
}
);
};
layerId = "27799D80-F866-457E-9382-0097DC0AFC53";
paths = (
{
closed = 1;
nodes = (
"163 626 OFFCURVE",
"42 426 OFFCURVE",
"42 215 CURVE SMOOTH",
"42 86 OFFCURVE",
"105 -9 OFFCURVE",
"262 -9 CURVE SMOOTH",
"486 -9 OFFCURVE",
"603 192 OFFCURVE",
"603 406 CURVE SMOOTH",
"603 533 OFFCURVE",
"543 626 OFFCURVE",
"385 626 CURVE SMOOTH"
);
},
{
closed = 1;
nodes = (
"132 311 OFFCURVE",
"176 578 OFFCURVE",
"373 578 CURVE SMOOTH",
"483 578 OFFCURVE",
"515 499 OFFCURVE",
"515 401 CURVE SMOOTH",
"515 257 OFFCURVE",
"451 39 OFFCURVE",
"271 39 CURVE SMOOTH",
"167 39 OFFCURVE",
"132 114 OFFCURVE",
"132 217 CURVE SMOOTH"
);
},
{
closed = 1;
nodes = (
"537 777 LINE",
"537 777 OFFCURVE",
"517 742 OFFCURVE",
"494 742 CURVE SMOOTH",
"459 742 OFFCURVE",
"376 782 OFFCURVE",
"342 782 CURVE SMOOTH",
"309 782 OFFCURVE",
"287 738 OFFCURVE",
"266 686 CURVE",
"296 674 LINE",
"296 674 OFFCURVE",
"319 710 OFFCURVE",
"341 710 CURVE SMOOTH",
"374 710 OFFCURVE",
"459 670 OFFCURVE",
"493 670 CURVE SMOOTH",
"525 670 OFFCURVE",
"547 714 OFFCURVE",
"568 765 CURVE"
);
}
);
width = 623;
},
{
background = {
paths = (
{
closed = 1;
nodes = (
"494 -10 OFFCURVE",
"618 201 OFFCURVE",
"618 418 CURVE SMOOTH",
"618 539 OFFCURVE",
"560 628 OFFCURVE",
"389 628 CURVE SMOOTH",
"160 628 OFFCURVE",
"36 422 OFFCURVE",
"36 208 CURVE SMOOTH",
"36 65 OFFCURVE",
"96 -10 OFFCURVE",
"265 -10 CURVE SMOOTH"
);
},
{
closed = 1;
nodes = (
"197 58 OFFCURVE",
"183 112 OFFCURVE",
"183 203 CURVE SMOOTH",
"183 298 OFFCURVE",
"212 560 OFFCURVE",
"376 560 CURVE SMOOTH",
"451 560 OFFCURVE",
"471 512 OFFCURVE",
"471 422 CURVE SMOOTH",
"471 269 OFFCURVE",
"426 58 OFFCURVE",
"279 58 CURVE SMOOTH"
);
},
{
closed = 1;
nodes = (
"518 778 LINE",
"518 778 OFFCURVE",
"501 747 OFFCURVE",
"476 747 CURVE SMOOTH",
"437 747 OFFCURVE",
"349 784 OFFCURVE",
"300 784 CURVE SMOOTH",
"267 784 OFFCURVE",
"233 738 OFFCURVE",
"213 680 CURVE",
"260 661 LINE",
"260 661 OFFCURVE",
"276 692 OFFCURVE",
"300 692 CURVE SMOOTH",
"338 692 OFFCURVE",
"427 655 OFFCURVE",
"476 655 CURVE SMOOTH",
"510 655 OFFCURVE",
"538 701 OFFCURVE",
"562 759 CURVE"
);
}
);
};
layerId = "91FB354D-039B-406A-8F87-4ABC8510003D";
paths = (
{
closed = 1;
nodes = (
"494 -10 OFFCURVE",
"618 201 OFFCURVE",
"618 418 CURVE SMOOTH",
"618 539 OFFCURVE",
"560 628 OFFCURVE",
"389 628 CURVE SMOOTH",
"160 628 OFFCURVE",
"36 422 OFFCURVE",
"36 208 CURVE SMOOTH",
"36 65 OFFCURVE",
"96 -10 OFFCURVE",
"265 -10 CURVE SMOOTH"
);
},
{
closed = 1;
nodes = (
"197 58 OFFCURVE",
"183 112 OFFCURVE",
"183 203 CURVE SMOOTH",
"183 298 OFFCURVE",
"212 560 OFFCURVE",
"376 560 CURVE SMOOTH",
"451 560 OFFCURVE",
"471 512 OFFCURVE",
"471 422 CURVE SMOOTH",
"471 269 OFFCURVE",
"426 58 OFFCURVE",
"279 58 CURVE SMOOTH"
);
},
{
closed = 1;
nodes = (
"518 778 LINE",
"518 778 OFFCURVE",
"501 747 OFFCURVE",
"476 747 CURVE SMOOTH",
"437 747 OFFCURVE",
"349 784 OFFCURVE",
"300 784 CURVE SMOOTH",
"267 784 OFFCURVE",
"233 738 OFFCURVE",
"213 680 CURVE",
"260 661 LINE",
"260 661 OFFCURVE",
"276 692 OFFCURVE",
"300 692 CURVE SMOOTH",
"338 692 OFFCURVE",
"427 655 OFFCURVE",
"476 655 CURVE SMOOTH",
"510 655 OFFCURVE",
"538 701 OFFCURVE",
"562 759 CURVE"
);
}
);
width = 630;
}
);
leftKerningGroup = O;
rightKerningGroup = O;
unicode = 00D5;
},
